<?xml version="1.0" encoding="utf-8"?>
<!-- Generator: Adobe Illustrator 24.3.0, SVG Export Plug-In . SVG Version: 6.00 Build 0)  -->
<svg version="1.1" id="Layer_1" xmlns="http://www.w3.org/2000/svg" xmlns:xlink="http://www.w3.org/1999/xlink" x="0px" y="0px"
	 viewBox="0 0 750 500" style="enable-background:new 0 0 750 500;" xml:space="preserve">
<style type="text/css">
	.st0{fill:#FFFFFF;}
	.st1{fill:#A7DCEF;}
	.st2{fill:#4275F7;}
	
		.st3{clip-path:url(#SVGID_2_);fill:none;stroke:#4275F7;stroke-width:1.6577;stroke-linecap:round;stroke-linejoin:round;stroke-miterlimit:10;stroke-dasharray:4.973,9.946;}
	
		.st4{clip-path:url(#SVGID_4_);fill:none;stroke:#4275F7;stroke-width:1.6577;stroke-linecap:round;stroke-linejoin:round;stroke-miterlimit:10;stroke-dasharray:4.973,9.946;}
	
		.st5{clip-path:url(#SVGID_6_);fill:none;stroke:#4275F7;stroke-width:1.7393;stroke-linecap:round;stroke-linejoin:round;stroke-miterlimit:10;stroke-dasharray:5.2178,10.4357;}
	
		.st6{clip-path:url(#SVGID_8_);fill:none;stroke:#F5F0EC;stroke-width:1.6577;stroke-linecap:round;stroke-linejoin:round;stroke-miterlimit:10;stroke-dasharray:10.7749,13.2614;}
	.st7{fill:#F2D176;}
	.st8{clip-path:url(#SVGID_10_);}
	.st9{fill:#3259A8;}
	.st10{fill:none;stroke:#1B1E4F;stroke-width:1.7074;stroke-linecap:round;stroke-linejoin:round;stroke-miterlimit:10;}
	.st11{clip-path:url(#SVGID_12_);}
	.st12{fill:#7CB0F8;}
	.st13{clip-path:url(#SVGID_14_);}
	.st14{fill:none;stroke:#1B1E4F;stroke-width:1.2712;stroke-linecap:round;stroke-linejoin:round;stroke-miterlimit:10;}
	.st15{clip-path:url(#SVGID_16_);}
	.st16{fill:none;stroke:#1B1E4F;stroke-width:1.8514;stroke-linecap:round;stroke-linejoin:round;stroke-miterlimit:10;}
	.st17{clip-path:url(#SVGID_18_);}
	.st18{clip-path:url(#SVGID_20_);}
	.st19{clip-path:url(#SVGID_22_);}
	.st20{clip-path:url(#SVGID_24_);}
	.st21{fill:none;stroke:#1B1E4F;stroke-width:1.3784;stroke-linecap:round;stroke-linejoin:round;stroke-miterlimit:10;}
	.st22{clip-path:url(#SVGID_26_);}
	.st23{clip-path:url(#SVGID_28_);}
	.st24{fill:#AC3615;fill-opacity:0.9865;}
	.st25{fill:#DD4A20;}
	.st26{fill:#F8E9D5;fill-opacity:0.9865;}
	.st27{clip-path:url(#SVGID_30_);fill:#2D201B;}
	.st28{clip-path:url(#SVGID_32_);fill:#DD4A20;}
	.st29{clip-path:url(#SVGID_34_);fill:#3259A8;}
	.st30{clip-path:url(#SVGID_36_);}
	.st31{fill:none;stroke:#FFFFFF;stroke-width:4.0308;stroke-linecap:round;stroke-linejoin:round;stroke-miterlimit:10;}
	.st32{fill:none;stroke:#2D201B;stroke-width:0.6363;stroke-miterlimit:10;}
	.st33{fill:none;stroke:#AC3615;stroke-width:1.6523;stroke-linecap:round;stroke-linejoin:round;stroke-miterlimit:10;}
	.st34{fill:none;stroke:#F5F0EC;stroke-width:1.9198;stroke-linecap:round;stroke-linejoin:round;stroke-miterlimit:10;}
	.st35{fill:none;stroke:#DD4A20;stroke-width:2.6186;stroke-linecap:round;stroke-linejoin:round;stroke-miterlimit:10;}
	.st36{fill:none;stroke:#DD4A20;stroke-width:2.5077;stroke-linecap:round;stroke-linejoin:round;stroke-miterlimit:10;}
	.st37{fill:none;stroke:#AC3615;stroke-width:1.5227;stroke-linecap:round;stroke-linejoin:round;stroke-miterlimit:10;}
	.st38{fill:none;stroke:#AC3615;stroke-width:1.5227;stroke-linecap:round;stroke-linejoin:round;stroke-miterlimit:9.9998;}
	.st39{fill:#AC3615;}
	.st40{clip-path:url(#SVGID_38_);}
	.st41{clip-path:url(#SVGID_40_);}
	.st42{clip-path:url(#SVGID_42_);}
	.st43{fill:#F5F0EC;}
	
		.st44{clip-path:url(#SVGID_44_);fill:none;stroke:#DD4A20;stroke-width:11.3788;stroke-linecap:round;stroke-linejoin:round;stroke-miterlimit:10;}
	
		.st45{clip-path:url(#SVGID_46_);fill:none;stroke:#DD4A20;stroke-width:11.3788;stroke-linecap:round;stroke-linejoin:round;stroke-miterlimit:10;}
	
		.st46{clip-path:url(#SVGID_48_);fill:none;stroke:#DD4A20;stroke-width:11.3788;stroke-linecap:round;stroke-linejoin:round;stroke-miterlimit:10;}
	.st47{clip-path:url(#SVGID_50_);fill:#3259A8;}
	.st48{clip-path:url(#SVGID_52_);}
	.st49{clip-path:url(#SVGID_54_);}
	.st50{clip-path:url(#SVGID_56_);}
	.st51{clip-path:url(#SVGID_58_);}
	.st52{clip-path:url(#SVGID_60_);}
	.st53{clip-path:url(#SVGID_62_);}
	.st54{clip-path:url(#SVGID_64_);fill:#DD4A20;}
	.st55{clip-path:url(#SVGID_66_);}
	.st56{fill:#FDFCFC;}
	.st57{clip-path:url(#SVGID_68_);}
	.st58{fill:#2D201B;}
	.st59{fill:#E8E8E8;}
	.st60{clip-path:url(#SVGID_70_);fill:#A7DCEF;}
	.st61{clip-path:url(#SVGID_72_);fill:#244085;}
	.st62{clip-path:url(#SVGID_74_);}
	.st63{clip-path:url(#SVGID_76_);}
	.st64{clip-path:url(#SVGID_78_);}
	.st65{clip-path:url(#SVGID_80_);}
	.st66{clip-path:url(#SVGID_82_);fill:#DD4A20;}
	.st67{clip-path:url(#SVGID_84_);}
	.st68{fill:#9EA1AB;}
	.st69{fill:#55575B;}
	.st70{fill:none;stroke:#9EA1AB;stroke-width:0.7297;stroke-linecap:round;stroke-linejoin:round;stroke-miterlimit:10.0001;}
	.st71{fill:none;stroke:#9EA1AB;stroke-width:0.7297;stroke-linecap:round;stroke-linejoin:round;stroke-miterlimit:10;}
	.st72{enable-background:new    ;}
	.st73{opacity:0.3;fill:#FFFFFF;stroke:#000000;stroke-width:0.928;stroke-miterlimit:10;}
</style>
<g id="BACKGROUND">
	<rect class="st0" width="750" height="500.2"/>
</g>
<g id="OBJECTS">
	<g>
		<path class="st1" d="M385.5,0c-4.2,40.3-36.8,74.9-75.3,88.7c-40.4,14.5-85.7,9.4-126.5-4.2c-22.8-7.6-45-17.9-68.7-22
			c-23.7-4.1-50.3-1-68.1,15.2C23.4,99,20,137.7,0,160.4V0H385.5z"/>
		<path class="st1" d="M730.6,500.2H229.6c9.9-36.4,37.6-67.7,72.8-81.4c39-15.1,85.8-7.8,118.4,18.3c20.2,16.1,36.3,39.4,61.2,46.3
			c30.6,8.4,60.9-11,89.5-24.8c28.8-14,61.5-23,93-17.1C695.2,447.3,724.1,469.9,730.6,500.2z"/>
		<path class="st2" d="M719.1,0c-4.5,19-14.4,36.1-31.7,44.1c-25.9,12-56.2-1.4-84.7,0.7c-40.9,3-72.1,36.6-109,54.5
			c-48.7,23.7-110.3,18.3-154.1-13.7C311.3,65,291.3,33.9,282.8,0C282.8,0,719.1,0,719.1,0z"/>
		<path class="st2" d="M388.4,500.2H82.1c-4-38.1,24.7-76.7,61.9-88.1c39.9-12.2,84.9,3,115.2,31.7c13.9,13.1,26.3,29.4,44.7,34.6
			c16.4,4.6,33.8-0.8,50.8,0C369,479,385.1,487.6,388.4,500.2z"/>
		<path class="st1" d="M82.1,376.3c-5.9,10.6-13,20.6-22.3,28.4C43.3,418.5,21.6,424,0,425.6V244.2c6.7-3,14-4.9,21.3-5.5
			c19.1-1.7,38.7,4.9,52.8,17.9c15.9,14.6,24.2,36.4,24.7,58C99.3,336.1,92.6,357.5,82.1,376.3z"/>
		<g>
			<g>
				<defs>
					<rect id="SVGID_1_" y="0" width="750" height="500.2"/>
				</defs>
				<clipPath id="SVGID_2_">
					<use xlink:href="#SVGID_1_"  style="overflow:visible;"/>
				</clipPath>
				<path class="st3" d="M24.9-16.6c9.2,51,42.4,118.2,97.1,131.9c69.3,17.5,113.8-60.8,124.8-117.7"/>
			</g>
			<g>
				<defs>
					<rect id="SVGID_3_" y="0" width="750" height="500.2"/>
				</defs>
				<clipPath id="SVGID_4_">
					<use xlink:href="#SVGID_3_"  style="overflow:visible;"/>
				</clipPath>
				<path class="st4" d="M290.3,517.9c9.7-34.7,29.1-67.6,58.3-88.8c29.2-21.2,68.8-29.3,102.5-16.4c36.7,14,65.7,51.1,105,49.8
					c14.8-0.5,28.8-6.7,43.6-7.9c34.3-2.9,68.1,25.3,71.4,59.5"/>
			</g>
			<g>
				<defs>
					<rect id="SVGID_5_" y="0" width="750" height="500.2"/>
				</defs>
				<clipPath id="SVGID_6_">
					<use xlink:href="#SVGID_5_"  style="overflow:visible;"/>
				</clipPath>
				<path class="st5" d="M759.2,163c-54.2,24.8-89.4,86-83.5,145.3c5.9,59.3,52.4,112.4,110.5,126"/>
			</g>
			<g>
				<defs>
					<rect id="SVGID_7_" y="0" width="750" height="500.2"/>
				</defs>
				<clipPath id="SVGID_8_">
					<use xlink:href="#SVGID_7_"  style="overflow:visible;"/>
				</clipPath>
				<path class="st6" d="M351.6-20.9c9,26.2,29.5,47.9,54.7,59.3s54.7,12.5,81,3.9c14-4.6,27.3-11.8,41.9-14.3
					c15.3-2.6,31,0.1,46.4,2c15.4,1.9,31.7,2.8,45.9-3.3c14.3-6.1,25.9-21.1,23.2-36.4"/>
			</g>
		</g>
		<path class="st7" d="M569.1,109.4c-10.3-25.5,8.2-57,41.3-70.4c33.1-13.4,68.3-3.5,78.6,22c5.5,13.5,2.8,28.7-5.8,42
			c1.7,0.3,3.5,0.5,5.3,0.5c7.7,0.1,15.3-2.4,21.5-6.9c-5.8,8-12.6,15.7-22,18.5c-5.1,1.6-10.6,1.9-15.9,0.9
			c-6.7,6.2-15,11.5-24.5,15.3C614.6,144.7,579.4,134.9,569.1,109.4z"/>
		<g>
			<g>
				<defs>
					<rect id="SVGID_9_" x="195.3" width="230.1" height="144.4"/>
				</defs>
				<clipPath id="SVGID_10_">
					<use xlink:href="#SVGID_9_"  style="overflow:visible;"/>
				</clipPath>
				<g class="st8">
					<path class="st9" d="M275.1,73.6c-6.7,11.4-14.9,23.7-27.3,30.9c-11.5,6.7-30.8,10.4-39.8-2.5c-4.1-5.8-3.8-13.3-2.1-20
						c3.2-12.3,10.9-23,19.2-32.9c23.9-28.3,54.5-51.5,89-67.5c-3.3,1.5-6.7,19.4-8,23.4c-7.8,23-17.5,45.4-29.8,66.4
						C276,72.1,275.5,72.8,275.1,73.6z"/>
					<line class="st10" x1="238.9" y1="72.8" x2="314.1" y2="-18.5"/>
				</g>
			</g>
			<g>
				<defs>
					<rect id="SVGID_11_" x="195.3" width="230.1" height="144.4"/>
				</defs>
				<clipPath id="SVGID_12_">
					<use xlink:href="#SVGID_11_"  style="overflow:visible;"/>
				</clipPath>
				<g class="st11">
					<path class="st12" d="M331.1,61.3c-0.1,12.2-0.9,25.8-6.7,36.7c-5.4,10.2-17.6,20.8-29.2,13.5c-5.2-3.3-8.1-9.7-9.6-16
						c-2.7-11.6-1.7-23.7,0.2-35.2c5.4-33.1,17.6-64.7,35.6-91.7c-1.7,2.6,3.2,19,3.9,22.8c3.8,22.4,6.1,45,6,67.6
						C331.1,59.8,331.1,60.6,331.1,61.3z"/>
					<line class="st10" x1="305.2" y1="75" x2="321.3" y2="-31.4"/>
				</g>
			</g>
			<g>
				<defs>
					<rect id="SVGID_13_" x="195.3" width="230.1" height="144.4"/>
				</defs>
				<clipPath id="SVGID_14_">
					<use xlink:href="#SVGID_13_"  style="overflow:visible;"/>
				</clipPath>
				<g class="st13">
					<path class="st12" d="M355.2,30.4c3.5,8.4,7.8,17.6,14.8,23.5c6.6,5.5,17.9,9.6,24,1.3c2.7-3.7,2.9-9,2.2-13.7
						c-1.3-8.8-5.4-16.8-9.9-24.3c-12.9-21.4-30-39.8-49.9-53.6c1.9,1.3,3,14,3.6,16.9c3.5,16.5,8.2,32.8,14.5,48.4
						C354.7,29.3,354.9,29.9,355.2,30.4z"/>
					<line class="st14" x1="376.9" y1="32.7" x2="336.4" y2="-36.4"/>
				</g>
			</g>
		</g>
		<g>
			<g>
				<defs>
					<rect id="SVGID_15_" y="186" width="121.6" height="225.1"/>
				</defs>
				<clipPath id="SVGID_16_">
					<use xlink:href="#SVGID_15_"  style="overflow:visible;"/>
				</clipPath>
				<g class="st15">
					<path class="st9" d="M20.7,284.4c8.1-11.8,17.9-24.5,31.8-31.4c13-6.4,34.1-9,42.9,5.7c4,6.6,3.2,14.7,0.8,21.7
						c-4.4,13.1-13.5,24.1-23.2,34.2C45,343.4,10.2,366.2-28.3,381c3.6-1.4,8.6-20.5,10.4-24.7c10.1-24.3,22.2-47.8,37.1-69.7
						C19.6,285.9,20.1,285.1,20.7,284.4z"/>
					<line class="st16" x1="59.8" y1="287.8" x2="-28.3" y2="381"/>
				</g>
			</g>
			<g>
				<defs>
					<rect id="SVGID_17_" y="186" width="121.6" height="225.1"/>
				</defs>
				<clipPath id="SVGID_18_">
					<use xlink:href="#SVGID_17_"  style="overflow:visible;"/>
				</clipPath>
				<g class="st17">
					<path class="st12" d="M20.4,228.2c5.3-12.1,11.8-25.4,22.2-33.8c9.7-7.9,26.3-13.4,34.9-1.2c3.9,5.5,4.1,13.1,2.9,20
						c-2.2,12.7-8.3,24.3-15,35.1C46,279.1,20.5,305.4-8.7,325C-6,323.1-4,304.7-3,300.5c5.5-24,12.8-47.6,22.4-70
						C19.7,229.7,20.1,228.9,20.4,228.2z"/>
					<line class="st16" x1="52.1" y1="225.4" x2="-8.7" y2="324.9"/>
				</g>
			</g>
		</g>
		<g>
			<g>
				<defs>
					<rect id="SVGID_19_" x="326.4" y="326.8" width="239.8" height="173.4"/>
				</defs>
				<clipPath id="SVGID_20_">
					<use xlink:href="#SVGID_19_"  style="overflow:visible;"/>
				</clipPath>
				<g class="st18">
					<path class="st9" d="M414.1,410.7c-3.7-13.8-7.1-29.5-3.4-44.5c3.5-14,15.2-31.8,32.1-29c7.6,1.2,13.2,7.1,17.1,13.5
						c7.1,11.8,9.7,25.9,11,39.8c3.9,39.9-1.3,81.2-14.9,120.2c1.3-3.7-10-19.9-12.1-23.9c-12-23.4-22-47.9-29.1-73.4
						C414.6,412.4,414.4,411.6,414.1,410.7z"/>
					<line class="st16" x1="442.1" y1="383.1" x2="456.1" y2="510.6"/>
				</g>
			</g>
			<g>
				<defs>
					<rect id="SVGID_21_" x="326.4" y="326.8" width="239.8" height="173.4"/>
				</defs>
				<clipPath id="SVGID_22_">
					<use xlink:href="#SVGID_21_"  style="overflow:visible;"/>
				</clipPath>
				<g class="st19">
					<path class="st12" d="M381.2,463.4c-9.4-9.3-19.3-20.3-23.4-33c-3.8-11.9-2.9-29.4,11.6-32.9c6.5-1.6,13.7,1,19.7,4.6
						c11.1,6.7,19.6,16.6,27.2,26.8c21.6,29.3,36.9,62.6,44.3,97c-0.7-3.3-17.1-11.9-20.7-14.3c-20.3-13.9-39.6-29.3-57-46.5
						C382.4,464.6,381.8,464,381.2,463.4z"/>
					<line class="st16" x1="390.3" y1="432.9" x2="460.6" y2="526"/>
				</g>
			</g>
			<g>
				<defs>
					<rect id="SVGID_23_" x="326.4" y="326.8" width="239.8" height="173.4"/>
				</defs>
				<clipPath id="SVGID_24_">
					<use xlink:href="#SVGID_23_"  style="overflow:visible;"/>
				</clipPath>
				<g class="st20">
					<path class="st12" d="M493.8,449.2c4.9-8.5,10.8-17.8,19.2-23.2c7.8-5,20.6-7.8,25.9,1.9c2.4,4.4,1.9,10,0.5,15
						c-2.6,9.3-8.1,17.3-14,24.8c-16.8,21.2-37.8,38.7-61.1,50.7c2.2-1.1,5.2-14.6,6.2-17.6c6.1-17.3,13.4-34.1,22.3-50
						C493.1,450.2,493.4,449.7,493.8,449.2z"/>
					<line class="st21" x1="517.4" y1="449.7" x2="464.3" y2="518.4"/>
				</g>
			</g>
		</g>
		<g>
			<g>
				<defs>
					<rect id="SVGID_25_" x="644.7" y="170.6" width="105.3" height="212.5"/>
				</defs>
				<clipPath id="SVGID_26_">
					<use xlink:href="#SVGID_25_"  style="overflow:visible;"/>
				</clipPath>
				<g class="st22">
					<path class="st9" d="M757.5,294c-8.1-11.8-17.9-24.5-31.8-31.4c-13-6.4-34.1-9-42.9,5.7c-4,6.6-3.2,14.7-0.8,21.7
						c4.4,13.1,13.5,24.1,23.2,34.2c27.9,28.8,62.7,51.6,101.2,66.5c-3.7-1.4-8.6-20.5-10.4-24.7c-10.1-24.3-22.2-47.8-37.1-69.7
						C758.6,295.5,758,294.7,757.5,294z"/>
					<line class="st16" x1="718.4" y1="297.4" x2="806.5" y2="390.6"/>
				</g>
			</g>
			<g>
				<defs>
					<rect id="SVGID_27_" x="644.7" y="170.6" width="105.3" height="212.5"/>
				</defs>
				<clipPath id="SVGID_28_">
					<use xlink:href="#SVGID_27_"  style="overflow:visible;"/>
				</clipPath>
				<g class="st23">
					<path class="st12" d="M757.8,237.8c-5.3-12.1-11.8-25.4-22.2-33.8c-9.7-7.9-26.3-13.4-34.9-1.2c-3.9,5.5-4.1,13.1-2.9,20
						c2.2,12.7,8.3,24.3,15,35.1c19.3,30.8,44.8,57.2,74.1,76.7c-2.8-1.9-4.8-20.3-5.7-24.4c-5.5-24-12.8-47.5-22.4-70
						C758.5,239.3,758.1,238.5,757.8,237.8z"/>
					<line class="st16" x1="726.1" y1="235" x2="786.9" y2="334.6"/>
				</g>
			</g>
		</g>
		<g>
			<g>
				<path class="st24" d="M472,214.3l-0.7,0.5c-3.3,2.6-8,2.1-10.4-1L371.1,97.6c-2.4-3.1-1.7-7.7,1.6-10.3l0.7-0.5
					c3.3-2.6,8-2.1,10.4,1L473.6,204C476,207.1,475.3,211.7,472,214.3z"/>
				<path class="st25" d="M453.3,194.9c2.4-2.6,5.5-4.4,8.5-6.2l-78-100.9c-2.4-3.1-7-3.5-10.3-1l-0.7,0.5c-3.3,2.6-4,7.2-1.7,10.2
					l79.4,102.6C450.9,198.3,451.8,196.5,453.3,194.9z"/>
				
					<rect x="449" y="148.6" transform="matrix(0.791 -0.6118 0.6118 0.791 4.17 342.0736)" class="st24" width="107.5" height="32.6"/>
				<path class="st26" d="M546.7,144.3l-75.6,58.5c-2.4,1.8-5.8,1.4-7.7-1l-56.9-73.5l79.9-61.8L546.7,144.3z"/>
				<g>
					<g>
						<defs>
							<path id="SVGID_29_" d="M534,71.7L506,179.2l-129.1-33.5l22.2-85.5c3.2-12.2,15.6-19.5,27.7-16.3L534,71.7z"/>
						</defs>
						<clipPath id="SVGID_30_">
							<use xlink:href="#SVGID_29_"  style="overflow:visible;"/>
						</clipPath>
						
							<rect x="400.6" y="40.5" transform="matrix(0.791 -0.6118 0.6118 0.791 28.2801 302.5351)" class="st27" width="112.6" height="138.7"/>
					</g>
					<g>
						<defs>
							<path id="SVGID_31_" d="M534,71.7L506,179.2l-129.1-33.5l22.2-85.5c3.2-12.2,15.6-19.5,27.7-16.3L534,71.7z"/>
						</defs>
						<clipPath id="SVGID_32_">
							<use xlink:href="#SVGID_31_"  style="overflow:visible;"/>
						</clipPath>
						
							<rect x="400.6" y="40.5" transform="matrix(0.791 -0.6118 0.6118 0.791 28.2801 302.5351)" class="st28" width="112.6" height="138.7"/>
					</g>
					<g>
						<defs>
							<path id="SVGID_33_" d="M541.2,126.7l-87.9,68L371.7,89.2l69.9-54.1c9.9-7.7,24.2-5.9,31.9,4.1L541.2,126.7z"/>
						</defs>
						<clipPath id="SVGID_34_">
							<use xlink:href="#SVGID_33_"  style="overflow:visible;"/>
						</clipPath>
						<path class="st29" d="M395.1,70.1l84.9,109.7l64-49.5L468,32c-4.9-6.4-14-7.5-20.4-2.6L395.1,70.1z"/>
					</g>
					<g>
						<defs>
							<path id="SVGID_35_" d="M541.2,126.7l-87.9,68L371.7,89.2l69.9-54.1c9.9-7.7,24.2-5.9,31.9,4.1L541.2,126.7z"/>
						</defs>
						<clipPath id="SVGID_36_">
							<use xlink:href="#SVGID_35_"  style="overflow:visible;"/>
						</clipPath>
						<g class="st30">
							<path class="st31" d="M452,3.7c1.2-4.7,6.1-7.5,10.8-6.1s7.6,6.3,6.4,11.1"/>
						</g>
					</g>
				</g>
				<line class="st32" x1="501.6" y1="164.4" x2="539.5" y2="135.1"/>
				<line class="st32" x1="461.4" y1="199.2" x2="489.7" y2="177.3"/>
				<line class="st33" x1="377.3" y1="90.6" x2="452.2" y2="187.4"/>
			</g>
			<path class="st34" d="M494.7,162.7c0,0-38.9-41.4-73.2-13.3"/>
			<path class="st34" d="M419.7,51.9c8.9,8.3,20.4,13.6,32.5,15c12.1,1.4,24.5-1.3,35-7.4"/>
			<line class="st34" x1="424.2" y1="134.1" x2="494.7" y2="85.2"/>
		</g>
		<g>
			<g>
				<path class="st25" d="M307.9,171l30.2-82.8c6.6-18.2-2.8-38.5-21-45.2l0,0c-18.2-6.6-38.5,2.8-45.2,21l-30.2,82.8L307.9,171z"/>
				<path class="st25" d="M312,176c0.5-2.7-1-5.5-3.6-6.5L242,145.3c-2.7-1-5.6,0.2-6.9,2.6L312,176z"/>
				
					<rect x="258.9" y="82.9" transform="matrix(0.3425 -0.9395 0.9395 0.3425 87.2801 348.2587)" class="st26" width="67.1" height="57.7"/>
				<line class="st35" x1="298.9" y1="60.7" x2="266.7" y2="149.1"/>
				<line class="st35" x1="319.6" y1="71.3" x2="287.4" y2="159.8"/>
				<line class="st36" x1="326.5" y1="112.1" x2="267.5" y2="90.7"/>
				<line class="st36" x1="316.5" y1="131" x2="257.5" y2="109.5"/>
				<path class="st37" d="M330.4,85.2l0.2-0.6c5-13.7-2.1-29.1-15.9-34.1l0,0c-13.7-5-29.1,2.1-34.1,15.9l-0.2,0.6L330.4,85.2z"/>
				
					<rect x="272.2" y="123.2" transform="matrix(0.3425 -0.9395 0.9395 0.3425 40.3329 359.4357)" class="st38" width="9.6" height="55.4"/>
			</g>
			
				<rect x="304.5" y="52.2" transform="matrix(0.3425 -0.9395 0.9395 0.3425 140.036 334.1659)" class="st39" width="8.6" height="29.7"/>
		</g>
		<polygon class="st7" points="36.5,71.2 42,82.3 54.3,84.1 45.4,92.8 47.5,105.1 36.5,99.3 25.5,105.1 27.6,92.8 18.7,84.1 
			31,82.3 		"/>
		<polygon class="st7" points="79.3,39.6 81.1,43.4 85.3,44 82.3,47 83,51.2 79.3,49.2 75.5,51.2 76.2,47 73.2,44 77.4,43.4 		"/>
		<polygon class="st7" points="107,20.6 110.6,28 118.8,29.2 112.9,34.9 114.2,43 107,39.2 99.7,43 101.1,34.9 95.2,29.2 103.3,28 
					"/>
		<polygon class="st7" points="30.5,40.8 32.9,45.6 38.3,46.4 34.4,50.1 35.3,55.5 30.5,52.9 25.8,55.5 26.7,50.1 22.8,46.4 
			28.2,45.6 		"/>
		<polygon class="st7" points="36.5,440.7 40.4,448.7 49.2,450 42.8,456.2 44.3,464.9 36.5,460.8 28.6,464.9 30.1,456.2 23.8,450 
			32.6,448.7 		"/>
		<polygon class="st7" points="23.8,398.8 25.3,401.9 28.8,402.4 26.3,404.9 26.9,408.3 23.8,406.7 20.7,408.3 21.3,404.9 
			18.8,402.4 22.2,401.9 		"/>
		<polygon class="st7" points="67.1,442.1 69.1,446.1 73.5,446.8 70.3,449.9 71,454.2 67.1,452.2 63.2,454.2 63.9,449.9 60.8,446.8 
			65.2,446.1 		"/>
		<polygon class="st7" points="60.8,489.2 60.8,489.2 60.8,489.2 60.8,489.2 60.8,489.2 60.8,489.2 60.8,489.2 60.8,489.2 
			60.7,489.2 60.8,489.2 		"/>
		<polygon class="st7" points="340.2,363.9 343.1,369.8 349.6,370.7 344.9,375.3 346,381.8 340.2,378.8 334.3,381.8 335.5,375.3 
			330.7,370.7 337.3,369.8 		"/>
		<polygon class="st7" points="375,347.3 377,351.3 381.4,352 378.2,355.1 379,359.5 375,357.4 371,359.5 371.8,355.1 368.6,352 
			373,351.3 		"/>
		<polygon class="st7" points="381.4,367.5 383.2,371.2 387.4,371.9 384.4,374.8 385.1,378.9 381.4,376.9 377.7,378.9 378.4,374.8 
			375.4,371.9 379.5,371.2 		"/>
		<polygon class="st7" points="218.3,258.3 221.4,264.6 228.3,265.6 223.3,270.4 224.5,277.3 218.3,274 212.2,277.3 213.4,270.4 
			208.4,265.6 215.3,264.6 		"/>
		<polygon class="st7" points="249,250.1 250.2,252.6 253,253 251,255 251.4,257.8 249,256.5 246.5,257.8 247,255 245,253 
			247.7,252.6 		"/>
		<polygon class="st7" points="517.1,360.4 520.8,367.8 529,369 523.1,374.8 524.5,382.9 517.1,379.1 509.8,382.9 511.2,374.8 
			505.3,369 513.5,367.8 		"/>
		<polygon class="st7" points="543.8,391.3 545.7,395 549.8,395.6 546.8,398.5 547.5,402.7 543.8,400.7 540.1,402.7 540.8,398.5 
			537.8,395.6 542,395 		"/>
		<polygon class="st7" points="718.1,353.9 721,359.8 727.6,360.8 722.8,365.4 723.9,371.9 718.1,368.9 712.2,371.9 713.3,365.4 
			708.6,360.8 715.1,359.8 		"/>
		<polygon class="st7" points="701.8,390.9 703.6,394.5 707.6,395.1 704.7,397.9 705.4,401.9 701.8,400 698.2,401.9 698.9,397.9 
			696,395.1 700,394.5 		"/>
		<polygon class="st7" points="647.7,195.8 652.1,204.8 662,206.2 654.9,213.2 656.6,223 647.7,218.4 638.9,223 640.6,213.2 
			633.5,206.2 643.3,204.8 		"/>
		<polygon class="st7" points="562.1,175.2 564.1,179.3 568.6,179.9 565.3,183.1 566.1,187.6 562.1,185.4 558.1,187.6 558.8,183.1 
			555.6,179.9 560.1,179.3 		"/>
		<polygon class="st7" points="537.8,97.7 540,102.2 544.9,102.9 541.4,106.3 542.2,111.2 537.8,108.9 533.5,111.2 534.3,106.3 
			530.7,102.9 535.6,102.2 		"/>
		<polygon class="st7" points="708.6,52.7 712.9,61.3 722.4,62.7 715.5,69.5 717.1,79 708.6,74.5 700,79 701.7,69.5 694.8,62.7 
			704.3,61.3 		"/>
		<polygon class="st7" points="677.9,13.5 679.6,16.9 683.3,17.4 680.6,20 681.2,23.7 677.9,22 674.6,23.7 675.2,20 672.5,17.4 
			676.3,16.9 		"/>
		<polygon class="st7" points="523.5,46.4 525.1,49.7 528.7,50.2 526.1,52.7 526.7,56.4 523.5,54.7 520.2,56.4 520.8,52.7 
			518.2,50.2 521.8,49.7 		"/>
		<polygon class="st7" points="343,115.2 345.3,119.9 350.5,120.6 346.8,124.3 347.6,129.4 343,127 338.4,129.4 339.3,124.3 
			335.6,120.6 340.7,119.9 		"/>
		<polygon class="st7" points="381.4,150.7 384.3,156.5 390.7,157.4 386,161.9 387.1,168.3 381.4,165.3 375.7,168.3 376.8,161.9 
			372.1,157.4 378.5,156.5 		"/>
		<polygon class="st7" points="348.4,157.4 349,158.6 350.4,158.8 349.4,159.8 349.6,161.2 348.4,160.5 347.1,161.2 347.4,159.8 
			346.4,158.8 347.7,158.6 		"/>
		<polygon class="st7" points="350.5,60.9 352.8,65.6 358,66.3 354.2,70 355.1,75.1 350.5,72.7 345.9,75.1 346.7,70 343,66.3 
			348.2,65.6 		"/>
		<polygon class="st7" points="189.2,42.5 192,48.1 198.2,49 193.7,53.3 194.7,59.5 189.2,56.6 183.7,59.5 184.7,53.3 180.2,49 
			186.4,48.1 		"/>
		<polygon class="st7" points="170.9,17 171.9,19.1 174.2,19.5 172.5,21.1 172.9,23.4 170.9,22.3 168.8,23.4 169.2,21.1 167.5,19.5 
			169.8,19.1 		"/>
		<path class="st1" d="M187,190.8c-2.1,3.8-2.4,8.3-3.9,12.4c-6.9,18.6-33.4,18.2-41.6,0.5c-6.2-13.3-3.6-31.6,1.4-44.6
			c6-15.3,23-32.3,42.2-30.3c13.6,1.5,26.4,13.6,27.1,26.5C213.1,171.6,194.1,177.9,187,190.8z"/>
		<g>
			<g>
				<defs>
					<rect id="SVGID_37_" y="23.4" width="209.3" height="275.3"/>
				</defs>
				<clipPath id="SVGID_38_">
					<use xlink:href="#SVGID_37_"  style="overflow:visible;"/>
				</clipPath>
				<g class="st40">
					<g>
						<g>
							<defs>
								<path id="SVGID_39_" d="M175.1,214c-5.5-5.4-11.3-11.2-13.5-18.6c-1.5-4.8-1.3-9.9-0.9-14.9c1.1-14.5,4.3-28.8,5.4-43.2
									s-0.1-29.6-7.1-42.4c-3.6-6.6-8.7-12.4-13.8-17.9c-6.2-6.6-12.5-13.1-19-19.4l-71.7,69.9c7.8,2,15,7.5,21.9,11.8
									c4.6,2.9,8.9,6.3,12,10.7c6,8.6,6.5,20,4.8,30.3c-1.6,10.4-5.1,20.4-6.3,30.8c-2.1,18.8,3.8,38.4,15.9,53
									c5.7,6.8,13.1,12.7,21.8,14.5l59.9-58.3C180.3,220.4,178,216.9,175.1,214z"/>
							</defs>
							<clipPath id="SVGID_40_">
								<use xlink:href="#SVGID_39_"  style="overflow:visible;"/>
							</clipPath>
							<g class="st41">
								<path class="st9" d="M175.1,214c-5.5-5.4-11.3-11.2-13.5-18.6c-1.5-4.8-1.3-9.9-0.9-14.9c1.1-14.5,4.3-28.8,5.4-43.2
									s-0.1-29.6-7.1-42.4c-3.6-6.6-8.7-12.4-13.8-17.9c-6.2-6.6-12.5-13.1-19-19.4l-71.7,69.9c7.8,2,15,7.5,21.9,11.8
									c4.6,2.9,8.9,6.3,12,10.7c6,8.6,6.5,20,4.8,30.3c-1.6,10.4-5.1,20.4-6.3,30.8c-2.1,18.8,3.8,38.4,15.9,53
									c5.7,6.8,13.1,12.7,21.8,14.5l59.9-58.3C180.3,220.4,178,216.9,175.1,214z"/>
							</g>
						</g>
						<g>
							<defs>
								<path id="SVGID_41_" d="M175.1,214c-5.5-5.4-11.3-11.2-13.5-18.6c-1.5-4.8-1.3-9.9-0.9-14.9c1.1-14.5,4.3-28.8,5.4-43.2
									s-0.1-29.6-7.1-42.4c-3.6-6.6-8.7-12.4-13.8-17.9c-6.2-6.6-12.5-13.1-19-19.4l-71.7,69.9c7.8,2,15,7.5,21.9,11.8
									c4.6,2.9,8.9,6.3,12,10.7c6,8.6,6.5,20,4.8,30.3c-1.6,10.4-5.1,20.4-6.3,30.8c-2.1,18.8,3.8,38.4,15.9,53
									c5.7,6.8,13.1,12.7,21.8,14.5l59.9-58.3C180.3,220.4,178,216.9,175.1,214z"/>
							</defs>
							<clipPath id="SVGID_42_">
								<use xlink:href="#SVGID_41_"  style="overflow:visible;"/>
							</clipPath>
							<g class="st42">
								<path class="st43" d="M124.5,278.6c-8.7-1.8-16.1-7.6-21.8-14.5c-12.2-14.5-18-34.1-15.9-53c1.2-10.4,4.7-20.5,6.3-30.8
									c1.6-10.4,1.2-21.7-4.8-30.3c-3.1-4.4-7.4-7.9-12-10.7c-6.9-4.3-14.1-9.8-21.9-11.8l40.7-39.7l31-30.2
									c6.5,6.3,12.9,12.8,19,19.4c5.1,5.5,10.2,11.3,13.8,17.9c5.8,10.6,7.6,22.9,7.4,35.1c0,2.5-0.1,4.9-0.3,7.3
									c-1.1,14.5-4.2,28.8-5.4,43.2c-0.4,5-0.5,10.1,0.9,14.9c2.2,7.4,8,13.2,13.5,18.6c2.9,2.8,5.2,6.4,9.3,6.2L124.5,278.6z"/>
							</g>
						</g>
						<g>
							<defs>
								<path id="SVGID_43_" d="M175.1,214c-5.5-5.4-11.3-11.2-13.5-18.6c-1.5-4.8-1.3-9.9-0.9-14.9c1.1-14.5,4.3-28.8,5.4-43.2
									s-0.1-29.6-7.1-42.4c-3.6-6.6-8.7-12.4-13.8-17.9c-6.2-6.6-12.5-13.1-19-19.4l-71.7,69.9c7.8,2,15,7.5,21.9,11.8
									c4.6,2.9,8.9,6.3,12,10.7c6,8.6,6.5,20,4.8,30.3c-1.6,10.4-5.1,20.4-6.3,30.8c-2.1,18.8,3.8,38.4,15.9,53
									c5.7,6.8,13.1,12.7,21.8,14.5l59.9-58.3C180.3,220.4,178,216.9,175.1,214z"/>
							</defs>
							<clipPath id="SVGID_44_">
								<use xlink:href="#SVGID_43_"  style="overflow:visible;"/>
							</clipPath>
							<path class="st44" d="M44.3,107.3c32.8,12.9,64.3,32.4,62.2,65.8c-1.2,19.2-12,40.3-7.3,59c5.9,23.2,33,37.7,49.6,40"/>
						</g>
						<g>
							<defs>
								<path id="SVGID_45_" d="M175.1,214c-5.5-5.4-11.3-11.2-13.5-18.6c-1.5-4.8-1.3-9.9-0.9-14.9c1.1-14.5,4.3-28.8,5.4-43.2
									s-0.1-29.6-7.1-42.4c-3.6-6.6-8.7-12.4-13.8-17.9c-6.2-6.6-12.5-13.1-19-19.4l-71.7,69.9c7.8,2,15,7.5,21.9,11.8
									c4.6,2.9,8.9,6.3,12,10.7c6,8.6,6.5,20,4.8,30.3c-1.6,10.4-5.1,20.4-6.3,30.8c-2.1,18.8,3.8,38.4,15.9,53
									c5.7,6.8,13.1,12.7,21.8,14.5l59.9-58.3C180.3,220.4,178,216.9,175.1,214z"/>
							</defs>
							<clipPath id="SVGID_46_">
								<use xlink:href="#SVGID_45_"  style="overflow:visible;"/>
							</clipPath>
							<path class="st45" d="M66.4,99.2c32.8,12.9,64.3,32.4,62.2,65.8c-1.2,19.2-12,40.3-7.3,59c5.9,23.2,33,37.7,49.6,40"/>
						</g>
						<g>
							<defs>
								<path id="SVGID_47_" d="M175.1,214c-5.5-5.4-11.3-11.2-13.5-18.6c-1.5-4.8-1.3-9.9-0.9-14.9c1.1-14.5,4.3-28.8,5.4-43.2
									s-0.1-29.6-7.1-42.4c-3.6-6.6-8.7-12.4-13.8-17.9c-6.2-6.6-12.5-13.1-19-19.4l-71.7,69.9c7.8,2,15,7.5,21.9,11.8
									c4.6,2.9,8.9,6.3,12,10.7c6,8.6,6.5,20,4.8,30.3c-1.6,10.4-5.1,20.4-6.3,30.8c-2.1,18.8,3.8,38.4,15.9,53
									c5.7,6.8,13.1,12.7,21.8,14.5l59.9-58.3C180.3,220.4,178,216.9,175.1,214z"/>
							</defs>
							<clipPath id="SVGID_48_">
								<use xlink:href="#SVGID_47_"  style="overflow:visible;"/>
							</clipPath>
							<path class="st46" d="M93.6,89.1c23,11,59,32.3,56.8,65.7c-1.2,19.2-12,40.3-7.3,59c5.9,23.2,33,37.7,49.6,40"/>
						</g>
						<g>
							<defs>
								<path id="SVGID_49_" d="M175.1,214c-5.5-5.4-11.3-11.2-13.5-18.6c-1.5-4.8-1.3-9.9-0.9-14.9c1.1-14.5,4.3-28.8,5.4-43.2
									s-0.1-29.6-7.1-42.4c-3.6-6.6-8.7-12.4-13.8-17.9c-6.2-6.6-12.5-13.1-19-19.4l-71.7,69.9c7.8,2,15,7.5,21.9,11.8
									c4.6,2.9,8.9,6.3,12,10.7c6,8.6,6.5,20,4.8,30.3c-1.6,10.4-5.1,20.4-6.3,30.8c-2.1,18.8,3.8,38.4,15.9,53
									c5.7,6.8,13.1,12.7,21.8,14.5l59.9-58.3C180.3,220.4,178,216.9,175.1,214z"/>
							</defs>
							<clipPath id="SVGID_50_">
								<use xlink:href="#SVGID_49_"  style="overflow:visible;"/>
							</clipPath>
							<path class="st47" d="M80.6,101.9c0,0,37.5,10.9,53.3,55.7l35.1-34c0,0-7.7-46.8-43-66L80.6,101.9z"/>
						</g>
					</g>
					
						<rect x="-90.1" y="136" transform="matrix(0.7162 -0.6979 0.6979 0.7162 -82.6258 71.1119)" class="st7" width="272.4" height="2.4"/>
					<polygon class="st43" points="129.8,69.8 128.7,72.6 130.4,75.1 127.4,74.9 125.6,77.3 124.8,74.4 121.9,73.4 124.5,71.8 
						124.5,68.8 126.9,70.7 					"/>
					<polygon class="st43" points="120,80.7 119,83.5 120.7,86 117.7,85.8 115.8,88.2 115,85.3 112.2,84.3 114.7,82.7 114.8,79.7 
						117.1,81.6 					"/>
					<polygon class="st43" points="139,79.8 138,82.6 139.7,85.1 136.7,84.9 134.8,87.3 134,84.4 131.2,83.4 133.7,81.7 133.8,78.7 
						136.1,80.6 					"/>
					<polygon class="st43" points="129.5,90.9 128.5,93.8 130.2,96.2 127.2,96.1 125.3,98.5 124.5,95.6 121.7,94.6 124.2,92.9 
						124.3,89.9 126.6,91.8 					"/>
					<polygon class="st43" points="118.9,100.8 117.8,103.7 119.5,106.1 116.5,106 114.7,108.4 113.9,105.5 111,104.5 113.5,102.8 
						113.6,99.8 116,101.7 					"/>
					<polygon class="st43" points="128.7,113.8 127.6,116.6 129.3,119.1 126.3,119 124.5,121.4 123.7,118.5 120.9,117.5 
						123.4,115.8 123.5,112.8 125.8,114.7 					"/>
					<polygon class="st43" points="136.7,131.6 135.7,134.5 137.4,137 134.4,136.8 132.5,139.2 131.7,136.3 128.9,135.3 
						131.4,133.6 131.5,130.6 133.8,132.5 					"/>
					<polygon class="st43" points="148.7,92.1 147.7,94.9 149.4,97.4 146.4,97.2 144.5,99.6 143.7,96.7 140.9,95.7 143.4,94.1 
						143.5,91 145.8,92.9 					"/>
					<polygon class="st43" points="141.2,102.2 140.1,105 141.9,107.5 138.8,107.4 137,109.7 136.2,106.8 133.4,105.8 135.9,104.2 
						136,101.2 138.3,103.1 					"/>
					<polygon class="st43" points="157,105.2 155.9,108 157.6,110.5 154.6,110.3 152.8,112.7 152,109.8 149.2,108.8 151.7,107.2 
						151.8,104.1 154.1,106 					"/>
					<polygon class="st43" points="145,116.4 143.9,119.2 145.6,121.7 142.6,121.5 140.7,123.9 140,121 137.1,120 139.6,118.3 
						139.7,115.3 142.1,117.2 					"/>
					<polygon class="st43" points="106.3,93.4 105.2,96.2 107,98.7 103.9,98.6 102.1,101 101.3,98.1 98.5,97 101,95.4 101.1,92.4 
						103.4,94.3 					"/>
					<polygon class="st43" points="159.4,119.8 158.3,122.6 160,125.1 157,125 155.2,127.4 154.4,124.4 151.5,123.4 154.1,121.8 
						154.1,118.8 156.5,120.7 					"/>
					<polygon class="st43" points="150.8,133.6 149.8,136.4 151.5,138.9 148.5,138.8 146.6,141.2 145.9,138.3 143,137.3 
						145.5,135.6 145.6,132.6 148,134.5 					"/>
					<path class="st7" d="M153.3,43.9c-3.2,2.9-8.1,2.7-11-0.4s-2.7-8.1,0.4-11s8.1-2.7,11,0.4S156.5,41,153.3,43.9z"/>
				</g>
			</g>
		</g>
		<g>
			<g>
				<defs>
					<rect id="SVGID_51_" x="343" y="137.3" width="407" height="362.9"/>
				</defs>
				<clipPath id="SVGID_52_">
					<use xlink:href="#SVGID_51_"  style="overflow:visible;"/>
				</clipPath>
				<g class="st48">
					<g>
						<g>
							<defs>
								<path id="SVGID_53_" d="M702.8,426.2c-9.6-6.4-19.6-13.2-24.9-23.4c-3.5-6.6-4.7-14.1-5.5-21.6c-2.3-21.5-1.6-43.2-4-64.7
									c-2.4-21.5-8.3-43.3-22-60.1c-7.1-8.7-16.1-15.7-25.2-22.4c-10.8-8-21.9-15.7-33.2-23.1l-85.6,121.9
									c12,0.8,24,6.8,35.3,11.2c7.5,2.9,14.8,6.7,20.5,12.4c11.1,11,14.9,27.4,15.4,43.1s-1.9,31.3-0.7,46.9
									c2.1,28.1,16.1,55.2,37.9,73.1c10.2,8.4,22.6,15,35.8,15.2l71.5-101.8C712.2,434.2,707.8,429.6,702.8,426.2z"/>
							</defs>
							<clipPath id="SVGID_54_">
								<use xlink:href="#SVGID_53_"  style="overflow:visible;"/>
							</clipPath>
							<g class="st49">
								<path class="st9" d="M702.8,426.2c-9.6-6.4-19.6-13.2-24.9-23.4c-3.5-6.6-4.7-14.1-5.5-21.6c-2.3-21.5-1.6-43.2-4-64.7
									c-2.4-21.5-8.3-43.3-22-60.1c-7.1-8.7-16.1-15.7-25.2-22.4c-10.8-8-21.9-15.7-33.2-23.1l-85.6,121.9
									c12,0.8,24,6.8,35.3,11.2c7.5,2.9,14.8,6.7,20.5,12.4c11.1,11,14.9,27.4,15.4,43.1s-1.9,31.3-0.7,46.9
									c2.1,28.1,16.1,55.2,37.9,73.1c10.2,8.4,22.6,15,35.8,15.2l71.5-101.8C712.2,434.2,707.8,429.6,702.8,426.2z"/>
							</g>
						</g>
						<g>
							<defs>
								<path id="SVGID_55_" d="M702.8,426.2c-9.6-6.4-19.6-13.2-24.9-23.4c-3.5-6.6-4.7-14.1-5.5-21.6c-2.3-21.5-1.6-43.2-4-64.7
									c-2.4-21.5-8.3-43.3-22-60.1c-7.1-8.7-16.1-15.7-25.2-22.4c-10.8-8-21.9-15.7-33.2-23.1l-85.6,121.9
									c12,0.8,24,6.8,35.3,11.2c7.5,2.9,14.8,6.7,20.5,12.4c11.1,11,14.9,27.4,15.4,43.1s-1.9,31.3-0.7,46.9
									c2.1,28.1,16.1,55.2,37.9,73.1c10.2,8.4,22.6,15,35.8,15.2l71.5-101.8C712.2,434.2,707.8,429.6,702.8,426.2z"/>
							</defs>
							<clipPath id="SVGID_56_">
								<use xlink:href="#SVGID_55_"  style="overflow:visible;"/>
							</clipPath>
							<g class="st50">
								<path class="st25" d="M640.8,539.9c-1.6-1.8-39.2-44.5-15.4-159.3c5.1-24.5,6-48.4,2.8-70.9c-2.6-18-7.8-35.2-15.6-51.1
									c-10.6-21.8-24-36.8-29.7-41.7c-3.3-2.8-3.6-7.8-0.8-11.1c2.8-3.3,7.8-3.6,11.1-0.8c0.7,0.6,18.4,16.1,33.1,46
									c8.6,17.4,14.4,36.3,17.3,55.9c3.6,24.5,2.6,50.3-2.9,76.9c-5.1,24.6-7.6,47.6-7.5,68.3c0.1,16.5,1.8,31.6,5.1,45
									c5.6,22.5,14,32.2,14.1,32.3l0-0.1L640.8,539.9z"/>
							</g>
						</g>
						<g>
							<defs>
								<path id="SVGID_57_" d="M702.8,426.2c-9.6-6.4-19.6-13.2-24.9-23.4c-3.5-6.6-4.7-14.1-5.5-21.6c-2.3-21.5-1.6-43.2-4-64.7
									c-2.4-21.5-8.3-43.3-22-60.1c-7.1-8.7-16.1-15.7-25.2-22.4c-10.8-8-21.9-15.7-33.2-23.1l-85.6,121.9
									c12,0.8,24,6.8,35.3,11.2c7.5,2.9,14.8,6.7,20.5,12.4c11.1,11,14.9,27.4,15.4,43.1s-1.9,31.3-0.7,46.9
									c2.1,28.1,16.1,55.2,37.9,73.1c10.2,8.4,22.6,15,35.8,15.2l71.5-101.8C712.2,434.2,707.8,429.6,702.8,426.2z"/>
							</defs>
							<clipPath id="SVGID_58_">
								<use xlink:href="#SVGID_57_"  style="overflow:visible;"/>
							</clipPath>
							<g class="st51">
								<path class="st25" d="M497.9,339.2c-1.5-1.1-2.7-2.7-3.1-4.7c-1-4.2,1.7-8.4,5.9-9.4c0.9-0.2,21.7-4.8,47.4-2.4
									c15.3,1.5,29.1,5.1,41.2,10.9c15.3,7.3,27.7,18.1,36.7,31.9c37.3,57.1,62.3,65.1,90.6,59.5c4.3-0.8,8.4,1.9,9.2,6.2
									c0.8,4.3-1.9,8.4-6.2,9.2c-20.6,4.1-37.9,1.2-54.7-9.1c-1.5-1-3.1-2-4.6-3c-15.3-10.7-30.5-28.1-47.5-54.2
									c-7.4-11.4-17.6-20.2-30.3-26.3c-10.4-5-22.4-8.1-35.9-9.4c-23.2-2.2-42.3,2-42.5,2.1C501.9,340.9,499.6,340.4,497.9,339.2z
									"/>
							</g>
						</g>
						<g>
							<defs>
								<path id="SVGID_59_" d="M702.8,426.2c-9.6-6.4-19.6-13.2-24.9-23.4c-3.5-6.6-4.7-14.1-5.5-21.6c-2.3-21.5-1.6-43.2-4-64.7
									c-2.4-21.5-8.3-43.3-22-60.1c-7.1-8.7-16.1-15.7-25.2-22.4c-10.8-8-21.9-15.7-33.2-23.1l-85.6,121.9
									c12,0.8,24,6.8,35.3,11.2c7.5,2.9,14.8,6.7,20.5,12.4c11.1,11,14.9,27.4,15.4,43.1s-1.9,31.3-0.7,46.9
									c2.1,28.1,16.1,55.2,37.9,73.1c10.2,8.4,22.6,15,35.8,15.2l71.5-101.8C712.2,434.2,707.8,429.6,702.8,426.2z"/>
							</defs>
							<clipPath id="SVGID_60_">
								<use xlink:href="#SVGID_59_"  style="overflow:visible;"/>
							</clipPath>
							<g class="st52">
								<g>
									<path class="st0" d="M588.1,203c1.8,0,3.6,0.6,5.1,1.9c0.7,0.6,18.4,16.1,33.1,46c8.6,17.4,14.4,36.3,17.3,55.9
										c3.6,24.5,2.6,50.3-2.9,76.9c-5.1,24.6-7.6,47.6-7.5,68.3c0.1,16.5,1.8,31.6,5.1,45c5.6,22.5,14,32.2,14.1,32.3l0-0.1
										l-11.6,10.6c-1.6-1.8-39.2-44.5-15.4-159.3c5.1-24.5,6-48.4,2.8-70.9c-2.6-18-7.8-35.2-15.6-51.1
										c-10.6-21.8-24-36.8-29.7-41.7c-3.3-2.8-3.6-7.8-0.8-11.1C583.7,203.9,585.9,203,588.1,203 M588.1,200.8
										c-2.9,0-5.7,1.3-7.6,3.5c-3.6,4.2-3.2,10.5,1,14.2c5.5,4.8,18.7,19.6,29.1,41.1c7.6,15.7,12.8,32.7,15.4,50.5
										c3.2,22.3,2.3,45.9-2.8,70.1c-24,116,14.3,159.5,15.9,161.3c0.4,0.4,0.9,0.7,1.5,0.7c0,0,0.1,0,0.1,0
										c0.5,0,1.1-0.2,1.5-0.6l11.2-10.2c0.2-0.1,0.3-0.2,0.4-0.3c0.9-0.8,1-2.2,0.2-3.1c-0.1-0.1-8.2-9.6-13.6-31.4
										c-3.3-13.2-5-28.1-5.1-44.4c-0.1-20.6,2.4-43.4,7.5-67.9c5.5-26.8,6.5-52.9,2.9-77.6c-2.9-19.9-8.8-38.9-17.5-56.6
										c-14.9-30.3-32.9-46-33.7-46.7C592.8,201.7,590.5,200.8,588.1,200.8L588.1,200.8z"/>
								</g>
							</g>
						</g>
						<g>
							<defs>
								<path id="SVGID_61_" d="M702.8,426.2c-9.6-6.4-19.6-13.2-24.9-23.4c-3.5-6.6-4.7-14.1-5.5-21.6c-2.3-21.5-1.6-43.2-4-64.7
									c-2.4-21.5-8.3-43.3-22-60.1c-7.1-8.7-16.1-15.7-25.2-22.4c-10.8-8-21.9-15.7-33.2-23.1l-85.6,121.9
									c12,0.8,24,6.8,35.3,11.2c7.5,2.9,14.8,6.7,20.5,12.4c11.1,11,14.9,27.4,15.4,43.1s-1.9,31.3-0.7,46.9
									c2.1,28.1,16.1,55.2,37.9,73.1c10.2,8.4,22.6,15,35.8,15.2l71.5-101.8C712.2,434.2,707.8,429.6,702.8,426.2z"/>
							</defs>
							<clipPath id="SVGID_62_">
								<use xlink:href="#SVGID_61_"  style="overflow:visible;"/>
							</clipPath>
							<g class="st53">
								<g>
									<path class="st0" d="M532.8,322c4.8,0,9.9,0.2,15.3,0.7c15.3,1.5,29.1,5.1,41.2,10.9c15.3,7.3,27.7,18.1,36.7,31.9
										c31,47.5,53.5,61,76.5,61c4.7,0,9.4-0.6,14.1-1.5c0.5-0.1,1-0.2,1.5-0.2c3.7,0,7,2.6,7.7,6.3c0.8,4.3-1.9,8.4-6.2,9.2
										c-5.9,1.2-11.6,1.8-17.1,1.8c-13.4,0-25.7-3.6-37.6-10.9c-1.5-1-3.1-2-4.6-3c-15.3-10.7-30.5-28.1-47.5-54.2
										c-7.4-11.4-17.6-20.2-30.3-26.3c-10.4-5-22.4-8.1-35.9-9.4c-4.8-0.5-9.4-0.6-13.8-0.6c-16.5,0-28.5,2.7-28.7,2.7
										c-0.6,0.1-1.2,0.2-1.7,0.2c-1.6,0-3.2-0.5-4.5-1.4c-1.5-1.1-2.7-2.7-3.1-4.7c-1-4.2,1.7-8.4,5.9-9.4
										C501.4,324.9,514.6,322,532.8,322 M532.8,319.8c-18.5,0-32,3-32.6,3.1c-2.6,0.6-4.8,2.2-6.3,4.4s-1.9,5-1.3,7.6
										c0.5,2.4,2,4.6,4,6c1.7,1.2,3.7,1.8,5.8,1.8c0.7,0,1.5-0.1,2.2-0.2c0.1,0,12-2.6,28.2-2.6c4.6,0,9.2,0.2,13.6,0.6
										c13.2,1.3,25,4.3,35.1,9.2c12.3,5.9,22.2,14.5,29.4,25.5c17.3,26.4,32.5,43.8,48.1,54.8c1.6,1.1,3.2,2.2,4.7,3.1
										c12.3,7.6,25,11.2,38.7,11.2c5.6,0,11.5-0.6,17.5-1.8c5.4-1.1,9-6.4,7.9-11.8c-0.9-4.7-5.1-8.1-9.8-8.1
										c-0.7,0-1.3,0.1-2,0.2c-5,1-9.5,1.5-13.7,1.5c-12,0-22.8-3.9-33.9-12.3c-12.7-9.5-26-25.2-40.7-47.8
										c-9.2-14.2-21.9-25.2-37.6-32.7c-12.3-5.9-26.4-9.6-41.9-11.1C543.3,320.1,538,319.8,532.8,319.8L532.8,319.8z"/>
								</g>
							</g>
						</g>
						<g>
							<defs>
								<path id="SVGID_63_" d="M702.8,426.2c-9.6-6.4-19.6-13.2-24.9-23.4c-3.5-6.6-4.7-14.1-5.5-21.6c-2.3-21.5-1.6-43.2-4-64.7
									c-2.4-21.5-8.3-43.3-22-60.1c-7.1-8.7-16.1-15.7-25.2-22.4c-10.8-8-21.9-15.7-33.2-23.1l-85.6,121.9
									c12,0.8,24,6.8,35.3,11.2c7.5,2.9,14.8,6.7,20.5,12.4c11.1,11,14.9,27.4,15.4,43.1s-1.9,31.3-0.7,46.9
									c2.1,28.1,16.1,55.2,37.9,73.1c10.2,8.4,22.6,15,35.8,15.2l71.5-101.8C712.2,434.2,707.8,429.6,702.8,426.2z"/>
							</defs>
							<clipPath id="SVGID_64_">
								<use xlink:href="#SVGID_63_"  style="overflow:visible;"/>
							</clipPath>
							<path class="st54" d="M747.2,515.4c-0.3-7-6.2-12.3-13.2-12c-14.6,0.7-26.9-2.4-37.6-9.6c-9.4-6.3-17.8-16.1-24.9-29
								c-13.2-24-20.2-55.8-24.8-79l70.1-99.7l-24.7-17.4l-54.2,77.1c-4.6-17.3-10.6-33.9-19-48.5c-17.5-30.2-43-46.4-75.7-48.1
								c-7-0.4-12.9,5-13.2,11.9c-0.4,7,5,12.9,11.9,13.2c12.9,0.7,23.8,4.2,33.2,10.7c8.5,5.8,15.7,14,22,24.9
								c10.4,17.9,16.6,40.6,21.4,63.5l-78.2,111.4l24.7,17.4l62-88.2c4.9,20.6,11.7,43.5,22.4,63c8.7,15.8,19.3,28.2,31.5,36.8
								c0.5,0.3,1,0.7,1.5,1c15.2,10.2,33,14.8,52.9,13.9C742.2,528.3,747.5,522.3,747.2,515.4z"/>
						</g>
						<g>
							<defs>
								<path id="SVGID_65_" d="M702.8,426.2c-9.6-6.4-19.6-13.2-24.9-23.4c-3.5-6.6-4.7-14.1-5.5-21.6c-2.3-21.5-1.6-43.2-4-64.7
									c-2.4-21.5-8.3-43.3-22-60.1c-7.1-8.7-16.1-15.7-25.2-22.4c-10.8-8-21.9-15.7-33.2-23.1l-85.6,121.9
									c12,0.8,24,6.8,35.3,11.2c7.5,2.9,14.8,6.7,20.5,12.4c11.1,11,14.9,27.4,15.4,43.1s-1.9,31.3-0.7,46.9
									c2.1,28.1,16.1,55.2,37.9,73.1c10.2,8.4,22.6,15,35.8,15.2l71.5-101.8C712.2,434.2,707.8,429.6,702.8,426.2z"/>
							</defs>
							<clipPath id="SVGID_66_">
								<use xlink:href="#SVGID_65_"  style="overflow:visible;"/>
							</clipPath>
							<g class="st55">
								<path class="st56" d="M542.4,249.2c0.2,0,0.4,0,0.7,0c32.8,1.7,58.3,17.9,75.7,48.1c8.4,14.6,14.4,31.3,19,48.5l54.2-77.1
									l24.7,17.4l-70.1,99.7c4.6,23.2,11.6,54.9,24.8,79c7.1,12.9,15.5,22.7,24.9,29c9.7,6.5,20.8,9.7,33.7,9.7c1.3,0,2.6,0,4-0.1
									c0.2,0,0.4,0,0.6,0c6.7,0,12.3,5.3,12.6,12c0.3,7-5,12.9-12,13.2c-1.7,0.1-3.4,0.1-5.1,0.1c-17.9,0-34-4.7-47.8-14
									c-0.5-0.3-1-0.7-1.5-1c-12.2-8.6-22.8-20.9-31.5-36.8c-10.7-19.5-17.6-42.4-22.4-63l-62,88.2l-24.7-17.4l78.2-111.4
									c-4.9-22.8-11.1-45.6-21.4-63.5c-6.3-10.9-13.5-19.1-22-24.9c-9.5-6.5-20.3-10-33.2-10.7c-7-0.4-12.3-6.3-11.9-13.2
									C530.1,254.4,535.7,249.2,542.4,249.2 M542.4,245.6L542.4,245.6c-8.7,0-15.8,6.8-16.2,15.4c-0.2,4.3,1.3,8.5,4.2,11.7
									c2.9,3.2,6.9,5.1,11.2,5.3c12.2,0.6,22.5,3.9,31.3,10c8,5.5,14.9,13.3,20.9,23.7c10.6,18.3,16.6,41.9,20.7,60.8l-77.3,110.1
									c-0.6,0.8-0.8,1.8-0.6,2.7c0.2,1,0.7,1.8,1.5,2.4l24.7,17.4c0.6,0.4,1.4,0.7,2.1,0.7c1.2,0,2.3-0.5,3-1.6l57.4-81.7
									c5.9,22.8,12.7,41.2,20.9,56.1c9,16.3,19.9,29.1,32.6,38c0.5,0.4,1,0.7,1.6,1.1c14.5,9.7,31.2,14.6,49.9,14.6
									c1.7,0,3.5,0,5.3-0.1c4.3-0.2,8.3-2.1,11.3-5.3s4.4-7.4,4.2-11.7c-0.4-8.7-7.5-15.5-16.2-15.5c-0.3,0-0.5,0-0.8,0
									c-1.3,0.1-2.5,0.1-3.8,0.1c-12.2,0-22.5-3-31.7-9.1c-9-6-17-15.3-23.8-27.7c-12-21.9-18.9-50.7-24.1-76.4l69.2-98.4
									c1.2-1.7,0.8-3.9-0.9-5.1L694,265.7c-0.6-0.4-1.4-0.7-2.1-0.7c-0.2,0-0.4,0-0.6,0.1c-1,0.2-1.8,0.7-2.4,1.5l-49.8,70.8
									c-4.9-16.6-10.6-30.4-17.3-41.9c-18.1-31.4-44.6-48.2-78.7-49.9C542.9,245.6,542.7,245.6,542.4,245.6L542.4,245.6
									L542.4,245.6z"/>
							</g>
						</g>
					</g>
					
						<rect x="290.2" y="347.5" transform="matrix(0.5748 -0.8183 0.8183 0.5748 -76.1707 551.897)" class="st7" width="405.5" height="3.5"/>
					<path class="st7" d="M624.4,184.3c-4,5.7-11.9,7.1-17.7,3.1c-5.7-4-7.1-11.9-3.1-17.7c4-5.7,11.9-7.1,17.7-3.1
						C627,170.7,628.4,178.6,624.4,184.3z"/>
				</g>
			</g>
		</g>
		<path class="st1" d="M678.5,131.5c-6.5,7.5-8.1,18.4-5.8,28.1c0.6,2.4,1.3,4.8,1,7.2c-0.8,5.4-6.6,8.4-8.9,13.4
			c-2.4,5.2,0.1,12,5.1,14.7c5.1,2.6,12,0.9,15.3-3.8c3.2-4.5,3.4-11,7.4-14.8c2.3-2.2,5.6-3,8.5-4.4c8.2-3.7,14.4-11.6,16-20.5
			C721.4,127.9,695.1,112.5,678.5,131.5z"/>
		<g>
			<g>
				<defs>
					<rect id="SVGID_67_" x="30.5" y="223" width="327.4" height="277.3"/>
				</defs>
				<clipPath id="SVGID_68_">
					<use xlink:href="#SVGID_67_"  style="overflow:visible;"/>
				</clipPath>
				<g class="st57">
					<path class="st58" d="M336.7,429.2L225.2,551.6c-4,4.3-10.7,4.7-15.1,0.7L47.9,404.6c-4.3-4-4.7-10.7-0.7-15.1l111.5-122.4
						c4-4.3,10.7-4.7,15.1-0.7L336,414.1C340.3,418,340.7,424.8,336.7,429.2z"/>
					<path class="st59" d="M328.2,428l-105,115.3c-3.7,4.1-10.1,4.4-14.2,0.7L56.4,404.8c-4.1-3.7-4.4-10.1-0.7-14.2l105-115.3
						c3.7-4.1,10.1-4.4,14.2-0.7l152.7,139.1C331.7,417.5,332,423.9,328.2,428z"/>
					<g>
						<g>
							<defs>
								
									<rect id="SVGID_69_" x="87.6" y="360.3" transform="matrix(0.6735 -0.7392 0.7392 0.6735 -245.5219 230.6124)" width="101.4" height="65.9"/>
							</defs>
							<clipPath id="SVGID_70_">
								<use xlink:href="#SVGID_69_"  style="overflow:visible;"/>
							</clipPath>
							<path class="st60" d="M206,302.5c1.6,1.4,1.7,3.8,0.2,5.4s-3.8,1.7-5.4,0.2c-1.6-1.4-1.7-3.8-0.2-5.4
								C202,301.2,204.4,301.1,206,302.5z"/>
						</g>
						<g>
							<defs>
								
									<rect id="SVGID_71_" x="105.3" y="342.5" transform="matrix(0.9957 -9.281263e-02 9.281263e-02 0.9957 -35.9 14.5326)" width="65.9" height="101.4"/>
							</defs>
							<clipPath id="SVGID_72_">
								<use xlink:href="#SVGID_71_"  style="overflow:visible;"/>
							</clipPath>
							
								<rect x="87.6" y="360.3" transform="matrix(0.6735 -0.7392 0.7392 0.6735 -245.5218 230.6124)" class="st61" width="101.4" height="65.9"/>
						</g>
						<g>
							<defs>
								
									<rect id="SVGID_73_" x="87.6" y="360.3" transform="matrix(0.6735 -0.7392 0.7392 0.6735 -245.5219 230.6124)" width="101.4" height="65.9"/>
							</defs>
							<clipPath id="SVGID_74_">
								<use xlink:href="#SVGID_73_"  style="overflow:visible;"/>
							</clipPath>
							<g class="st62">
								<path class="st25" d="M217.3,375.8c-0.7,0.7-1.5,1.3-2.5,1.5l-149,36.9c-2.7,0.7-5.5-1-6.2-3.7c-0.7-2.7,1-5.5,3.7-6.2
									l149-36.9c2.7-0.7,5.5,1,6.2,3.7C218.9,372.8,218.4,374.6,217.3,375.8z"/>
							</g>
						</g>
						<g>
							<defs>
								
									<rect id="SVGID_75_" x="87.6" y="360.3" transform="matrix(0.6735 -0.7392 0.7392 0.6735 -245.5219 230.6124)" width="101.4" height="65.9"/>
							</defs>
							<clipPath id="SVGID_76_">
								<use xlink:href="#SVGID_75_"  style="overflow:visible;"/>
							</clipPath>
							<g class="st63">
								<path class="st25" d="M131.4,470.1c0.7-0.7,1.1-1.6,1.3-2.7l22.9-151.8c0.4-2.8-1.5-5.4-4.3-5.8c-2.8-0.4-5.4,1.5-5.8,4.3
									l-22.9,151.8c-0.4,2.8,1.5,5.4,4.3,5.8C128.6,472,130.2,471.3,131.4,470.1z"/>
							</g>
						</g>
						<g>
							<defs>
								
									<rect id="SVGID_77_" x="87.6" y="360.3" transform="matrix(0.6735 -0.7392 0.7392 0.6735 -245.5219 230.6124)" width="101.4" height="65.9"/>
							</defs>
							<clipPath id="SVGID_78_">
								<use xlink:href="#SVGID_77_"  style="overflow:visible;"/>
							</clipPath>
							<g class="st64">
								<g>
									<path class="st0" d="M213.6,367.2c2.3,0,4.4,1.6,5,3.9c0.4,1.7-0.1,3.5-1.2,4.7c-0.7,0.7-1.5,1.3-2.5,1.5l-149,36.9
										c-0.4,0.1-0.8,0.2-1.2,0.2c-2.3,0-4.4-1.6-5-3.9c-0.7-2.7,1-5.5,3.7-6.2l149-36.9C212.7,367.3,213.1,367.2,213.6,367.2
										 M213.6,365.4L213.6,365.4c-0.6,0-1.1,0.1-1.7,0.2l-149,36.9c-3.7,0.9-6,4.7-5.1,8.4c0.8,3.1,3.5,5.3,6.7,5.3
										c0.6,0,1.1-0.1,1.7-0.2l149-36.9c1.3-0.3,2.5-1,3.5-2.1c1.6-1.7,2.2-4.1,1.6-6.3C219.5,367.6,216.7,365.4,213.6,365.4
										L213.6,365.4z"/>
								</g>
							</g>
						</g>
						<g>
							<defs>
								
									<rect id="SVGID_79_" x="87.6" y="360.3" transform="matrix(0.6735 -0.7392 0.7392 0.6735 -245.5219 230.6124)" width="101.4" height="65.9"/>
							</defs>
							<clipPath id="SVGID_80_">
								<use xlink:href="#SVGID_79_"  style="overflow:visible;"/>
							</clipPath>
							<g class="st65">
								<g>
									<path class="st0" d="M150.5,309.8c0.3,0,0.5,0,0.8,0.1c2.8,0.4,4.7,3,4.3,5.8l-22.9,151.8c-0.2,1-0.6,2-1.3,2.7
										c-0.9,1-2.3,1.7-3.8,1.7c-0.3,0-0.5,0-0.8-0.1c-2.8-0.4-4.7-3-4.3-5.8l22.9-151.8C145.8,311.6,148,309.8,150.5,309.8
										 M150.5,308c-3.4,0-6.3,2.5-6.8,5.9l-22.9,151.8c-0.3,1.8,0.2,3.7,1.3,5.1c1.1,1.5,2.7,2.5,4.5,2.7c0.3,0.1,0.7,0.1,1,0.1
										c1.9,0,3.8-0.8,5.1-2.3c0.9-1,1.5-2.3,1.7-3.6l22.9-151.8c0.3-1.8-0.2-3.7-1.3-5.1s-2.7-2.5-4.5-2.7
										C151.2,308,150.8,308,150.5,308L150.5,308z"/>
								</g>
							</g>
						</g>
						<g>
							<defs>
								
									<rect id="SVGID_81_" x="87.6" y="360.3" transform="matrix(0.6735 -0.7392 0.7392 0.6735 -245.5219 230.6124)" width="101.4" height="65.9"/>
							</defs>
							<clipPath id="SVGID_82_">
								<use xlink:href="#SVGID_81_"  style="overflow:visible;"/>
							</clipPath>
							<polygon class="st66" points="167.8,351.5 141.1,380.8 121.4,362.8 108.5,377 128.2,394.9 99.5,426.4 111.2,437.1 140,405.6 
								157.2,421.4 170.1,407.2 152.9,391.5 179.5,362.2 							"/>
						</g>
						<g>
							<defs>
								
									<rect id="SVGID_83_" x="87.6" y="360.3" transform="matrix(0.6735 -0.7392 0.7392 0.6735 -245.5219 230.6124)" width="101.4" height="65.9"/>
							</defs>
							<clipPath id="SVGID_84_">
								<use xlink:href="#SVGID_83_"  style="overflow:visible;"/>
							</clipPath>
							<g class="st67">
								<path class="st0" d="M167.8,351.5l11.7,10.7l-26.6,29.2l17.3,15.7l-12.9,14.2L140,405.6l-28.7,31.5l-11.7-10.7l28.7-31.5
									l-19.7-18l12.9-14.2l19.7,18L167.8,351.5 M167.6,348.9l-1.2,1.3L141,378.2l-18.4-16.7l-1.3-1.2l-1.2,1.3l-12.9,14.2
									l-1.2,1.3l1.3,1.2l18.4,16.7l-27.5,30.2l-1.2,1.3l1.3,1.2l11.7,10.7l1.3,1.2l1.2-1.3l27.5-30.2l15.9,14.5l1.3,1.2l1.2-1.3
									l12.9-14.2l1.2-1.3l-1.3-1.2l-15.9-14.5l25.4-27.9l1.2-1.3l-1.3-1.2L169,350.2L167.6,348.9L167.6,348.9z"/>
							</g>
						</g>
					</g>
					<path class="st68" d="M241.3,353.5l-97.7,107.2c-1.7,1.8-4.5,1.9-6.3,0.3l0,0c-1.8-1.7-1.9-4.5-0.3-6.3l97.7-107.2
						c1.7-1.8,4.5-1.9,6.3-0.3l0,0C242.8,348.8,243,351.6,241.3,353.5z"/>
					<path class="st68" d="M255.3,366.2l-97.7,107.2c-1.7,1.8-4.5,1.9-6.3,0.3l0,0c-1.8-1.7-1.9-4.5-0.3-6.3l97.7-107.2
						c1.7-1.8,4.5-1.9,6.3-0.3l0,0C256.8,361.5,257,364.4,255.3,366.2z"/>
					<path class="st68" d="M269.3,378.9l-97.7,107.2c-1.7,1.8-4.5,1.9-6.3,0.3l0,0c-1.8-1.7-1.9-4.5-0.3-6.3l97.7-107.2
						c1.7-1.8,4.5-1.9,6.3-0.3l0,0C270.8,374.3,270.9,377.1,269.3,378.9z"/>
					<path class="st68" d="M229.7,459.2l-40.1,44.1c-1.4,1.6-3.9,1.7-5.4,0.3l0,0c-1.6-1.4-1.7-3.9-0.3-5.4L224,454
						c1.4-1.6,3.9-1.7,5.4-0.3l0,0C231,455.2,231.1,457.7,229.7,459.2z"/>
					<path class="st68" d="M241.3,469.8l-40.1,44.1c-1.4,1.6-3.9,1.7-5.4,0.3l0,0c-1.6-1.4-1.7-3.9-0.3-5.4l40.1-44.1
						c1.4-1.6,3.9-1.7,5.4-0.3l0,0C242.6,465.7,242.7,468.2,241.3,469.8z"/>
					<path class="st68" d="M254.5,481.8l-40.1,44.1c-1.4,1.6-3.9,1.7-5.4,0.3l0,0c-1.6-1.4-1.7-3.9-0.3-5.4l40.1-44.1
						c1.4-1.6,3.9-1.7,5.4-0.3l0,0C255.8,477.8,255.9,480.3,254.5,481.8z"/>
					
						<rect x="44.4" y="337.3" transform="matrix(0.6735 -0.7392 0.7392 0.6735 -213.4543 201.7229)" class="st69" width="154.4" height="10.3"/>
					<g>
						<path class="st0" d="M74.8,393.5c0.9,0.8,0.9,2.2,0.1,3.1s-2.2,0.9-3.1,0.1s-0.9-2.2-0.1-3.1C72.6,392.8,74,392.7,74.8,393.5z
							"/>
						<path class="st0" d="M80.7,387.4c0.9,0.8,0.9,2.2,0.1,3.1s-2.2,0.9-3.1,0.1s-0.9-2.2-0.1-3.1S79.8,386.6,80.7,387.4z"/>
						<path class="st0" d="M87.1,380.3c0.9,0.8,0.9,2.2,0.1,3.1s-2.2,0.9-3.1,0.1s-0.9-2.2-0.1-3.1S86.3,379.5,87.1,380.3z"/>
					</g>
					
						<rect x="169.2" y="301.6" transform="matrix(0.6735 -0.7392 0.7392 0.6735 -184.6595 250.983)" class="st70" width="45.1" height="65.9"/>
					
						<rect x="227.6" y="404.4" transform="matrix(0.6735 -0.7392 0.7392 0.6735 -230.0975 338.354)" class="st70" width="80.7" height="50.4"/>
					<line class="st71" x1="152.2" y1="329" x2="231.3" y2="340"/>
					<line class="st71" x1="182.6" y1="295.6" x2="200.9" y2="373.4"/>
					<line class="st71" x1="222.2" y1="442.5" x2="313.8" y2="416.8"/>
					<line class="st71" x1="276.5" y1="382.8" x2="259.4" y2="476.4"/>
				</g>
			</g>
		</g>
		<path class="st25" d="M340.2,308.6c-8.1-22.6-38.4-32.5-67.8-22c-29.4,10.5-46.6,37.3-38.6,59.9c4.3,12,14.8,20.4,28.1,24.1
			c-1,1.2-2,2.4-3.1,3.4c-4.9,4.5-11.4,7.3-18,8c8.4,1.8,17.3,2.9,25.1-0.7c4.2-1.9,8-4.9,10.9-8.6c8,0.2,16.5-1.2,24.9-4.2
			C330.9,358,348.2,331.2,340.2,308.6z"/>
	</g>
</g>
<g id="TEXTS">
	<g>
		<g class="st72">
			<path class="st0" d="M422.8,126.7l-4.7-6.7l2.5-1.8c0.7-0.5,1.4-0.8,2.2-0.9c0.7-0.1,1.4,0,2.1,0.3c0.6,0.3,1.2,0.8,1.6,1.4
				c0.5,0.6,0.7,1.3,0.8,2c0.1,0.7-0.1,1.4-0.4,2.1c-0.3,0.7-0.8,1.2-1.5,1.7L422.8,126.7z M422.9,126.4l2.3-1.6
				c0.7-0.5,1.2-1,1.5-1.7c0.3-0.6,0.4-1.3,0.4-1.9c-0.1-0.7-0.3-1.3-0.7-1.9s-0.9-1.1-1.6-1.3c-0.6-0.3-1.3-0.4-2-0.3
				s-1.4,0.4-2.1,0.8l-2.3,1.6L422.9,126.4z"/>
			<path class="st0" d="M430.7,121.2l-4.7-6.7l0.2-0.1l4.7,6.7L430.7,121.2z"/>
			<path class="st0" d="M436.2,117.4c-0.5,0.3-1,0.6-1.5,0.7c-0.5,0.1-1.1,0.1-1.6,0.1c-0.5-0.1-1-0.3-1.5-0.6
				c-0.5-0.3-0.9-0.7-1.2-1.2c-0.3-0.5-0.6-1-0.7-1.5s-0.1-1.1,0-1.6c0.1-0.5,0.3-1,0.6-1.5s0.7-0.9,1.2-1.2
				c0.4-0.3,0.9-0.5,1.4-0.7c0.5-0.1,1-0.2,1.5-0.1l0,0.2c-0.5-0.1-1-0.1-1.4,0.1c-0.4,0.1-0.9,0.3-1.3,0.6
				c-0.5,0.3-0.8,0.7-1.1,1.1c-0.3,0.4-0.5,0.9-0.6,1.4s-0.1,1,0,1.5c0.1,0.5,0.3,1,0.6,1.4c0.3,0.5,0.7,0.8,1.1,1.1
				c0.4,0.3,0.9,0.4,1.4,0.5c0.5,0.1,1,0.1,1.5,0s1-0.3,1.4-0.7c0.4-0.3,0.7-0.6,1-1c0.3-0.4,0.5-0.8,0.6-1.3l0.2,0.1
				c-0.1,0.5-0.3,0.9-0.6,1.4S436.6,117.1,436.2,117.4z"/>
			<path class="st0" d="M441.5,113.7l-4.6-6.5l-2.5,1.7l-0.1-0.2l5.2-3.6l0.1,0.2l-2.5,1.7l4.6,6.5L441.5,113.7z"/>
			<path class="st0" d="M445.4,110.9l-4.7-6.7l0.2-0.1l4.7,6.7L445.4,110.9z"/>
			<path class="st0" d="M450.9,107.1c-0.5,0.3-1,0.6-1.5,0.7c-0.5,0.1-1.1,0.1-1.6,0.1c-0.5-0.1-1-0.3-1.5-0.6s-0.9-0.7-1.2-1.2
				s-0.6-1-0.7-1.5s-0.1-1.1,0-1.6c0.1-0.5,0.3-1,0.6-1.5s0.7-0.9,1.2-1.2s1-0.6,1.5-0.7c0.5-0.1,1.1-0.1,1.6-0.1s1,0.3,1.5,0.6
				c0.5,0.3,0.9,0.7,1.2,1.2c0.3,0.5,0.6,1,0.7,1.5c0.1,0.5,0.1,1.1,0,1.6c-0.1,0.5-0.3,1-0.6,1.5
				C451.8,106.3,451.4,106.7,450.9,107.1z M450.8,106.9c0.5-0.3,0.8-0.7,1.1-1.1c0.3-0.4,0.5-0.9,0.6-1.4s0.1-1,0-1.5
				c-0.1-0.5-0.3-1-0.6-1.4c-0.3-0.5-0.7-0.8-1.1-1.1c-0.4-0.3-0.9-0.4-1.4-0.5c-0.5-0.1-1-0.1-1.5,0c-0.5,0.1-1,0.3-1.4,0.7
				s-0.8,0.7-1.1,1.1c-0.3,0.4-0.5,0.9-0.6,1.4c-0.1,0.5-0.1,1,0,1.5c0.1,0.5,0.3,1,0.6,1.4c0.3,0.5,0.7,0.8,1.1,1.1
				c0.4,0.3,0.9,0.4,1.4,0.5c0.5,0.1,1,0.1,1.5,0S450.3,107.2,450.8,106.9z"/>
			<path class="st0" d="M456.1,103.4l-4.7-6.7l0.2-0.1l9.5,3l-0.1,0.1l-4.5-6.5l0.2-0.1l4.7,6.7l-0.2,0.1l-9.5-3l0.1-0.1l4.5,6.5
				L456.1,103.4z"/>
			<path class="st0" d="M462.7,98.7l-1.6-8.9l0.2-0.1l7.8,4.5l-0.2,0.2l-7.6-4.4l0.1-0.1l1.6,8.6L462.7,98.7z M462.4,96l0-0.2
				l4.2-2.9l0.2,0.1L462.4,96z"/>
			<path class="st0" d="M470.5,93.3l-4.7-6.7l2.3-1.6c0.5-0.4,1.1-0.6,1.6-0.7c0.5-0.1,1-0.1,1.4,0.1c0.4,0.2,0.8,0.5,1.1,1
				c0.3,0.5,0.5,0.9,0.5,1.4c0,0.5-0.1,0.9-0.4,1.4c-0.3,0.4-0.7,0.9-1.2,1.2l-2.2,1.5l0-0.1l1.7,2.4L470.5,93.3z M469,90.8l-0.1,0
				l2.2-1.5c0.8-0.5,1.3-1.1,1.4-1.8c0.2-0.6,0-1.3-0.4-1.9c-0.5-0.6-1-1-1.7-1.1c-0.7-0.1-1.4,0.2-2.2,0.7l-2.2,1.5l0-0.1L469,90.8
				z M475.2,90l-3.4-1.2l0.2-0.2l3.4,1.2L475.2,90z"/>
			<path class="st0" d="M478.9,87.4l-1.6-2.3l0.1,0.1l-5.9-2.5l0.2-0.2l5.6,2.4l-0.1,0.1l-0.4-6.1l0.2-0.2l0.4,6.4l-0.1-0.2l1.6,2.3
				L478.9,87.4z"/>
		</g>
	</g>
	<g>
		<g>
			<g class="st72">
				<path class="st0" d="M603.4,119.7l-0.7,0.4l-14.9-25.2l0.7-0.4L603.4,119.7z M614.5,96.2l-18.7,11.1l-0.4-0.7l18.7-11.1
					L614.5,96.2z M606.8,83.5l0.7-0.4l14.9,25.2l-0.7,0.4L606.8,83.5z"/>
				<path class="st0" d="M632.4,101.6l16.1-9.5l0.4,0.7l-16.8,9.9l-14.9-25.2l16.3-9.6l0.4,0.7l-15.5,9.2L632.4,101.6z M624.8,89.2
					l14.1-8.3l0.4,0.7l-14.1,8.3L624.8,89.2z"/>
				<path class="st0" d="M662,85l-5.2-8.8l0.5,0.4l-20.5-10.8l0.8-0.5l19.5,10.2l-0.3,0.2l0.4-22l0.8-0.5l-0.4,23.1l-0.1-0.6
					l5.2,8.8L662,85z"/>
			</g>
		</g>
		<g>
			<g class="st72">
			</g>
		</g>
	</g>
	<g>
		<g>
			<g class="st72">
				<path class="st0" d="M259.1,356.1l-0.3,0.2l-6.9-11.7l0.3-0.2L259.1,356.1z M264.3,345.2l-8.7,5.1l-0.2-0.3l8.7-5.1L264.3,345.2
					z M260.7,339.4l0.3-0.2l6.9,11.7l-0.3,0.2L260.7,339.4z"/>
				<path class="st0" d="M272.6,347.7l7.4-4.4l0.2,0.3l-7.8,4.6l-6.9-11.7l7.5-4.5l0.2,0.3l-7.2,4.3L272.6,347.7z M269.1,342
					l6.5-3.9l0.2,0.3l-6.5,3.9L269.1,342z"/>
				<path class="st0" d="M283.6,341.6l-6.9-11.7l0.3-0.2l6.7,11.4l7-4.1l0.2,0.3L283.6,341.6z"/>
				<path class="st0" d="M293.2,335.9l-6.9-11.7l0.3-0.2l6.7,11.4l7-4.1l0.2,0.3L293.2,335.9z"/>
				<path class="st0" d="M307.7,327.4c-0.9,0.5-1.7,0.8-2.6,1c-0.9,0.1-1.8,0.1-2.6-0.1c-0.9-0.2-1.6-0.6-2.4-1.1
					c-0.7-0.5-1.3-1.2-1.8-2.1c-0.5-0.8-0.8-1.7-0.9-2.6s-0.1-1.8,0.2-2.6c0.2-0.9,0.6-1.6,1.2-2.4c0.6-0.7,1.3-1.3,2.1-1.8
					c0.9-0.5,1.7-0.8,2.6-1c0.9-0.1,1.8-0.1,2.6,0.1c0.9,0.2,1.6,0.6,2.4,1.1c0.7,0.5,1.3,1.2,1.8,2.1c0.5,0.8,0.8,1.7,0.9,2.6
					s0.1,1.8-0.2,2.6c-0.2,0.9-0.6,1.6-1.2,2.4C309.3,326.3,308.5,326.9,307.7,327.4z M307.5,327.1c0.8-0.5,1.5-1.1,2-1.7
					c0.5-0.7,0.9-1.4,1.1-2.2c0.2-0.8,0.3-1.6,0.1-2.5c-0.1-0.8-0.4-1.7-0.9-2.5c-0.5-0.8-1.1-1.5-1.7-2c-0.7-0.5-1.4-0.9-2.2-1.1
					c-0.8-0.2-1.6-0.2-2.5-0.1c-0.9,0.1-1.7,0.4-2.5,0.9c-0.8,0.5-1.5,1.1-2,1.7c-0.5,0.7-0.9,1.4-1.1,2.2c-0.2,0.8-0.3,1.6-0.1,2.5
					c0.1,0.8,0.4,1.7,0.9,2.5c0.5,0.8,1.1,1.5,1.7,2s1.4,0.9,2.2,1.1c0.8,0.2,1.6,0.2,2.5,0.1C305.9,327.8,306.7,327.5,307.5,327.1z
					"/>
				<path class="st0" d="M318.8,316.5l-5.1-8.5l0.4-0.2l5,8.6L318.8,316.5z M320.9,319.6c-0.1,0.1-0.2,0.1-0.4,0
					c-0.1,0-0.2-0.1-0.3-0.2c-0.1-0.1-0.1-0.3,0-0.4c0-0.1,0.1-0.2,0.2-0.3c0.1-0.1,0.2-0.1,0.4-0.1c0.1,0,0.2,0.1,0.3,0.2
					c0.1,0.1,0.1,0.2,0.1,0.4C321.1,319.4,321,319.5,320.9,319.6z"/>
			</g>
		</g>
		<g>
			<g class="st72">
			</g>
		</g>
	</g>
</g>
<rect class="st73" width="750" height="500"/>
</svg>
