<?xml version="1.0" encoding="utf-8"?>
<!-- Generator: Adobe Illustrator 27.5.0, SVG Export Plug-In . SVG Version: 6.00 Build 0)  -->
<svg version="1.1" xmlns="http://www.w3.org/2000/svg" xmlns:xlink="http://www.w3.org/1999/xlink" x="0px" y="0px"
	 viewBox="0 0 750 500" style="enable-background:new 0 0 750 500;" xml:space="preserve">
<g id="BACKGROUND">
	<rect style="fill-rule:evenodd;clip-rule:evenodd;fill:#FFFFFF;" width="750" height="500"/>
	<g>
		<path style="fill-rule:evenodd;clip-rule:evenodd;fill:#DAE0FD;" d="M78.884,73.858c0,0,546.675-20.569,575.413,1.372
			c25.612,19.554-1.804,266.751-8.071,320.297c-0.14,1.161-1.03,2.05-2.192,2.186c-143.872,16.29-479.013,8.948-550.122,7.16
			c-1.176-0.033-2.146-0.848-2.381-2C81.113,350.592,78.884,73.858,78.884,73.858z"/>
		<path style="fill-rule:evenodd;clip-rule:evenodd;fill:#A2A9E7;" d="M359.853,408.054c-6.262-10.106-9.541-22.31-8.744-35.454
			c2.115-34.863,32.092-63.125,66.955-63.125c18.138,0,34.022,7.652,44.792,19.901c15.61,11.414,25.125,30.332,23.826,51.744
			c-0.552,9.098-3.003,17.745-6.942,25.559C440.765,407.567,399.926,407.97,359.853,408.054z"/>
		<path style="fill-rule:evenodd;clip-rule:evenodd;fill:#A2A9E7;" d="M154.918,71.291c18.76-0.586,40.207-1.225,63.431-1.862
			c0.796,1.389,1.223,2.316,1.223,2.316c0.904-0.967,2.023-1.806,3.288-2.438c3.235-0.088,6.493-0.175,9.791-0.263
			c3.867,1.688,7.695,5.723,10.458,13.319c0.715,1.967,1.213,4.132,1.533,6.427v0.001c0.342,2.455,0.481,5.058,0.466,7.723l0.001,0
			l-0.001,0.004c-0.098,17.042-6.507,36.658-6.507,36.658c3.585,4.121,6.694,8.272,9.358,12.424
			c32.219,41.743,16.334,75.995,2.521,80.265c-2.676,0.827-4.686,0.905-6.188,0.481c15.067-15.903,20.481-37.982,13.078-61.07
			c8.105,17.48,13.998,39.497,3.868,56.007c-9.766,15.915-17.795,15.205-21.91,9.745l-5.935,4.595
			c5.284,4.627,10.289,9.692,14.444,12.661l3.296,0.205c0,0,8.486-1.364,24.752,34.307c5.294,6.271,10.206,13.525,10.224,20.74
			c2.263-4.445,4.825-9.249,7.7-14.341c15.392-27.258,20.503-42.712,20.503-42.712s3.775-19.221,8.775-25.784
			c5-6.563,9.062-13.125,10.313-16.875c1.25-3.75,8.913,2.058,5,11.094c-1.342,3.099-2.682,6.131-3.845,9.004h0
			c15-3.75,20.168-4.469,20.168-4.469c2.903-0.697,11.897-1.434,20.122-2.516c6.648-0.875,10.945,2.686,10.328,4.419
			c10.606-0.972,9.605,4.969,7.956,5.386l-29.005,4.278c5.455-0.374,15.312-0.95,18.146-0.45c4.88,0.861,6.489,3.827-0.547,4.766
			c0,0,2.109,1.953-0.625,3.672c-2.734,1.719-14.009,4.345-14.009,4.345l-33.458,8.308c0,0-10.506,49.24-19.192,74.767
			c-3.568,10.491-6.497,16.67-15.622,23.812c-2.388,1.869-3.088,2.148-5.414,3.637c-5.754,4.089-13.539,8.419-21.884,9.621
			c0.102,4.603,0.383,9.34,0.894,14.131c0.35,1.289,2.943,4.567,0.626,5.067c1.19,8.441,3.141,16.963,6.133,25.137
			c-51.888-0.374-98.865-1.128-134.115-1.822c0.578-1.443,1.201-2.903,1.874-4.378l4.554-27.324
			c-11.813-0.079-26.018-0.417-33.114-2.442c-5.498-1.569-11.094-4.836-15.493-8.485c-0.198-0.165-0.395-0.331-0.589-0.498
			c-8.221-4.037-14.771-11.197-12.1-20.378c4.535-15.591,23.664-76.863,39.64-93.973c2.44-5.336,6.838-10.176,11.702-14.298
			c-3.226-2.482-6.211-5.348-8.947-8.539c-16.321,15.094-25.586-25.039-21.177-64.243c-0.278-28.991,9.318-59.353,30.548-79.876
			C145.784,77.837,150.44,74.182,154.918,71.291L154.918,71.291z M244.641,88.79L244.641,88.79L244.641,88.79z M150.027,341.186
			c-2.125-6.343-4.766-14.383-7.477-23.031c-1.782,7.137-3.808,14.04-5.929,20.31C140.679,339.207,145.165,340.103,150.027,341.186
			L150.027,341.186z M111.502,165.289c-5.65,40.227-1.489,81.576,20.989,60.303C119.728,210.638,112.427,188.572,111.502,165.289z"
			/>
	</g>
</g>
<g id="OBJECT">
	<g>
		<path style="fill-rule:evenodd;clip-rule:evenodd;fill:#2B2235;" d="M625.95,186.438c0.517-1.505,2.827-7.824,8.178-17.176
			c0.068-0.119,0.065-0.257-0.009-0.372c-2.487-3.893-7.561-18.457,0.612-17.912c5.19,0.346,3.93,7.093,2.158,12.303
			c-0.059,0.173,0.02,0.361,0.185,0.44c0.165,0.079,0.361,0.022,0.459-0.133c6.591-10.5,16.496-23.723,30.988-37.866
			c0.048-0.047,0.079-0.099,0.096-0.164c1.111-4.129,5.528-18.418,12.034-12.209c6.95,6.633-6.087,11.464-11.165,12.968
			c-0.058,0.017-0.104,0.045-0.148,0.087c-2.818,2.748-5.463,5.46-7.942,8.124c-0.127,0.136-0.129,0.345-0.006,0.483
			c0.124,0.139,0.331,0.161,0.481,0.051c4.726-3.462,12.457-8.023,13.919-2.1c2.085,8.448-13.302,6.606-17.362,5.155
			c-0.141-0.05-0.29-0.012-0.389,0.099c-3.698,4.156-6.992,8.174-9.917,12c-0.11,0.143-0.097,0.343,0.031,0.471
			c0.127,0.128,0.327,0.143,0.471,0.034c4.626-3.489,13.056-8.811,14.588-2.599c2.048,8.299-12.761,6.669-17.135,5.233
			c-0.15-0.049-0.308,0.002-0.402,0.129c-4.596,6.277-8.173,11.962-10.915,16.796c-0.086,0.151-0.053,0.337,0.079,0.45
			c0.132,0.113,0.321,0.116,0.457,0.008c4.173-3.311,14.109-10.323,15.787-3.526c2.055,8.327-12.867,6.656-17.182,5.217
			c-0.167-0.055-0.345,0.015-0.429,0.17c-4.19,7.71-6.065,12.855-6.517,14.174c-0.064,0.185-0.265,0.285-0.451,0.225l-0.323-0.105
			c-0.095-0.031-0.166-0.092-0.21-0.181C625.924,186.626,625.918,186.533,625.95,186.438L625.95,186.438z M646.812,149.658
			c1.419-3.038,7.646-17.265,0.047-17.771c-8.101-0.54-3.187,13.764-0.678,17.808c0.071,0.115,0.191,0.177,0.326,0.169
			C646.643,149.856,646.755,149.78,646.812,149.658L646.812,149.658z M659.39,134.497c1.419-3.038,7.646-17.265,0.047-17.771
			c-8.101-0.54-3.187,13.765-0.678,17.808c0.071,0.115,0.191,0.177,0.326,0.169C659.221,134.695,659.333,134.619,659.39,134.497z"/>
		<polygon style="fill-rule:evenodd;clip-rule:evenodd;fill:#2B2235;" points="622.75,94.643 636.873,112.611 639.999,354.486 
			297.498,356.986 298.748,117.61 		"/>
		<g>
			<path style="fill-rule:evenodd;clip-rule:evenodd;fill:#8F9DFB;" d="M270.31,103.987c0,0,253.65-10.68,352.44-9.345
				c0,0,5.34,224.28-9.345,269.67h-339.09C280.801,293.947,276.645,183.887,270.31,103.987z"/>
			<path style="fill-rule:evenodd;clip-rule:evenodd;fill:#6C75CF;" d="M270.31,103.987c0,0,253.65-10.68,352.44-9.345
				c0,0,0.59,24.809,0.838,59.58c-85.14-0.77-290.334,0.019-349.835,0.273C272.735,136.839,271.565,119.82,270.31,103.987z"/>
			<g>
				<path style="fill-rule:evenodd;clip-rule:evenodd;fill:#FFFFFF;" d="M524.245,154.92c0.008,0.07,0.84,7.249,1.628,20.306
					c0.081,1.343,1.211,2.381,2.555,2.349l86.369-2.08l0.035,1.47l-86.166,2.075c-0.7,0.017-1.296,0.286-1.772,0.798
					c-0.476,0.513-0.699,1.127-0.664,1.827c1.667,32.803,2.467,93.439-6.985,168.737l-1.465-0.179
					c9.459-75.349,8.64-135.967,6.97-168.656c-0.069-1.351-1.204-2.403-2.557-2.371l-129.225,3.112
					c-1.372,0.033-2.465,1.174-2.439,2.547c0.775,39.628,0.904,113.526-7.027,161.555l-1.453-0.236
					c7.912-47.913,7.783-121.676,7.01-161.26c-0.014-0.69-0.273-1.279-0.771-1.756c-0.499-0.477-1.098-0.709-1.789-0.693
					l-93.542,2.252l-0.035-1.471l93.559-2.253c1.376-0.033,2.471-1.182,2.439-2.558c-0.299-12.859-0.626-20.776-0.63-20.865
					l1.471-0.058c0.004,0.089,0.331,8.012,0.63,20.883c0.032,1.378,1.182,2.475,2.559,2.441l129.003-3.106
					c0.704-0.017,1.304-0.289,1.781-0.808c0.477-0.519,0.697-1.14,0.654-1.843c-0.781-12.864-1.601-19.93-1.608-19.999
					L524.245,154.92z"/>
				<path style="fill-rule:evenodd;clip-rule:evenodd;fill:#FFFFFF;" d="M416.16,173.039c0.009-0.032,3.113-11.145,8.814-11.318
					c2.413-0.073,4.709,2.329,7.338,5.082c3.563,3.729,7.795,8.157,13.168,7.117c0.233-0.045,0.459-0.098,0.678-0.157
					c0.891-0.241,1.535-0.891,1.767-1.784s-0.014-1.775-0.674-2.419c-0.307-0.299-0.596-0.606-0.865-0.917
					c-0.888-1.028-1.568-2.112-1.987-3.15c-0.441-1.092-0.6-2.149-0.424-3.062c0.268-1.39,1.244-2.412,3.082-2.732
					c2.492-0.433,4.34,0.672,5.406,2.494c0.491,0.839,0.808,1.824,0.937,2.871c0.127,1.031,0.074,2.133-0.173,3.221
					c-0.051,0.226-0.111,0.452-0.179,0.676c-0.211,0.693-0.131,1.369,0.235,1.994c0.367,0.624,0.918,1.024,1.626,1.178
					c1.683,0.365,3.5,0.39,5.375-0.079c1.606-0.401,3.206-0.827,4.825-1.257c10.383-2.761,21.528-5.725,25.184-0.315l-1.222,0.824
					c-3.068-4.541-13.691-1.716-23.586,0.915c-1.666,0.443-3.312,0.881-4.843,1.263c-2.884,0.721-5.639,0.404-8.05-0.508
					c-0.859-0.325-1.759-0.178-2.469,0.404c-1.141,0.934-2.588,1.644-4.365,1.988c-6.159,1.192-10.694-3.554-14.512-7.55
					c-2.388-2.499-4.472-4.68-6.231-4.626c-4.611,0.14-7.428,10.216-7.436,10.245L416.16,173.039L416.16,173.039z M451.993,166.155
					c-0.001-0.308-0.02-0.613-0.056-0.911c-0.106-0.857-0.357-1.649-0.741-2.306c-0.764-1.306-2.094-2.097-3.89-1.785
					c-1.139,0.198-1.733,0.779-1.883,1.556c-0.121,0.63,0.007,1.403,0.344,2.237c0.359,0.889,0.952,1.83,1.733,2.735
					c0.042,0.048,0.084,0.096,0.126,0.144c0.704,0.791,1.77,1.051,2.759,0.673C451.375,168.119,451.996,167.214,451.993,166.155z"/>
				<path style="fill-rule:evenodd;clip-rule:evenodd;fill:#FFFFFF;" d="M597.008,167.88c-0.015,0.007-4.177,1.977-9.185,0.746
					c-0.563-0.138-1.088-0.091-1.617,0.145c-0.231,0.103-0.467,0.202-0.708,0.294c-3.527,1.355-8.047,1.514-12.74-0.653l0.682-1.307
					c1.929,0.881,3.82,1.335,5.607,1.456c0.974,0.066,1.844-0.397,2.332-1.242c0.489-0.845,0.457-1.83-0.086-2.641
					c-0.915-1.369-1.056-2.896-0.676-4.327c0.293-1.105,0.905-2.145,1.709-3c0.802-0.852,1.805-1.528,2.884-1.907
					c2.048-0.72,4.349-0.392,6.107,1.752c1.14,1.391,1.487,2.998,1.196,4.605c-0.109,0.602-0.308,1.203-0.589,1.788
					c-0.433,0.902-0.308,1.912,0.332,2.68c0.64,0.769,1.61,1.075,2.575,0.814c0.974-0.264,1.554-0.538,1.559-0.541L597.008,167.88
					L597.008,167.88z M570.389,167.334c-6.708-2.798-9.357-1.372-12,0.053c-1.239,0.668-2.479,1.337-4.099,1.656
					c-5.472,1.081-9.479,0.927-9.49,0.927l0.035-1.47c0.011,0,3.846,0.148,9.172-0.904c1.404-0.277,2.544-0.892,3.684-1.506
					c2.962-1.597,5.931-3.196,13.302-0.101L570.389,167.334L570.389,167.334z M583.842,165.183c0.531,0.38,1.064,0.704,1.595,0.98
					c0.894,0.464,1.916,0.366,2.705-0.26c0.361-0.287,0.696-0.59,1-0.905c1.032-1.07,1.709-2.272,1.924-3.458
					c0.216-1.192-0.041-2.383-0.885-3.412c-1.295-1.58-2.985-1.823-4.486-1.296c-0.851,0.299-1.65,0.84-2.295,1.526
					c-0.643,0.683-1.129,1.504-1.357,2.366C581.642,162.235,582.052,163.902,583.842,165.183z"/>
				<path style="fill-rule:evenodd;clip-rule:evenodd;fill:#FFFFFF;" d="M413.573,209.821c0.05,0.007,11.336,1.712,20.374,0.904
					c0.892-0.08,1.62-0.578,2.017-1.38c0.398-0.802,0.353-1.683-0.124-2.441c-0.549-0.874-0.943-1.771-1.163-2.632
					c-0.373-1.463-0.253-2.847,0.44-3.895c1.264-1.915,4.012-2.538,6.52-2.046c0.888,0.174,1.751,0.487,2.509,0.929
					c0.777,0.453,1.449,1.047,1.937,1.774c1.067,1.59,1.229,3.748-0.361,6.356c-0.512,0.841-0.498,1.836,0.038,2.662
					c0.536,0.826,1.44,1.244,2.416,1.118c1.463-0.188,3.021-0.646,4.654-1.441c1.379-0.671,2.45-1.204,3.451-1.701
					c9.62-4.78,13.574-6.744,19.269-1.049c1.554,1.554,3.302,2.536,5.031,3.094c1.954,0.63,3.889,0.725,5.5,0.496
					c1.547-0.22,2.76-0.724,3.358-1.322c0.143-0.143,0.238-0.282,0.28-0.409l1.401,0.45c-0.115,0.356-0.333,0.693-0.639,1
					l-0.003,0.003c-0.807,0.807-2.327,1.472-4.194,1.737c-1.803,0.256-3.968,0.15-6.152-0.554c-1.94-0.626-3.896-1.722-5.625-3.451
					c-4.947-4.948-8.625-3.121-17.573,1.325c-1.147,0.57-2.373,1.179-3.457,1.707c-4.06,1.976-7.737,2.051-10.749,1.102
					c-0.624-0.197-1.22-0.437-1.785-0.715c-0.554-0.272-1.117-0.331-1.715-0.18c-9.707,2.458-25.809,0.023-25.869,0.015
					L413.573,209.821L413.573,209.821z M441.922,208.834c1.09-0.56,1.945-1.254,2.481-2.111c1.298-2.077,1.232-3.715,0.458-4.869
					c-0.354-0.528-0.862-0.971-1.459-1.319c-0.615-0.359-1.32-0.613-2.048-0.756c-1.977-0.387-4.098,0.033-5.008,1.412
					c-0.45,0.682-0.51,1.65-0.238,2.719c0.329,1.291,1.136,2.694,2.334,3.927c0.221,0.227,0.455,0.449,0.701,0.663
					C439.93,209.181,440.995,209.31,441.922,208.834z"/>
				<path style="fill-rule:evenodd;clip-rule:evenodd;fill:#FFFFFF;" d="M546.06,205.723c0.022-0.004,7.574-1.578,23.92-0.949
					c6.83,0.263,10.998,1.93,13.831,3.063c3.453,1.381,4.591,1.836,6.707-3.534c1.329-3.374,2.587-5.478,3.746-6.52
					c0.76-0.684,1.513-0.96,2.248-0.872c0.73,0.087,1.379,0.53,1.945,1.282c0.926,1.232,1.675,3.399,2.221,6.24
					c1.245,6.472,5.551,0.648,5.563,0.632l1.176,0.888c-0.018,0.024-6.307,8.534-8.187-1.243c-0.505-2.629-1.164-4.589-1.95-5.634
					c-0.316-0.421-0.633-0.663-0.942-0.7c-0.304-0.036-0.667,0.124-1.089,0.503c-0.995,0.895-2.12,2.814-3.359,5.961
					c-2.66,6.751-4.139,6.159-8.627,4.364c-2.738-1.096-6.766-2.707-13.335-2.959c-16.154-0.621-23.558,0.922-23.58,0.926
					L546.06,205.723z"/>
				<path style="fill-rule:evenodd;clip-rule:evenodd;fill:#FFFFFF;" d="M586.21,357.867c-5.936,0.043,9.056-12.671,13.587-13.921
					c4.531-1.25,6.175,13.776,6.175,13.776L586.21,357.867z"/>
				<path style="fill-rule:evenodd;clip-rule:evenodd;fill:#FFFFFF;" d="M303.956,204.149c0.145-0.012,50.42-4.385,61.475-1.858
					l-0.329,1.436c-10.819-2.473-60.881,1.88-61.025,1.892L303.956,204.149z"/>
				<path style="fill-rule:evenodd;clip-rule:evenodd;fill:#FFFFFF;" d="M303.454,175.238c0.016-0.041,5.458-14.331,12.826-5.034
					c1.122,1.416,2.267,2.524,3.428,3.334c1.802,1.258,3.644,1.793,5.494,1.644c1.87-0.15,3.775-1,5.676-2.507
					c1.737-1.374,3.464-3.29,5.16-5.719c2.782-3.984,4.671-4.465,6.354-3.29c1.021,0.713,1.839,2.062,2.751,3.568
					c1.353,2.233,2.938,4.848,5.478,5.695c0.83,0.276,1.763,0.5,2.758,0.679c1.007,0.181,2.074,0.315,3.164,0.413l-0.127,1.465
					c-1.137-0.102-2.249-0.242-3.297-0.43c-1.059-0.19-2.058-0.431-2.96-0.731c-3.056-1.018-4.792-3.883-6.274-6.329
					c-0.827-1.365-1.568-2.588-2.336-3.124c-0.938-0.655-2.17-0.133-4.306,2.927c-1.777,2.544-3.602,4.564-5.45,6.028
					c-2.135,1.694-4.307,2.651-6.477,2.825c-2.19,0.176-4.354-0.445-6.451-1.909c-1.276-0.891-2.526-2.097-3.739-3.629
					c-5.757-7.265-10.287,4.62-10.3,4.653L303.454,175.238L303.454,175.238z M360.583,174.233c5.432,0.11,10.346-0.398,10.36-0.399
					l0.144,1.465c-0.014,0.001-5.004,0.517-10.533,0.405L360.583,174.233z"/>
			</g>
		</g>
		<g>
			<path style="fill-rule:evenodd;clip-rule:evenodd;fill:#462C46;" d="M270.31,103.987c0,0,253.65-10.68,352.44-9.345
				c0,0,0.047,2.535,0.119,6.723c0.157,9.108,0.438,26.035,0.626,41.714l-350.006,6.897
				C272.834,140.167,271.034,113.115,270.31,103.987z"/>
			<path style="fill-rule:evenodd;clip-rule:evenodd;fill:#2B2235;" d="M276.994,149.613c0.882-0.027,307.184-9.526,351.263-4.525
				l-0.064,0.586c-44.045-4.998-350.3,4.5-351.182,4.527L276.994,149.613z"/>
		</g>
		<g>
			<g>
				
					<ellipse transform="matrix(0.7071 -0.7071 0.7071 0.7071 8.512 272.6959)" style="fill-rule:evenodd;clip-rule:evenodd;fill:#2B2235;" cx="333.429" cy="126.073" rx="7.773" ry="7.773"/>
				
					<ellipse transform="matrix(0.3809 -0.9246 0.9246 0.3809 139.4549 455.2578)" style="fill-rule:evenodd;clip-rule:evenodd;fill:#2B2235;" cx="409.678" cy="123.495" rx="7.773" ry="7.773"/>
				
					<ellipse transform="matrix(0.987 -0.1606 0.1606 0.987 -13.2234 79.6037)" style="fill-rule:evenodd;clip-rule:evenodd;fill:#2B2235;" cx="485.928" cy="121.62" rx="7.773" ry="7.773"/>
				
					<ellipse transform="matrix(0.987 -0.1606 0.1606 0.987 -11.9831 91.827)" style="fill-rule:evenodd;clip-rule:evenodd;fill:#2B2235;" cx="562.178" cy="120.058" rx="7.773" ry="7.773"/>
			</g>
			<g>
				<path style="fill-rule:evenodd;clip-rule:evenodd;fill:#DAE0FD;" d="M320.165,73.388c13.639,0,26.654,12.146,29.542,27.345
					l-2.991,0.11c-2.339-10.294-11.263-18.392-20.602-18.392c-9.821,0-16.381,8.955-14.653,20c1.728,11.046,11.091,20,20.911,20
					l0.006,0.037c0.185-0.029,0.376-0.044,0.57-0.044c2.035,0,3.685,1.65,3.685,3.685c0,1.841-1.351,3.367-3.116,3.641l0.006,0.037
					c-1.423,0.299-2.913,0.456-4.46,0.456c-13.964,0-27.276-12.732-29.734-28.438C296.873,86.12,306.202,73.388,320.165,73.388z"/>
				<path style="fill-rule:evenodd;clip-rule:evenodd;fill:#FFFFFF;" d="M320.165,73.388c5.635,0,11.164,2.076,15.916,5.581
					c0.939,3.298-6.014,3.958-6.014,3.958v0.001c-1.297-0.312-2.62-0.477-3.952-0.477c-7.994,0-13.828,5.934-14.789,14.099
					l-0.001,0.001c-3.904,8.902-8.566,7.752-12.074,4.727C297.093,85.826,306.364,73.388,320.165,73.388z"/>
			</g>
			<g>
				<path style="fill-rule:evenodd;clip-rule:evenodd;fill:#DAE0FD;" d="M396.727,70.707c13.638,0,26.654,12.146,29.542,27.345
					l-2.991,0.11c-2.339-10.294-11.263-18.392-20.603-18.392c-9.821,0-16.381,8.954-14.653,20c1.728,11.045,11.09,20,20.911,20
					l0.006,0.037c0.185-0.029,0.376-0.044,0.57-0.044c2.035,0,3.685,1.65,3.685,3.685c0,1.842-1.351,3.367-3.115,3.641l0.006,0.037
					c-1.423,0.299-2.913,0.456-4.46,0.456c-13.964,0-27.276-12.732-29.734-28.437C373.435,83.438,382.763,70.707,396.727,70.707z"/>
				<path style="fill-rule:evenodd;clip-rule:evenodd;fill:#FFFFFF;" d="M396.727,70.707c5.635,0,11.163,2.076,15.916,5.581
					c0.939,3.298-6.014,3.958-6.014,3.958v0.001c-1.297-0.312-2.62-0.477-3.952-0.477c-7.994,0-13.828,5.934-14.789,14.099
					l-0.001,0.002c-3.904,8.902-8.566,7.752-12.074,4.727C373.655,83.144,382.926,70.707,396.727,70.707z"/>
			</g>
			<g>
				<path style="fill-rule:evenodd;clip-rule:evenodd;fill:#DAE0FD;" d="M473.289,68.649c13.638,0,26.654,12.146,29.542,27.345
					l-2.991,0.11c-2.339-10.294-11.263-18.392-20.603-18.392c-9.821,0-16.381,8.954-14.653,20c1.728,11.045,11.091,20,20.911,20
					l0.006,0.037c0.185-0.029,0.376-0.044,0.57-0.044c2.035,0,3.685,1.65,3.685,3.685c0,1.842-1.351,3.367-3.115,3.641l0.005,0.037
					c-1.423,0.299-2.913,0.456-4.46,0.456c-13.964,0-27.276-12.732-29.734-28.437C449.997,81.381,459.325,68.649,473.289,68.649z"/>
				<path style="fill-rule:evenodd;clip-rule:evenodd;fill:#FFFFFF;" d="M473.333,68.649c5.635,0,11.164,2.075,15.916,5.581
					c0.939,3.298-6.014,3.958-6.014,3.958v0.001c-1.297-0.312-2.62-0.477-3.952-0.477c-7.994,0-13.828,5.934-14.789,14.099
					l-0.001,0.001c-3.904,8.902-8.566,7.752-12.074,4.727C450.261,81.087,459.532,68.649,473.333,68.649z"/>
			</g>
			<g>
				<path style="fill-rule:evenodd;clip-rule:evenodd;fill:#DAE0FD;" d="M549.851,67.314c13.638,0,26.654,12.146,29.542,27.345
					l-2.991,0.11c-2.339-10.294-11.263-18.392-20.603-18.392c-9.821,0-16.381,8.954-14.653,20c1.728,11.045,11.091,20,20.911,20
					l0.006,0.037c0.185-0.029,0.376-0.044,0.57-0.044c2.035,0,3.685,1.65,3.685,3.685c0,1.842-1.351,3.367-3.115,3.641l0.005,0.037
					c-1.423,0.299-2.913,0.456-4.46,0.456c-13.964,0-27.276-12.732-29.734-28.437C526.559,80.046,535.887,67.314,549.851,67.314z"/>
				<path style="fill-rule:evenodd;clip-rule:evenodd;fill:#FFFFFF;" d="M549.838,67.314c5.635,0,11.163,2.076,15.916,5.581
					c0.939,3.298-6.014,3.958-6.014,3.958v0.001c-1.297-0.312-2.62-0.478-3.952-0.478c-7.994,0-13.828,5.934-14.789,14.099
					l-0.001,0.001c-3.904,8.902-8.566,7.752-12.074,4.727C526.766,79.752,536.037,67.314,549.838,67.314z"/>
			</g>
		</g>
		<g>
			<path style="fill-rule:evenodd;clip-rule:evenodd;fill:#6C75CF;" d="M485.612,364.312H351.125
				c4.454-32.597,33.246-58.276,66.477-58.276c18.138,0,34.022,7.652,44.792,19.901
				C474.661,334.906,483.162,348.509,485.612,364.312z"/>
			<path style="fill-rule:evenodd;clip-rule:evenodd;fill:#6C75CF;" d="M274.437,362.948c2.039-22.763,2.988-49.568,3.124-78.112
				c4.611,5.779,8.532,12.255,8.547,18.701c2.263-4.445,4.825-9.249,7.7-14.341c15.392-27.258,20.503-42.712,20.503-42.712
				s3.775-19.221,8.775-25.784c5-6.563,9.062-13.125,10.313-16.875c1.25-3.75,8.913,2.058,5,11.094
				c-1.342,3.099-2.682,6.131-3.845,9.004h0c15-3.75,20.168-4.469,20.168-4.469c2.903-0.697,11.897-1.434,20.122-2.516
				c6.648-0.875,10.945,2.686,10.328,4.419c0.828-0.076,1.61-0.131,2.331-0.161c0,0,5.312,0.078,6.328,2.5
				c1.016,2.422-0.703,3.047-0.703,3.047l-29.005,4.278c5.455-0.374,15.312-0.95,18.146-0.45c4.88,0.861,6.489,3.827-0.547,4.766
				c0,0,2.109,1.953-0.625,3.672c-2.734,1.719-14.009,4.345-14.009,4.345l-33.458,8.308c0,0-10.506,49.24-19.192,74.767l-0.061,0.18
				l-0.001,0.003l-0.238,0.692l-0.006,0.016l-0.061,0.176l-0.122,0.349l-0.061,0.173l-0.177,0.503l-0.246,0.687l-0.06,0.166
				l-0.12,0.33l-0.06,0.164c-0.091,0.247-0.181,0.492-0.271,0.733l-0.134,0.356c-0.113,0.298-0.225,0.591-0.337,0.879l-0.1,0.258
				c-0.127,0.324-0.252,0.641-0.378,0.951l-0.043,0.107c-0.137,0.337-0.273,0.667-0.409,0.987l-0.011,0.027l-0.016,0.038
				c-0.138,0.325-0.275,0.641-0.411,0.948l-0.013,0.03c-0.141,0.318-0.281,0.625-0.42,0.921c-0.136,0.291-0.28,0.581-0.429,0.871
				l-0.026,0.05c-0.145,0.281-0.296,0.562-0.452,0.842l-0.04,0.071c-0.155,0.276-0.315,0.552-0.481,0.827l-0.045,0.074
				c-0.17,0.28-0.344,0.559-0.524,0.837l-0.017,0.027c-0.179,0.276-0.364,0.551-0.553,0.825l-0.043,0.063
				c-0.186,0.269-0.378,0.537-0.573,0.803l-0.062,0.085c-0.195,0.264-0.394,0.527-0.597,0.788l-0.061,0.079
				c-0.204,0.26-0.411,0.519-0.622,0.777l-0.073,0.088c-0.204,0.247-0.412,0.493-0.622,0.737l-0.073,0.085
				c-0.212,0.244-0.428,0.487-0.647,0.727l-0.103,0.113c-0.214,0.234-0.431,0.466-0.651,0.696l-0.134,0.14
				c-0.217,0.226-0.437,0.45-0.66,0.672l-0.131,0.13c-0.223,0.221-0.449,0.44-0.677,0.657l-0.109,0.103
				c-0.223,0.211-0.448,0.419-0.675,0.626l-0.158,0.143c-0.229,0.206-0.46,0.41-0.692,0.611l-0.162,0.14
				c-0.225,0.193-0.451,0.384-0.679,0.573l-0.225,0.185c-0.21,0.172-0.421,0.342-0.634,0.51l-0.235,0.184
				c-0.206,0.161-0.413,0.319-0.621,0.476l-0.276,0.207c-0.213,0.158-0.426,0.314-0.64,0.467l-0.217,0.155
				c-0.229,0.162-0.459,0.322-0.689,0.479l-0.263,0.177c-0.204,0.137-0.408,0.271-0.613,0.403l-0.319,0.205
				c-0.198,0.125-0.395,0.249-0.594,0.37l-0.33,0.2c-0.207,0.124-0.414,0.246-0.621,0.366l-0.23,0.132
				C288.324,357.483,281.665,361.279,274.437,362.948z"/>
		</g>
	</g>
	<g>
		<g>
			<path style="fill-rule:evenodd;clip-rule:evenodd;fill:#ECB55A;" d="M651.589,199.02h18.75c2.407,0,4.375,1.969,4.375,4.375
				v18.75c0,2.406-1.969,4.375-4.375,4.375h-18.75c-2.406,0-4.375-1.969-4.375-4.375v-18.75
				C647.214,200.988,649.182,199.02,651.589,199.02L651.589,199.02z M653.879,202.378c-1.819,0-3.306,1.487-3.306,3.306v14.17
				c0,1.819,1.487,3.306,3.306,3.306h14.17c1.819,0,3.306-1.488,3.306-3.306v-14.17c0-1.819-1.488-3.306-3.306-3.306H653.879z"/>
			<path style="fill-rule:evenodd;clip-rule:evenodd;fill:#ECB55A;" d="M657.448,207.77l4.297,7.266
				c0,0,10.313-14.454,16.875-16.641l3.359,7.11c0,0-12.734,7.266-20.078,15.235l-8.75-8.438L657.448,207.77z"/>
			<path style="fill-rule:evenodd;clip-rule:evenodd;fill:#2B2235;" d="M651.589,231.637h18.75c2.407,0,4.375,1.969,4.375,4.375
				v18.75c0,2.406-1.969,4.375-4.375,4.375h-18.75c-2.406,0-4.375-1.969-4.375-4.375v-18.75
				C647.214,233.606,649.182,231.637,651.589,231.637L651.589,231.637z M653.879,234.996c-1.819,0-3.306,1.487-3.306,3.306v14.17
				c0,1.818,1.487,3.306,3.306,3.306h14.17c1.819,0,3.306-1.488,3.306-3.306v-14.17c0-1.819-1.488-3.306-3.306-3.306H653.879z"/>
			<path style="fill-rule:evenodd;clip-rule:evenodd;fill:#2B2235;" d="M651.589,264.254h18.75c2.407,0,4.375,1.969,4.375,4.375
				v18.75c0,2.406-1.969,4.375-4.375,4.375h-18.75c-2.406,0-4.375-1.969-4.375-4.375v-18.75
				C647.214,266.223,649.182,264.254,651.589,264.254L651.589,264.254z M653.879,267.613c-1.819,0-3.306,1.487-3.306,3.306v14.17
				c0,1.819,1.487,3.306,3.306,3.306h14.17c1.819,0,3.306-1.488,3.306-3.306v-14.17c0-1.819-1.488-3.306-3.306-3.306H653.879z"/>
		</g>
		<g>
			<polygon style="fill-rule:evenodd;clip-rule:evenodd;fill:#8F9DFB;" points="505.749,432.974 518.398,432.974 518.398,382.379 
				504.712,382.379 			"/>
			<polygon style="fill-rule:evenodd;clip-rule:evenodd;fill:#ECB55A;" points="525.033,432.974 537.682,432.974 537.682,409.578 
				523.996,409.578 			"/>
			<polygon style="fill-rule:evenodd;clip-rule:evenodd;fill:#462C46;" points="542.451,432.974 555.1,432.974 555.1,389.153 
				541.414,389.153 			"/>
			<path style="fill-rule:evenodd;clip-rule:evenodd;fill:#462C46;" d="M565.186,428.396c0.003-0.082,1.003-27.888,0.641-49.504
				l-3.146,2.815l-0.651-0.727l4.382-4.792l3.617,5.067l-0.792,0.57l-2.442-3.363c0.382,21.706-0.631,49.886-0.634,49.968
				L565.186,428.396z"/>
		</g>
		<g>
			<path style="fill-rule:evenodd;clip-rule:evenodd;fill:#462C46;" d="M81.938,445.021c1.103-0.027,318.982-7.882,474.994-1.28
				l-0.118,1.462c-155.869-6.59-473.704,1.264-474.808,1.29L81.938,445.021L81.938,445.021z M567.951,444.249
				c26.726,1.321,47.826,3.129,60.396,5.562l-0.248,1.447c-12.541-2.427-33.6-4.231-60.281-5.549L567.951,444.249z"/>
			<path style="fill-rule:evenodd;clip-rule:evenodd;fill:#462C46;" d="M263.62,442.574c0,0-0.703-14.063,5.391-15.391
				c6.094-1.328-2.342,15.928-2.342,15.928L263.62,442.574z"/>
			<path style="fill-rule:evenodd;clip-rule:evenodd;fill:#462C46;" d="M111.145,445.138c0,0,7.865-18.658-0.807-19.049
				c-8.672-0.39-2.266,15.938-2.266,15.938s-6.485-5.391-8.828-2.578s8.286,5.591,8.286,5.591L111.145,445.138z"/>
			<path style="fill-rule:evenodd;clip-rule:evenodd;fill:#462C46;" d="M593.034,446.247c0,0,11.523-14.258,7.891-19.023
				c-3.633-4.766-9.336,15.82-9.336,15.82s0.586-12.539-3.516-11.602c-4.101,0.938,3.399,15,3.399,15L593.034,446.247
				L593.034,446.247z M599.926,447.031c0,0,12.578-15.938,16.406-13.125C620.16,436.719,608.989,444.219,599.926,447.031z"/>
		</g>
		<g>
			<path style="fill-rule:evenodd;clip-rule:evenodd;fill:#8F9DFB;" d="M629.625,426.054c4.733,0,8.594-3.861,8.594-8.594
				c0-4.733-3.861-8.594-8.594-8.594s-8.594,3.861-8.594,8.594C621.031,422.193,624.892,426.054,629.625,426.054z"/>
			<path style="fill-rule:evenodd;clip-rule:evenodd;fill:#8F9DFB;" d="M662.594,389.178c2.237,0,4.062-1.825,4.062-4.062
				s-1.825-4.062-4.062-4.062c-2.238,0-4.063,1.825-4.063,4.062S660.356,389.178,662.594,389.178z"/>
			<path style="fill-rule:evenodd;clip-rule:evenodd;fill:#8F9DFB;" d="M55.408,150.429c1.721,0,3.125-1.404,3.125-3.125
				c0-1.721-1.404-3.125-3.125-3.125c-1.721,0-3.125,1.404-3.125,3.125C52.283,149.025,53.687,150.429,55.408,150.429z"/>
		</g>
	</g>
	<g>
		<path style="fill-rule:evenodd;clip-rule:evenodd;fill:#462C46;" d="M102.723,298.212c-0.517-1.505-2.827-7.824-8.178-17.177
			c-0.068-0.119-0.065-0.257,0.009-0.372c2.487-3.893,7.561-18.457-0.612-17.912c-5.19,0.346-3.93,7.093-2.158,12.303
			c0.059,0.173-0.02,0.361-0.186,0.44c-0.165,0.079-0.361,0.022-0.459-0.133c-6.591-10.5-16.496-23.723-30.988-37.866
			c-0.048-0.047-0.079-0.099-0.096-0.164c-1.111-4.129-5.528-18.418-12.034-12.209c-6.95,6.633,6.087,11.464,11.165,12.968
			c0.058,0.017,0.104,0.045,0.148,0.087c2.818,2.748,5.463,5.46,7.942,8.124c0.127,0.136,0.129,0.344,0.006,0.483
			c-0.124,0.139-0.331,0.161-0.481,0.051c-4.726-3.462-12.457-8.023-13.918-2.1c-2.085,8.449,13.301,6.606,17.362,5.155
			c0.141-0.05,0.29-0.012,0.389,0.099c3.698,4.156,6.992,8.174,9.917,12c0.11,0.143,0.097,0.343-0.03,0.471
			c-0.127,0.128-0.327,0.143-0.471,0.034c-4.626-3.489-13.056-8.811-14.588-2.599c-2.048,8.298,12.761,6.668,17.135,5.233
			c0.15-0.049,0.308,0.001,0.402,0.129c4.596,6.277,8.173,11.962,10.915,16.797c0.086,0.151,0.053,0.337-0.079,0.45
			c-0.132,0.113-0.321,0.116-0.457,0.009c-4.173-3.311-14.109-10.324-15.787-3.526c-2.055,8.327,12.867,6.656,17.182,5.217
			c0.167-0.055,0.345,0.015,0.429,0.17c4.19,7.71,6.065,12.855,6.517,14.174c0.064,0.185,0.265,0.285,0.451,0.225l0.324-0.105
			c0.095-0.031,0.166-0.092,0.21-0.181C102.749,298.399,102.756,298.306,102.723,298.212L102.723,298.212z M81.861,261.431
			c-1.419-3.038-7.646-17.265-0.047-17.771c8.101-0.54,3.187,13.765,0.678,17.808c-0.071,0.115-0.191,0.177-0.326,0.169
			C82.031,261.629,81.919,261.553,81.861,261.431L81.861,261.431z M69.283,246.27c-1.419-3.038-7.646-17.265-0.047-17.771
			c8.101-0.54,3.187,13.765,0.678,17.808c-0.071,0.115-0.191,0.177-0.326,0.169C69.453,246.469,69.341,246.393,69.283,246.27z"/>
		<g>
			<path style="fill-rule:evenodd;clip-rule:evenodd;fill:#462C46;" d="M236.038,376.946l22.041,24.022
				c0,0-2.978,25.666-8.603,42.541H117.289c0,0-4.467-22.501,8.079-50.001C138.852,372.258,236.038,376.946,236.038,376.946z"/>
			<path style="fill-rule:evenodd;clip-rule:evenodd;fill:#794788;" d="M181.906,443.509H137.39
				c-1.556-17.68,0.89-32.568,15.464-26.508C166.198,422.551,175.556,433.154,181.906,443.509z"/>
			<path style="fill-rule:evenodd;clip-rule:evenodd;fill:#2B2235;" d="M236.038,376.946c7.141,6.061,11.021,12.011,22.041,24.022
				c0,0-34.944,65.46-132.711-7.459C138.852,372.258,236.038,376.946,236.038,376.946z"/>
		</g>
		<g>
			<path style="fill-rule:evenodd;clip-rule:evenodd;fill:#462C46;" d="M217.038,125.051c0,0,10.879-33.294,4.508-50.813
				c-6.371-17.519-18.405-16.103-23.536-10.618c0,0-7.078-15.396-17.519-14.864c-63.691,3.238-91.112,55.843-90.646,104.572
				c-4.409,39.203,4.856,79.336,21.177,64.243c6.506,7.59,14.425,13.34,23.636,16.465
				C213.936,260.934,273.042,189.441,217.038,125.051L217.038,125.051z M89.939,157.163c0.925,23.283,8.226,45.349,20.989,60.303
				C88.45,238.739,84.289,197.391,89.939,157.163z"/>
			<path style="fill-rule:evenodd;clip-rule:evenodd;fill:#2B2235;" d="M217.765,222.903c4.115,5.46,12.144,6.17,21.91-9.745
				c19.68-32.072-21.113-84.932-21.113-84.932c42.392,45.834,25.175,84.932,10.355,89.514c-2.676,0.827-4.686,0.905-6.188,0.481
				c1.998-2.099,3.836-4.32,5.498-6.652c7.003-21.179,4.143-49.903-11.407-81.334c-35.575-71.91-59.638,31.527-85.109,10.744
				l-9.297,4.922l-0.063,0.199c-2.244-3.6-5.432-6.95-9.869-9.668l-5.188,4.386C84.609,229.357,163.773,268.593,217.765,222.903z"/>
		</g>
		<g>
			<path style="fill-rule:evenodd;clip-rule:evenodd;fill:#FFFFFF;" d="M204.797,238.822l24.772,1.543c0,0,8.994-1.45,26.215,37.566
				c17.22,39.016,25.767,59.641,25.767,59.641s-17.28,18.126-36.03,18.126S204.797,238.822,204.797,238.822z"/>
			<g>
				<path style="fill-rule:evenodd;clip-rule:evenodd;fill:#ECB55A;" d="M172.087,215.837c5.285-2.831,3.274-8.149,8.288-11.108
					l4.489-1.68c6.148,0.77,13.505,2.601,22.967,8.595l-2.232,10.821c10.457,7.55,20.703,20.394,26.614,20.27
					c3.019-0.063,6.085,4.834,10.239,18.208c6.248,9.805,38.35,33.003,11.623,50.427c-3.605,15.952-8.815,55.938,4.005,89.596
					c-29.143,27.892-83.091,15.041-132.711-7.459l7.786-46.718c0,0-26.898-76.448-26.898-97.683
					c0-21.236,36.751-37.383,36.751-37.383L172.087,215.837z"/>
				<path style="fill-rule:evenodd;clip-rule:evenodd;fill:#D2774D;" d="M252.378,367.72c-0.045,10.523,1.224,21.494,5.701,33.248
					c-29.143,27.892-83.091,15.041-132.711-7.459l7.786-46.718l0-0.002l-0.002-0.006l-0.003-0.009l-0.005-0.013l-0.006-0.017
					l-0.003-0.008l-0.004-0.012l-0.008-0.025l-0.01-0.028l-0.011-0.032l-0.012-0.035l-0.011-0.033l-0.002-0.007l-0.015-0.043
					l-0.016-0.046l-0.017-0.05l-0.019-0.053l-0.02-0.057l-0.005-0.015l-0.016-0.045l-0.022-0.064l-0.023-0.067l-0.025-0.071
					l-0.026-0.074l-0.018-0.052l-0.009-0.026l-0.028-0.081l-0.029-0.085l-0.031-0.088l-0.031-0.091l-0.033-0.094l-0.003-0.009
					l-0.031-0.089l-0.035-0.101l-0.036-0.104l-0.037-0.107l-0.038-0.111l-0.02-0.058l-0.019-0.056l-0.041-0.117l-0.042-0.12
					l-0.042-0.123l-0.044-0.127l-0.042-0.121l-0.003-0.008l-0.046-0.133l-0.047-0.136l-0.048-0.139l-0.049-0.142l-0.05-0.145
					l-0.018-0.053l-0.033-0.095l-0.052-0.151l-0.053-0.154l-0.054-0.157l-0.055-0.16l-0.044-0.127l-0.012-0.036l-0.057-0.165
					l-0.058-0.168l-0.059-0.171l-0.06-0.174l-0.061-0.177l-0.013-0.037l-0.049-0.143l-0.062-0.182l-0.063-0.185l-0.064-0.188
					l-0.065-0.19l-0.042-0.121l-0.025-0.072l-0.067-0.196l-0.068-0.198l-0.069-0.201l-0.069-0.204
					c4.806-1.78,10.576-3.211,17.553-4.171c7.966,67.743,92.139,73.266,95.749,9.306c3.046,29.313-4.363,42.732-14.237,48.333
					C244.561,389.151,251.102,381.333,252.378,367.72z"/>
				<path style="fill-rule:evenodd;clip-rule:evenodd;fill:#D2774D;" d="M251.586,325.714
					c-17.112-3.292-25.254-11.609-25.254-11.609c8.286,1.853,22.747-1.808,27.743-2.733
					C253.25,315.017,252.343,319.92,251.586,325.714z"/>
				<path style="fill-rule:evenodd;clip-rule:evenodd;fill:#D2774D;" d="M130.532,339.184c-4.339-12.742-13.104-39.164-18.83-60.996
					c0.168,0.445,29.031,57.821,87.908,38.729C199.611,316.917,162.527,355.272,130.532,339.184z"/>
			</g>
			<path style="fill-rule:evenodd;clip-rule:evenodd;fill:#FFFFFF;" d="M118.608,236.725c-16.708-9.934-44.399,78.466-49.982,97.656
				c-5.583,19.19,29.111,29.558,35.17,21.011C117.822,335.605,140.236,249.584,118.608,236.725z"/>
			<g>
				<path style="fill-rule:evenodd;clip-rule:evenodd;fill:#FFFFFF;" d="M190.625,245.006c2.114,0.499,3.828,2.616,3.828,4.731
					s-1.714,3.424-3.828,2.926c-2.114-0.498-3.828-2.617-3.828-4.731C186.797,245.817,188.511,244.508,190.625,245.006z"/>
				<path style="fill-rule:evenodd;clip-rule:evenodd;fill:#FFFFFF;" d="M196.797,259.82c2.114,0.498,3.828,2.617,3.828,4.731
					c0,2.114-1.714,3.424-3.828,2.926c-2.114-0.499-3.828-2.617-3.828-4.731C192.968,260.632,194.683,259.322,196.797,259.82z"/>
			</g>
		</g>
		<g>
			<g>
				<path style="fill-rule:evenodd;clip-rule:evenodd;fill:#E79A6D;" d="M250.47,327.323c0,0,6.384-18.995,21.776-46.253
					c15.392-27.258,20.503-42.712,20.503-42.712l19.319,5.176c0,0-13.907,65.184-22.949,84.438
					C280.077,347.227,243.238,365.179,250.47,327.323z"/>
				<path style="fill-rule:evenodd;clip-rule:evenodd;fill:#C65A45;" d="M250.47,327.323c0,0,2.911-8.661,9.54-22.676
					c-2.307,15.843-1.02,32.077,17.209,22.644c6.349-3.285,11.489-6.286,15.657-8.989c-1.307,3.842-2.574,7.152-3.757,9.671
					C280.077,347.227,243.238,365.179,250.47,327.323z"/>
			</g>
			<g>
				<path style="fill-rule:evenodd;clip-rule:evenodd;fill:#E79A6D;" d="M295.43,240.7l-2.682-2.341c0,0,3.775-19.221,8.775-25.784
					c5-6.563,9.062-13.125,10.313-16.875c1.25-3.75,8.913,2.058,5,11.094s-7.812,17.5-7.344,23.125
					C309.961,235.543,295.43,240.7,295.43,240.7z"/>
				<path style="fill-rule:evenodd;clip-rule:evenodd;fill:#E79A6D;" d="M291.521,247.105l1.227-8.746
					c0,0,5.243-18.812,20.243-22.562s20.168-4.469,20.168-4.469l14.96,23.255l-36.052,8.952L291.521,247.105z"/>
				<path style="fill-rule:evenodd;clip-rule:evenodd;fill:#E79A6D;" d="M328.908,220.882l2.16-4.856l2.091-4.699
					c2.903-0.697,11.897-1.434,20.122-2.516c8.22-1.082,12.845,4.618,9.034,5.259l-27.47,4.624L328.908,220.882z"/>
				<path style="fill-rule:evenodd;clip-rule:evenodd;fill:#E79A6D;" d="M335.706,222.054l1.001-3.896c0,0,19.78-4.698,29.233-5.088
					c0,0,5.312,0.078,6.328,2.5c1.016,2.422-0.703,3.047-0.703,3.047l-32.156,4.742L335.706,222.054z"/>
				<path style="fill-rule:evenodd;clip-rule:evenodd;fill:#E79A6D;" d="M337.424,225.335l1.433-2.171c0,0,17.865-1.424,21.849-0.72
					c4.88,0.861,6.489,3.827-0.547,4.766c0,0,2.109,1.953-0.625,3.672c-2.734,1.719-14.009,4.345-14.009,4.345L337.424,225.335z"/>
			</g>
		</g>
		<g>
			<g>
				<path style="fill-rule:evenodd;clip-rule:evenodd;fill:#E79A6D;" d="M134.513,166.775c0,0,6.017,23.714,8.494,44.949
					c0,0,10.318,32.523,36.659,27.41c0.296-0.057,0.584-0.122,0.864-0.191c4.861-14.02,4.334-35.891,4.334-35.891l0-0.003
					l0.001,0.001c-5.088-13.664-12.303-25.945-12.303-25.945S167.428,161.466,134.513,166.775z"/>
				<path style="fill-rule:evenodd;clip-rule:evenodd;fill:#C65A45;" d="M134.513,166.775c0,0,4.655,7.915,6.405,16.139
					c0,0,23.376,27.997,39.107,31.144c1.777,7.54,2.484,18.388,0.505,24.884c2.545-7.73,3.544-15.882,4.038-23.978l0.295-11.916
					l0.001,0.001c-1.261-3.384-2.651-6.684-4.031-9.733l-0.001,0.001c-4.189-9.262-8.272-16.212-8.272-16.212
					S167.428,161.466,134.513,166.775z"/>
			</g>
			<g>
				<path style="fill-rule:evenodd;clip-rule:evenodd;fill:#E79A6D;" d="M217.882,97.076c0,0-0.354,17.254-1.062,33.159
					c0,0,5.027,22.142,3.965,30.039c-1.062,7.897-17.945,39.65-36.703,39.769c-27.184,0.173-47.857-11.988-56.231-43.167
					c-27.421-4.441-22.53-34.703-18.978-35.343c7.093-1.279,15.037,7.918,18.018,13.125c1.294-21.28,2.509-34.062,2.509-34.062
					C139.312,87.001,184.189,72.073,217.882,97.076z"/>
				<path style="fill-rule:evenodd;clip-rule:evenodd;fill:#C65A45;" d="M217.882,97.076c0,0-0.223,10.888-0.67,23.337
					c-0.712-5.721-3.169-18.343-11.541-30.533C209.845,91.778,213.941,94.151,217.882,97.076L217.882,97.076z M126.892,134.658
					c1.294-21.28,2.509-34.062,2.509-34.062c6.892-9.454,30.695-19.549,55.887-16.414c-0.107,0.195-29.13,52.946-53.508,33.611
					L126.892,134.658z"/>
				<g>
					<path style="fill-rule:evenodd;clip-rule:evenodd;fill:#C65A45;" d="M199.965,146.117c0.567-0.072-0.788,10.393-14.384,2.123
						C188.772,160.374,200.773,158.807,199.965,146.117z"/>
					<g>
						<path style="fill-rule:evenodd;clip-rule:evenodd;fill:#462C46;" d="M174.84,118.957c0,0-17.146-2.077-28.101,1.084
							c0,0,7.811-10.734,23.433-9.992C170.172,110.049,171.506,109.495,174.84,118.957z"/>
						<path style="fill-rule:evenodd;clip-rule:evenodd;fill:#462C46;" d="M192.063,118.957c0,0,14.873-2.077,24.375,1.084
							c0,0-6.775-10.734-20.326-9.992C196.112,110.049,194.955,109.495,192.063,118.957z"/>
						<g>
							<path style="fill-rule:evenodd;clip-rule:evenodd;fill:#FFFFFF;" d="M166.579,124.421c0,0-11.106,0.834-15.902,10.636h23.306
								C173.197,130.192,171.916,126.474,166.579,124.421z"/>
							<path style="fill-rule:evenodd;clip-rule:evenodd;fill:#8F9DFB;" d="M159.951,135.057h8.993
								c0.868-1.026,1.392-2.352,1.392-3.802c0-3.252-2.637-5.889-5.889-5.889c-3.252,0-5.889,2.637-5.889,5.889
								C158.558,132.704,159.082,134.031,159.951,135.057z"/>
							<path style="fill-rule:evenodd;clip-rule:evenodd;fill:#462C46;" d="M161.856,135.057h5.235
								c1.297-0.853,2.153-2.32,2.153-3.988c0-2.634-2.136-4.77-4.77-4.77s-4.77,2.136-4.77,4.77
								C159.703,132.736,160.559,134.204,161.856,135.057z"/>
							<path style="fill-rule:evenodd;clip-rule:evenodd;fill:#462C46;" d="M173.982,135.057c0.28-15.922-20.648-12.783-23.306,0
								C154.578,127.236,165.793,121.424,173.982,135.057z"/>
							<path style="fill-rule:evenodd;clip-rule:evenodd;fill:#FFFFFF;" d="M159.338,131.643c1.664,0,3.022-0.738,3.022-1.644
								c0-0.906-1.358-1.644-3.022-1.644c-1.665,0-3.022,0.739-3.022,1.644C156.316,130.904,157.674,131.643,159.338,131.643z"/>
						</g>
						<g>
							<path style="fill-rule:evenodd;clip-rule:evenodd;fill:#FFFFFF;" d="M204.75,124.421c0,0-10.125,0.834-14.068,10.636h21.327
								C211.07,130.192,209.727,126.474,204.75,124.421z"/>
							<path style="fill-rule:evenodd;clip-rule:evenodd;fill:#8F9DFB;" d="M199.169,135.057h8.229
								c0.748-1.026,1.167-2.352,1.101-3.802c-0.148-3.252-2.681-5.889-5.657-5.889c-2.976,0-5.268,2.637-5.12,5.889
								C197.788,132.704,198.328,134.031,199.169,135.057z"/>
							<path style="fill-rule:evenodd;clip-rule:evenodd;fill:#462C46;" d="M200.912,135.057h4.79
								c1.148-0.853,1.864-2.32,1.788-3.988c-0.12-2.634-2.172-4.77-4.583-4.77c-2.411,0-4.268,2.136-4.148,4.77
								C198.837,132.736,199.687,134.204,200.912,135.057z"/>
							<path style="fill-rule:evenodd;clip-rule:evenodd;fill:#462C46;" d="M212.01,135.057c-0.469-15.922-19.478-12.783-21.327,0
								C193.896,127.236,203.894,121.424,212.01,135.057z"/>
							<path style="fill-rule:evenodd;clip-rule:evenodd;fill:#FFFFFF;" d="M198.303,128.355c1.527,0,2.799,0.736,2.841,1.644
								c0.041,0.908-1.163,1.644-2.691,1.644c-1.527,0-2.799-0.736-2.841-1.644C195.571,129.091,196.776,128.355,198.303,128.355z"
								/>
						</g>
					</g>
					<g>
						<path style="fill-rule:evenodd;clip-rule:evenodd;fill:#C65A45;" d="M203.878,166.108c0,0-25.847-1.988-34.794,0.994
							c0,0-0.039,15.574,16.032,14.994C201.188,181.516,203.134,171.41,203.878,166.108z"/>
						<path style="fill-rule:evenodd;clip-rule:evenodd;fill:#AC4836;" d="M172.561,177.105c2.31,2.89,6.154,5.222,12.555,4.991
							c1.758-0.063,3.346-0.241,4.783-0.513C187.558,177.992,182.474,173.476,172.561,177.105z"/>
						<path style="fill-rule:evenodd;clip-rule:evenodd;fill:#FFFFFF;" d="M201.483,165.947c-5.549-0.341-19.473-1.007-28.114,0.225
							c0.536,1.838-0.127,1.779,2.841,4.409C180.009,173.948,198.936,174.308,201.483,165.947z"/>
						<path style="fill-rule:evenodd;clip-rule:evenodd;fill:#C65A45;" d="M174.312,184.252c0,0,4.473,3.065,13.255,1.574
							C187.567,185.826,177.708,193.53,174.312,184.252z"/>
					</g>
				</g>
				<g>
					<path style="fill-rule:evenodd;clip-rule:evenodd;fill:#C65A45;" d="M127.852,156.876
						c-18.296-2.963-22.855-17.414-21.729-26.899c5.452-0.411,18.237,13.499,18.237,13.499s-4.867-2.655-3.628,3.451
						c1.239,6.105,5.309,5.663,5.309,5.663L127.852,156.876z"/>
					<path style="fill-rule:evenodd;clip-rule:evenodd;fill:#462C46;" d="M124.36,143.476c0,0-9.663-17.756-17.804-11.651
						C106.556,131.825,118.855,133.152,124.36,143.476z"/>
					<path style="fill-rule:evenodd;clip-rule:evenodd;fill:#462C46;" d="M124.965,144.551c-6.304-5.812-5.926,6.726,0.532,8.065
						C114.393,150.28,119.182,135.047,124.965,144.551z"/>
				</g>
			</g>
			<g>
				<path style="fill-rule:evenodd;clip-rule:evenodd;fill:#ECB55A;" d="M141.312,217.386l-1.094-12.031
					c0,0,9.063,3.125,24.688,2.344l15.624,31.244C160.998,245.192,146.057,237.271,141.312,217.386z"/>
				<path style="fill-rule:evenodd;clip-rule:evenodd;fill:#D2774D;" d="M169.747,235.024c0,0-11.406-6.25-22.5-17.187
					C147.247,217.837,147.326,230.901,169.747,235.024z"/>
			</g>
			<g>
				<path style="fill-rule:evenodd;clip-rule:evenodd;fill:#462C46;" d="M188.308,77.054c0,0-1.146,3.676-3.896,8.815
					c-3.37,14.055-14.212,39.726-47.888,31.844c-2.703,0.144-5.534,0.121-8.498-0.096l-2.717-30.3l50.611-23.359l47.625,24.43
					l-6.106,25.269c0,0-1.808-14.887-15.212-27.287C198.535,82.956,193.964,79.729,188.308,77.054L188.308,77.054z M183.721,87.135
					c-6.201,11.04-19.376,27.549-43.58,30.28C168.977,119.59,179.787,99.693,183.721,87.135z"/>
				<path style="fill-rule:evenodd;clip-rule:evenodd;fill:#462C46;" d="M200.294,82.88c0,0,19.57,29.366,9.379,38.401
					C209.673,121.281,225.246,116.679,200.294,82.88z"/>
				<path style="fill-rule:evenodd;clip-rule:evenodd;fill:#794788;" d="M223.079,80.664c-2.456,10.499-28.383-12.61-28.383-12.61
					C200.996,82.157,224.266,111.101,223.079,80.664L223.079,80.664z M126.325,68.235c0.522,4.576,5.179,6.436,20.117-1.467
					c-2.125,6.297-1.941,14.325,6.102,13.243c4.871-0.655,11.02-4.115,15.149-6.68c1.678,7.228,6.828,13.042,14.896,7.788
					c4.632-3.016,9.102-8.764,12.107-13.063c-1.954,6.56-5.934,11.218-9.74,14.365c-13.854,12.906-39.162,23.478-40.992,3.342
					c-3.272,4.631-13.887,3.012-7.237-3.216C123.388,90.44,100.084,89.278,126.325,68.235z"/>
				<path style="fill-rule:evenodd;clip-rule:evenodd;fill:#2B2235;" d="M171.601,97.805c0,0-29.687,22.969-66.563,10.625
					C105.038,108.43,120.135,126.293,171.601,97.805z"/>
			</g>
		</g>
		<g>
			<path style="fill-rule:evenodd;clip-rule:evenodd;fill:#C65A45;" d="M226.003,343.324c0,0,0.225,0.024,0.6,0.074
				c1.685,0.227,6.394,0.996,7.339,2.609c1.155,1.973-3.025,5.387-6.281,4.889C224.405,350.399,223.821,345.754,226.003,343.324z"/>
			<g>
				<path style="fill-rule:evenodd;clip-rule:evenodd;fill:#FFFFFF;" d="M219.136,335.027l-5.472-5.885c0,0-2.344-0.112-3.471,0.865
					c-1.127,0.977-0.374,2.418-0.374,2.418l6.233,7.012C216.053,339.437,219.757,336.848,219.136,335.027z"/>
				<path style="fill-rule:evenodd;clip-rule:evenodd;fill:#462C46;" d="M212.634,337.816l31.719,33.906l5.312-4.844l-27.667-30.419
					l1.346-0.635c0,0,2.305,2.324,5.508,5.762c3.203,3.438,6.484,4.258,3.222,0.879c-3.262-3.379-7.715-8.047-8.34-8.594
					c-0.397-0.346-1.833,0.629-2.829,1.387l-1.084-1.192C219.822,334.066,216.41,331.729,212.634,337.816z"/>
				<path style="fill-rule:evenodd;clip-rule:evenodd;fill:#FFFFFF;" d="M249.665,366.879l2.686,5.952
					c0.217,0.48,0.121,1.017-0.249,1.392c-0.37,0.375-0.905,0.478-1.388,0.268c-2.12-0.922-4.24-1.845-6.36-2.768
					C242.121,369.336,247.11,364.069,249.665,366.879z"/>
			</g>
			<g>
				<path style="fill-rule:evenodd;clip-rule:evenodd;fill:#E79A6D;" d="M90.421,326.947c0,0,20,1.25,50.313,9.063
					s46.563,8.75,46.563,8.75v20c0,0-66.563,3.438-87.5-0.312C78.859,360.697,51.984,329.759,90.421,326.947z"/>
				<path style="fill-rule:evenodd;clip-rule:evenodd;fill:#C65A45;" d="M90.421,326.947c0,0,7.523,0.819,11.285,1.246
					c-8.858,2.334-16.387,5.414-16.536,15.73c-0.149,10.317,8.072,17.586,14.792,20.552l-0.166-0.028
					C78.859,360.697,51.984,329.759,90.421,326.947z"/>
				<path style="fill-rule:evenodd;clip-rule:evenodd;fill:#E79A6D;" d="M213.622,346.723l2.968-5.313c0,0,8.351,4.438,21.726,7.512
					c1.445,0.274,3.1,2.64-1.347,3.892C232.523,354.067,218.857,350.785,213.622,346.723z"/>
				<path style="fill-rule:evenodd;clip-rule:evenodd;fill:#E79A6D;" d="M218.935,348.598c0,0,17.465,4.212,22.615,5.187
					c0,0,1.284,2.689-0.708,3.392c-1.992,0.703-14.647-0.357-22.766-4.829C211.791,346.569,216.888,348.14,218.935,348.598z"/>
				<path style="fill-rule:evenodd;clip-rule:evenodd;fill:#C65A45;" d="M217.763,356.02l3.779-2.691c0,0,8.482,4.24,11.348,5.732
					c2.865,1.492,1.324,3.732-1.528,3.809c0,0-0.156,2.422-3.515,2.735c-3.359,0.312-8.678,0.65-8.678,0.65L217.763,356.02z"/>
				<path style="fill-rule:evenodd;clip-rule:evenodd;fill:#E79A6D;" d="M179.559,353.754l7.738-8.995
					c0,0,20.544-2.255,29.293-3.349c0,0,5.468,10.469,7.187,20.625c1.719,10.156-35.615,2.681-36.481,2.724
					C186.431,364.802,179.559,353.754,179.559,353.754z"/>
				<path style="fill-rule:evenodd;clip-rule:evenodd;fill:#FFFFFF;" d="M181.099,344.417c-0.058-0.009-20.004-3.196-49.531-10.348
					c-14.742-3.571-28.823-6.488-39.949-7.01c-11.033-0.517-19.139,1.315-22.045,7.204l-0.529-0.26
					c3.031-6.142,11.332-8.06,22.599-7.532c11.174,0.523,25.289,3.447,40.062,7.025c29.504,7.147,49.429,10.33,49.487,10.339
					L181.099,344.417z"/>
			</g>
		</g>
		<g>
			<path style="fill-rule:evenodd;clip-rule:evenodd;fill:#462C46;" d="M252.199,80.94c0,0,14.375-29.375,24.375-20.313
				C286.574,69.69,268.762,78.44,252.199,80.94z"/>
			<path style="fill-rule:evenodd;clip-rule:evenodd;fill:#462C46;" d="M243.711,74.789c0,0,11.752-18.245,1.816-20.231
				C235.592,52.572,235.156,66.148,243.711,74.789z"/>
		</g>
	</g>
	<g>
		<g>
			<path style="fill-rule:evenodd;clip-rule:evenodd;fill:#462C46;" d="M456.533,292.206c0,0,8.458-13.422,12.977-5.373
				C474.03,294.881,456.533,292.206,456.533,292.206z"/>
			<path style="fill-rule:evenodd;clip-rule:evenodd;fill:#462C46;" d="M453.529,288.616c0,0,7.979-6.232,3.298-9.462
				C452.146,275.923,451.297,284.982,453.529,288.616z"/>
			<path style="fill-rule:evenodd;clip-rule:evenodd;fill:#462C46;" d="M328.886,291.286c0,0-9.063-12.344-12.031-5.312
				C313.886,293.005,328.886,291.286,328.886,291.286z"/>
			<path style="fill-rule:evenodd;clip-rule:evenodd;fill:#462C46;" d="M312.167,385.661c0,0-15.938,2.969-9.688,10.156
				C308.729,403.004,313.104,389.098,312.167,385.661z"/>
			<path style="fill-rule:evenodd;clip-rule:evenodd;fill:#462C46;" d="M454.354,385.816c0,0,18.125,4.063,9.688,12.188
				C455.605,406.129,454.354,385.816,454.354,385.816z"/>
		</g>
		<g>
			<g>
				
					<ellipse transform="matrix(0.7177 -0.6963 0.6963 0.7177 -132.237 371.0606)" style="fill-rule:evenodd;clip-rule:evenodd;fill:#2B2235;" cx="391.577" cy="348.642" rx="65.069" ry="61.239"/>
				<path style="fill-rule:evenodd;clip-rule:evenodd;fill:#462C46;" d="M395.407,285.517c34.863,0,61.41,28.262,59.295,63.125
					c-0.131,2.154-0.369,4.282-0.707,6.38c-0.392,9.29-12.128,13.333-10.23-3.943c-25.601-3.37-64.501-22.517-110.315-23.783
					C343.68,302.938,368.037,285.517,395.407,285.517z"/>
				
					<ellipse transform="matrix(0.7177 -0.6963 0.6963 0.7177 -128.9359 362.1656)" style="fill-rule:evenodd;clip-rule:evenodd;fill:#2B2235;" cx="382.253" cy="340.122" rx="65.069" ry="61.239"/>
			</g>
			<g>
				
					<ellipse transform="matrix(0.7178 -0.6963 0.6963 0.7178 -128.9362 362.1584)" style="fill-rule:evenodd;clip-rule:evenodd;fill:#ECB55A;" cx="382.253" cy="340.122" rx="58.628" ry="55.177"/>
				<path style="fill-rule:evenodd;clip-rule:evenodd;fill:#FFFFFF;" d="M439.203,338.512c-0.017,0.535-0.041,1.071-0.074,1.61
					c-1.868,30.791-27.859,55.864-58.472,56.843c-28.624-0.948-50.157-24.495-48.402-53.407c1.791-29.514,27.169-53.44,56.683-53.44
					C416.75,290.117,438.307,311.364,439.203,338.512z"/>
			</g>
			<g>
				<path style="fill-rule:evenodd;clip-rule:evenodd;fill:#462C46;" d="M373.451,391.008l0.963-6.702l2.918,0.415l-0.963,6.701
					L373.451,391.008L373.451,391.008z M433.139,348.924l-6.702-0.963l0.415-2.918l6.702,0.963L433.139,348.924L433.139,348.924z
					 M391.056,289.236l-0.963,6.702l-2.918-0.415l0.963-6.702L391.056,289.236L391.056,289.236z M331.367,331.319l6.702,0.963
					l-0.415,2.918l-6.702-0.963L331.367,331.319z"/>
				<path style="fill-rule:evenodd;clip-rule:evenodd;fill:#462C46;" d="M340.047,369.879l5.42-4.058l1.77,2.357l-5.42,4.058
					L340.047,369.879L340.047,369.879z M412.011,382.328l-4.058-5.42l2.357-1.77l4.058,5.42L412.011,382.328L412.011,382.328z
					 M424.46,310.364l-5.42,4.058l-1.77-2.357l5.42-4.058L424.46,310.364L424.46,310.364z M352.496,297.915l4.058,5.42l-2.357,1.77
					l-4.058-5.42L352.496,297.915z"/>
				<g>
					<path style="fill-rule:evenodd;clip-rule:evenodd;fill:#462C46;" d="M382.557,335.119c2.763,0,4.866,2.24,4.699,5.002
						s-2.543,5.002-5.306,5.002s-4.866-2.24-4.699-5.002C377.419,337.359,379.794,335.119,382.557,335.119z"/>
					<polygon style="fill-rule:evenodd;clip-rule:evenodd;fill:#462C46;" points="373.673,301.93 383.678,339.747 381.365,341.298 
						364.798,328.794 366.574,326.441 379.739,336.377 370.824,302.68 					"/>
					<path style="fill-rule:evenodd;clip-rule:evenodd;fill:#462C46;" d="M370.266,357.35c0.015,0.001,3.6,0.266,6.006-0.726
						c-0.635-0.412-0.914-0.929-0.955-1.462c-0.059-0.786,0.407-1.565,1.046-2.114c0.619-0.531,1.439-0.872,2.111-0.8
						c0.897,0.096,1.534,0.722,1.379,2.165c-0.066,0.614-0.258,1.144-0.543,1.602c0.783,0.041,1.78,0.025,3.037-0.071l12.344-0.938
						l0.11,1.47l-12.344,0.938c-1.891,0.144-3.325,0.075-4.394-0.134c-2.806,1.917-7.881,1.541-7.901,1.54L370.266,357.35
						L370.266,357.35z M377.643,355.767c0.407-0.399,0.679-0.894,0.745-1.509c0.041-0.384,0.001-0.537-0.07-0.544
						c-0.266-0.028-0.659,0.164-0.997,0.454c-0.318,0.273-0.554,0.609-0.533,0.885C376.809,355.325,377.053,355.583,377.643,355.767
						z"/>
				</g>
			</g>
			<path style="fill-rule:evenodd;clip-rule:evenodd;fill:#FFFFFF;" d="M383.272,274.002c1.297,0,2.592,0.04,3.879,0.118
				c15.908,0.965,29.866,7.837,39.846,18.46c9.981,10.623,15.983,24.995,15.983,40.96c0,1.283-0.04,2.584-0.119,3.9
				c-1.062,17.509-9.12,33.361-21.289,44.833c-12.169,11.473-28.451,18.57-45.96,18.57c-1.297,0-2.592-0.04-3.879-0.118
				c-15.908-0.965-29.866-7.838-39.846-18.46c-9.981-10.623-15.983-24.995-15.983-40.96c0-1.283,0.039-2.584,0.119-3.9
				c1.062-17.509,9.12-33.361,21.289-44.833C349.482,281.099,365.763,274.002,383.272,274.002L383.272,274.002z M387.116,274.708
				c-1.262-0.076-2.544-0.115-3.844-0.115c-17.354,0-33.492,7.035-45.556,18.408c-12.064,11.374-20.052,27.086-21.105,44.439
				c-0.078,1.29-0.117,2.58-0.117,3.865c0,15.81,5.942,30.04,15.822,40.556c9.88,10.516,23.7,17.32,39.451,18.275
				c1.262,0.077,2.544,0.116,3.844,0.116c17.354,0,33.493-7.035,45.556-18.408c12.064-11.374,20.052-27.086,21.105-44.439
				c0.078-1.29,0.117-2.58,0.117-3.865c0-15.81-5.943-30.04-15.822-40.556C416.687,282.468,402.868,275.664,387.116,274.708z"/>
		</g>
	</g>
</g>
</svg>
