<?xml version="1.0" encoding="utf-8"?>
<!-- Generator: Adobe Illustrator 27.5.0, SVG Export Plug-In . SVG Version: 6.00 Build 0)  -->
<svg version="1.1" xmlns="http://www.w3.org/2000/svg" xmlns:xlink="http://www.w3.org/1999/xlink" x="0px" y="0px"
	 viewBox="0 0 750 500" style="enable-background:new 0 0 750 500;" xml:space="preserve">
<g id="BACKGROUND">
	<rect y="0" style="fill:#FFFFFF;" width="750" height="500"/>
</g>
<g id="OBJECTS">
	<g style="opacity:0.6;">
		<path style="fill:#F9E6A7;" d="M602.714,134.14c-50.175-11.818-102.149,5.592-153.656,7.635
			c-51.298,2.035-104.343-12.388-143.242-45.891c-11.958-10.299-94.865-95.029-177.643-15.981
			c-55.865,53.348-28.645,99.18-40.527,132.763c-13.408,37.896-50.567,58.597-44.755,123.002
			c4.93,54.632,48.334,88.307,100.432,105.475c35.87,11.82,109.86,5.788,164.696,4.416c39.763-0.995,79.525,1.01,119.288,0.015
			c52.095-1.304,103.293,0.462,155.366-1.519c49.696-1.891,129.255-36.592,136.076-146.813
			C725.571,187.022,650.968,145.506,602.714,134.14z"/>
	</g>
	<g>
		<g>
			
				<rect x="84.239" y="253.252" transform="matrix(0.717 -0.6971 0.6971 0.717 -154.2971 136.7146)" style="fill:#FCFFFF;" width="13.969" height="10.264"/>
			<g>
				<path style="fill:#FCFFFF;" d="M96.187,250.882l-12.602,12.252c-1.272,1.237-3.307,1.208-4.544-0.064
					c-1.237-1.272-1.208-3.307,0.064-4.544l12.602-12.252c1.272-1.237,3.307-1.208,4.544,0.064S97.46,249.645,96.187,250.882z"/>
			</g>
			<g style="opacity:0.5;">
				<path style="fill:#3AB5A6;" d="M96.187,250.882l-12.602,12.252c-1.272,1.237-3.307,1.208-4.544-0.064
					c-1.237-1.272-1.208-3.307,0.064-4.544l12.602-12.252c1.272-1.237,3.307-1.208,4.544,0.064S97.46,249.645,96.187,250.882z"/>
			</g>
			<rect x="117.286" y="235.744" style="fill:#FCFFFF;" width="20.223" height="14.859"/>
			<circle style="fill:#FCFFFF;" cx="127.582" cy="294.54" r="46.952"/>
			<g>
				<path style="fill:#FFFFFF;" d="M127.583,344.806c-27.717,0-50.266-22.55-50.266-50.266s22.55-50.266,50.266-50.266
					s50.265,22.55,50.265,50.266S155.299,344.806,127.583,344.806z M127.583,250.901c-24.062,0-43.639,19.577-43.639,43.639
					s19.577,43.639,43.639,43.639s43.637-19.577,43.637-43.639S151.645,250.901,127.583,250.901z"/>
			</g>
			<g style="opacity:0.5;">
				<path style="fill:#3AB5A6;" d="M127.583,344.806c-27.717,0-50.266-22.55-50.266-50.266s22.55-50.266,50.266-50.266
					s50.265,22.55,50.265,50.266S155.299,344.806,127.583,344.806z M127.583,250.901c-24.062,0-43.639,19.577-43.639,43.639
					s19.577,43.639,43.639,43.639s43.637-19.577,43.637-43.639S151.645,250.901,127.583,250.901z"/>
			</g>
			<circle style="opacity:0.5;fill:#3AB5A6;" cx="127.734" cy="257.57" r="2.36"/>
			<circle style="opacity:0.5;fill:#3AB5A6;" cx="127.734" cy="331.052" r="2.36"/>
			<circle style="opacity:0.5;fill:#3AB5A6;" cx="164.475" cy="294.311" r="2.36"/>
			<circle style="opacity:0.5;fill:#3AB5A6;" cx="90.993" cy="294.311" r="2.36"/>
			<circle style="opacity:0.5;fill:#3AB5A6;" cx="159.726" cy="312.378" r="2.36"/>
			<circle style="opacity:0.5;fill:#3AB5A6;" cx="95.742" cy="276.244" r="2.36"/>
			<circle style="opacity:0.5;fill:#3AB5A6;" cx="146.415" cy="325.948" r="2.36"/>
			<circle style="opacity:0.5;fill:#3AB5A6;" cx="109.053" cy="262.673" r="2.36"/>
			<circle style="opacity:0.5;fill:#3AB5A6;" cx="145.755" cy="262.293" r="2.36"/>
			<circle style="opacity:0.5;fill:#3AB5A6;" cx="109.712" cy="326.329" r="2.36"/>
			<circle style="opacity:0.5;fill:#3AB5A6;" cx="159.345" cy="275.585" r="2.36"/>
			<circle style="opacity:0.5;fill:#3AB5A6;" cx="96.123" cy="313.037" r="2.36"/>
			<g>
				<path style="fill:#FCFFFF;" d="M140.12,240.395h-25.445c-2.569,0-4.652-2.083-4.652-4.652s2.083-4.652,4.652-4.652h25.445
					c2.569,0,4.652,2.083,4.652,4.652S142.689,240.395,140.12,240.395z"/>
			</g>
			<g style="opacity:0.5;">
				<path style="fill:#3AB5A6;" d="M140.12,240.395h-25.445c-2.569,0-4.652-2.083-4.652-4.652s2.083-4.652,4.652-4.652h25.445
					c2.569,0,4.652,2.083,4.652,4.652S142.689,240.395,140.12,240.395z"/>
			</g>
			<g style="opacity:0.5;">
				<path style="fill:#3AB5A6;" d="M116.009,305.097c-0.769,0-1.525-0.362-2-1.04c-0.774-1.103-0.506-2.625,0.597-3.399l9.762-6.845
					l-12.579-22.258c-0.663-1.173-0.249-2.662,0.924-3.325c1.173-0.663,2.662-0.25,3.325,0.924l13.669,24.185
					c0.618,1.093,0.305,2.477-0.723,3.199l-11.575,8.117C116.982,304.953,116.493,305.096,116.009,305.097z"/>
			</g>
		</g>
		<g>
			<circle style="fill:#FCC790;" cx="198.667" cy="124.014" r="18.084"/>
			<path style="fill:#FCC790;" d="M239.306,133.699l6.937-0.084l-0.246-20.348l-6.93,0.084c-1.138-4.306-2.952-8.338-5.314-11.985
				l4.748-5.082l-14.87-13.893l-4.742,5.075c-3.127-1.737-6.497-3.085-10.048-3.977v-6.931h-20.35v6.931
				c-4.067,1.022-7.901,2.637-11.399,4.755l-4.925-4.892l-14.341,14.438l4.929,4.896c-2.13,3.573-3.737,7.489-4.727,11.644
				l-6.937,0.084l0.246,20.348l6.931-0.084c1.138,4.306,2.952,8.338,5.314,11.985l-4.748,5.082l14.87,13.893l4.742-5.075
				c3.127,1.737,6.497,3.085,10.048,3.977v6.931h20.35v-6.931c4.067-1.022,7.9-2.637,11.399-4.755l4.926,4.893l14.341-14.438
				l-4.929-4.896C236.708,141.77,238.315,137.853,239.306,133.699z M166.255,124.013c0-17.871,14.54-32.411,32.411-32.411
				c17.872,0,32.412,14.54,32.412,32.411c0,17.872-14.54,32.412-32.412,32.412C180.795,156.426,166.255,141.886,166.255,124.013z"/>
		</g>
		<g>
			<circle style="fill:#FCC790;" cx="570.364" cy="182.119" r="14.325"/>
			<path style="fill:#FCC790;" d="M602.557,189.791l5.495-0.066l-0.195-16.119l-5.49,0.066c-0.901-3.411-2.339-6.605-4.21-9.494
				l3.761-4.025l-11.779-11.005l-3.756,4.02c-2.477-1.376-5.147-2.444-7.959-3.151v-5.491h-16.12v5.491
				c-3.222,0.809-6.259,2.089-9.03,3.767l-3.902-3.876l-11.36,11.437l3.904,3.878c-1.687,2.83-2.961,5.933-3.745,9.224l-5.496,0.066
				l0.195,16.119l5.49-0.066c0.901,3.411,2.338,6.605,4.21,9.494l-3.761,4.025l11.779,11.005l3.756-4.02
				c2.477,1.376,5.147,2.444,7.959,3.151v5.491h16.12v-5.491c3.222-0.809,6.258-2.089,9.03-3.767l3.902,3.876l11.36-11.437
				l-3.905-3.878C600.499,196.185,601.772,193.082,602.557,189.791z M544.689,182.119c0-14.157,11.518-25.675,25.675-25.675
				c14.158,0,25.676,11.518,25.676,25.675c0,14.158-11.518,25.676-25.676,25.676C556.207,207.795,544.689,196.277,544.689,182.119z"
				/>
		</g>
	</g>
	<g>
		<g>
			<g>
				<path style="fill:#EF7D65;" d="M344.586,64.632c1.296-4.938,4.744-7.084,8.31-7.838c2.134-1.658,9.18-5.943,17.727-2.899
					c8.547,3.044,10.538,14.787,11.706,20.218c1.453,6.755,11.301,12.79,10.04,16.738c-1.26,3.948-15.268,14.923-29.647,13.855
					c-14.379-1.068-21.093-10.445-21.093-10.445s8.519-8.654,8.083-14.677C349.277,73.561,342.691,71.85,344.586,64.632z"/>
				<path style="opacity:0.25;fill:#591320;" d="M372.833,70.841c-1.661-6.09-15.733-5.179-16.054-11.072
					c-1.23,3.689-4.368,4.854-6.643,7.197c-2.275,2.343-1.345,7.601,0.121,11.53c3.131,9.72,0.637,20.101-1.73,21.734
					c3.411,2.086,8.116,4.024,14.196,4.476c8.901,0.661,18.166-4.096,23.936-7.818C378.836,91.119,375.354,80.504,372.833,70.841z"
					/>
				<path style="fill:#FCC790;" d="M360.348,87.6c0,0,1.664,5.311-0.779,9.212c-0.316,0.505-2.926,1.05-3.126,1.621
					c-1.741,4.966,2.522,13.065,6.192,12.993c3.695-0.072,15.714-10.058,11.549-14.057c-0.449-0.431-2.698-1.194-3.008-1.755
					c-1.534-2.764-1.116-7.693-1.116-7.693L360.348,87.6z"/>
				<path style="opacity:0.2;fill:#812C3A;" d="M370.623,94.275c-0.863-2.77-0.563-6.354-0.563-6.354l-9.712-0.321
					c0,0,1.475,4.717-0.4,8.525C363.568,97.368,367.253,96.246,370.623,94.275z"/>
				<path style="fill:#FCC790;" d="M372.963,81.203c0.483,0.095,0.951,0.056,1.393-0.084c0.396-0.194,0.761-0.393,1.097-0.595
					c1.8-1.412,2.78-4.554,1.695-6.595c-1.522-2.862-4.847-1.685-5.208,0.657c-1.316-9.992-12.869-6.309-15.558-11.406
					c-2.828,5.895-7.848,4.206-6.944,12.65c-0.001,1.541,0.011,2.41,0.379,3.616c2.037,6.676,5.979,14.303,11.679,13.437
					c3.592-0.546,8.949-3.894,11.034-8.441C372.962,83.496,373.077,82.168,372.963,81.203z"/>
				<path style="opacity:0.2;fill:#812C3A;" d="M356.613,65.474c4.271,4.88,11.988,2.802,15.335,9.684
					c0.031-0.686-0.076-1.252-0.186-1.566c-1.937-8.748-12.786-5.494-15.38-10.412c-2.826,5.892-7.843,4.208-6.945,12.639
					C350.528,69.113,355.25,69.113,356.613,65.474z"/>
				<path style="opacity:0.2;fill:#812C3A;" d="M375.069,77.833c1.34-2.677-0.861-4.766-1.661-1.791
					C373.112,78.976,374.124,79.335,375.069,77.833z"/>
				<g>
					<path style="fill:#EF7D65;" d="M357.094,85.517c0,0,1.044-1.007,1.674-1.06c0.445-0.038,0.744,0.46,1.099,0.378
						c0.204-0.047,0.543-0.693,0.939-0.76c0.396-0.067,3.097,0.242,3.097,0.242s-0.694,2.756-3.463,3.224
						C357.671,88.009,357.094,85.517,357.094,85.517z"/>
					<path style="opacity:0.5;fill:#EF7D65;" d="M363.504,80.671c0.214,1.175,1.455,1.933,2.772,1.694
						c1.317-0.24,2.212-1.386,1.998-2.561c-0.214-1.175-1.455-1.933-2.772-1.694C364.185,78.349,363.29,79.496,363.504,80.671z"/>
					<path style="opacity:0.5;fill:#EF7D65;" d="M352.509,80.281c-0.919,0.167-1.623,0.78-1.897,1.532
						c0.305,0.832,0.639,1.66,1.001,2.47c0.481,0.255,1.065,0.363,1.67,0.253c1.317-0.24,2.212-1.386,1.998-2.561
						C355.067,80.8,353.826,80.042,352.509,80.281z"/>
					<g>
						<g>
							
								<ellipse transform="matrix(0.9823 -0.1873 0.1873 0.9823 -8.3059 67.4669)" style="fill:#812C3A;" cx="352.896" cy="77.69" rx="1.199" ry="1.52"/>
							
								<ellipse transform="matrix(0.9823 -0.1873 0.1873 0.9823 -7.6812 69.6183)" style="fill:#812C3A;" cx="364.593" cy="75.46" rx="1.199" ry="1.52"/>
							<path style="fill:#812C3A;" d="M351.856,77.284c-0.663,0.056-1.087-0.424-1.302-0.215c-0.214,0.209,0.934,1.084,1.464,1.067
								C352.549,78.12,351.856,77.284,351.856,77.284z"/>
							<path style="fill:#812C3A;" d="M365.349,74.712c0.637-0.192,0.855-0.795,1.131-0.679c0.276,0.116-0.47,1.352-0.969,1.531
								C365.013,75.743,365.349,74.712,365.349,74.712z"/>
						</g>
					</g>
					<g>
						<path style="opacity:0.4;fill:#812C3A;" d="M359.047,82.387c0.172-0.056,0.338-0.137,0.491-0.243
							c0.09-0.061,0.113-0.184,0.051-0.273c-0.061-0.09-0.184-0.113-0.273-0.051c-0.488,0.335-1.049,0.313-1.387,0.142
							c-0.157-0.078-0.421-0.266-0.434-0.635c-0.011-0.291,0.189-0.841,0.401-1.422c0.4-1.099,0.854-2.344,0.428-3.1
							c-0.054-0.095-0.177-0.126-0.268-0.075c-0.095,0.053-0.129,0.173-0.075,0.268c0.337,0.598-0.102,1.804-0.455,2.773
							c-0.235,0.646-0.438,1.203-0.424,1.572c0.015,0.417,0.252,0.772,0.65,0.972C358.139,82.509,358.61,82.529,359.047,82.387z"/>
					</g>
					<g>
						<path style="opacity:0.4;fill:#812C3A;" d="M360.372,85.884c1.625-0.251,3.234-0.891,4.329-1.847
							c0.097-0.085,0.107-0.232,0.022-0.33c-0.086-0.097-0.233-0.105-0.33-0.022c-2.087,1.824-6.328,2.434-8.403,1.209
							c-0.112-0.065-0.255-0.029-0.32,0.082c-0.065,0.111-0.028,0.254,0.082,0.32C356.917,85.982,358.653,86.15,360.372,85.884z"/>
					</g>
					<g>
						<path style="fill:#EF7D65;" d="M354.941,71.397c-0.052-0.132-0.152-0.235-0.282-0.291c-1.637-0.712-3.409-0.396-5.268,0.936
							c-0.237,0.17-0.292,0.501-0.122,0.739c0.118,0.164,0.314,0.246,0.513,0.214c0.079-0.013,0.157-0.044,0.225-0.092
							c1.556-1.115,2.94-1.385,4.229-0.826c0.13,0.057,0.273,0.06,0.405,0.008c0.132-0.052,0.236-0.152,0.292-0.282
							C354.991,71.672,354.993,71.528,354.941,71.397z"/>
						<path style="fill:#EF7D65;" d="M360.884,70.354c1.291-1.233,3.063-1.549,5.268-0.94c0.281,0.078,0.447,0.37,0.369,0.651
							c-0.032,0.115-0.103,0.218-0.2,0.288c-0.131,0.095-0.295,0.124-0.451,0.082c-1.844-0.509-3.236-0.285-4.253,0.683
							c-0.102,0.099-0.235,0.152-0.377,0.149c-0.143-0.003-0.275-0.061-0.373-0.164c-0.098-0.102-0.15-0.236-0.147-0.378
							C360.723,70.583,360.781,70.451,360.884,70.354z"/>
					</g>
					<ellipse style="fill:#F9E6A7;" cx="358.611" cy="80.766" rx="0.772" ry="0.458"/>
					<path style="fill:#F9E6A7;" d="M360.97,86.458c0.042,0.249-0.266,0.508-0.686,0.578c-0.421,0.07-0.795-0.075-0.837-0.324
						C359.406,86.463,360.928,86.209,360.97,86.458z"/>
				</g>
				<path style="opacity:0.3;fill:#F9E6A7;" d="M368.811,55.439c0.089-0.251,2.235-0.127,3.76,1.408
					c1.58,1.59,2.689,3.692,2.72,3.968c0.019,0.169-4.434-3.187-4.161-2.366c0.172,0.516,2.838,1.599,4.083,6.883
					c0.08,0.338-4.255-4.082-4.435-3.803s1.894,1.531,2.75,4.279c0,0-5.52-5.194-5.488-5.489s2.122-0.41,2.763-0.27
					c0.379,0.083-3.071-2.311-2.985-2.574c0.071-0.218,1.016-0.512,2.217-0.394C371.236,57.199,368.659,55.869,368.811,55.439z"/>
				<path style="opacity:0.3;fill:#F9E6A7;" d="M351.684,58.645c-1.364-0.192-5.503,2.498-5.823,7.047
					c-0.32,4.548,0.639-1.321,1.473-1.858c0.23-0.148-0.268,1.006,0.007,2.268c0.137,0.629,0.91-2.46,1.989-3.934
					c1.079-1.473,1.953-1.613,1.683-1.699c-0.74-0.234-2.069,0.894-2.027,0.652C349.177,60.031,352.075,58.7,351.684,58.645z"/>
				<path style="fill:#812C3A;" d="M394.07,120.419c1.589-8.993-0.032-14.81-2.954-16.958c-3.72-2.734-18.8-7.404-18.8-7.404
					s-2.551,7.749-8.201,9.131l-1.545,5.061l-1.052-5.15c-4.111-2.232-2.426-8.536-2.426-8.536s-13.942,6.284-15.452,7.902
					c-1.51,1.618-4.638,8.275-7.66,15.954H394.07z"/>
			</g>
		</g>
	</g>
	<g>
		<path style="fill:#FCFFFF;" d="M480.454,412.235H230.816c-5.499,0-9.957-4.458-9.957-9.957V133.676
			c0-5.499,4.458-9.957,9.957-9.957h249.638c5.499,0,9.957,4.458,9.957,9.957v268.602
			C490.411,407.777,485.953,412.235,480.454,412.235z"/>
		<path style="opacity:0.3;fill:#3AB5A6;" d="M480.454,412.235H230.816c-5.499,0-9.957-4.458-9.957-9.957V133.676
			c0-5.499,4.458-9.957,9.957-9.957h249.638c5.499,0,9.957,4.458,9.957,9.957v268.602
			C490.411,407.777,485.953,412.235,480.454,412.235z"/>
		<path style="fill:#FCFFFF;" d="M480.454,403.235H230.816c-5.499,0-9.957-4.458-9.957-9.957V124.676
			c0-5.499,4.458-9.957,9.957-9.957h249.638c5.499,0,9.957,4.458,9.957,9.957v268.602
			C490.411,398.777,485.953,403.235,480.454,403.235z"/>
		<path style="fill:#3AB5A6;" d="M480.454,114.72H230.816c-5.499,0-9.957,4.458-9.957,9.957v44.972h269.551v-44.972
			C490.411,119.177,485.953,114.72,480.454,114.72z"/>
		<path style="opacity:0.3;fill:#FFFFFF;" d="M479.355,122.787H235.373c-0.892,0-1.615-0.723-1.615-1.615v0
			c0-0.892,0.723-1.615,1.615-1.615h243.982c0.892,0,1.615,0.723,1.615,1.615v0C480.97,122.064,480.247,122.787,479.355,122.787z"/>
		<g>
			<g>
				<circle style="fill:#FCFFFF;" cx="410.209" cy="137.162" r="12.422"/>
				<circle style="opacity:0.8;fill:#591320;" cx="410.067" cy="137.162" r="7.059"/>
				<path style="fill:#EF7D65;" d="M410.209,142.311L410.209,142.311c-2.855,0-5.17-2.315-5.17-5.17v-26.255
					c0-2.855,2.315-5.17,5.17-5.17l0,0c2.855,0,5.17,2.315,5.17,5.17v26.255C415.379,139.996,413.064,142.311,410.209,142.311z"/>
			</g>
			<g>
				<circle style="fill:#FCFFFF;" cx="463.097" cy="137.162" r="12.422"/>
				<circle style="opacity:0.8;fill:#591320;" cx="463.097" cy="137.162" r="7.059"/>
				<path style="fill:#EF7D65;" d="M463.097,142.311L463.097,142.311c-2.855,0-5.17-2.315-5.17-5.17v-26.255
					c0-2.855,2.315-5.17,5.17-5.17l0,0c2.855,0,5.17,2.315,5.17,5.17v26.255C468.266,139.996,465.952,142.311,463.097,142.311z"/>
			</g>
			<g>
				<circle style="fill:#FCFFFF;" cx="251.547" cy="137.162" r="12.422"/>
				<circle style="opacity:0.8;fill:#591320;" cx="251.619" cy="137.162" r="7.059"/>
				<path style="fill:#EF7D65;" d="M251.548,142.311L251.548,142.311c-2.855,0-5.17-2.315-5.17-5.17v-26.255
					c0-2.855,2.315-5.17,5.17-5.17h0c2.855,0,5.17,2.315,5.17,5.17v26.255C256.717,139.996,254.403,142.311,251.548,142.311z"/>
			</g>
			<g>
				<circle style="fill:#FCFFFF;" cx="304.435" cy="137.162" r="12.422"/>
				<circle style="opacity:0.8;fill:#591320;" cx="304.435" cy="137.162" r="7.059"/>
				<path style="fill:#EF7D65;" d="M304.435,142.311L304.435,142.311c-2.855,0-5.17-2.315-5.17-5.17v-26.255
					c0-2.855,2.315-5.17,5.17-5.17l0,0c2.855,0,5.17,2.315,5.17,5.17v26.255C309.604,139.996,307.29,142.311,304.435,142.311z"/>
			</g>
			<g>
				<circle style="fill:#FCFFFF;" cx="357.322" cy="137.162" r="12.422"/>
				<circle style="opacity:0.8;fill:#591320;" cx="357.322" cy="136.799" r="7.059"/>
				<path style="fill:#EF7D65;" d="M357.322,142.311L357.322,142.311c-2.855,0-5.17-2.315-5.17-5.17v-26.255
					c0-2.855,2.315-5.17,5.17-5.17h0c2.855,0,5.17,2.315,5.17,5.17v26.255C362.492,139.996,360.177,142.311,357.322,142.311z"/>
			</g>
		</g>
		
			<rect x="290.995" y="193.728" style="fill:none;stroke:#FCC790;stroke-width:3;stroke-miterlimit:10;" width="34.609" height="34.609"/>
		
			<rect x="338.654" y="193.728" style="fill:none;stroke:#FCC790;stroke-width:3;stroke-miterlimit:10;" width="34.609" height="34.609"/>
		
			<rect x="386.314" y="193.728" style="fill:none;stroke:#FCC790;stroke-width:3;stroke-miterlimit:10;" width="34.609" height="34.609"/>
		
			<rect x="433.973" y="193.728" style="fill:none;stroke:#FCC790;stroke-width:3;stroke-miterlimit:10;" width="34.609" height="34.609"/>
		
			<rect x="243.012" y="240.37" style="fill:none;stroke:#FCC790;stroke-width:3;stroke-miterlimit:10;" width="34.609" height="34.609"/>
		
			<rect x="290.671" y="240.37" style="fill:none;stroke:#FCC790;stroke-width:3;stroke-miterlimit:10;" width="34.609" height="34.609"/>
		
			<rect x="338.331" y="240.37" style="fill:none;stroke:#FCC790;stroke-width:3;stroke-miterlimit:10;" width="34.609" height="34.609"/>
		
			<rect x="385.991" y="240.37" style="fill:none;stroke:#FCC790;stroke-width:3;stroke-miterlimit:10;" width="34.609" height="34.609"/>
		
			<rect x="433.65" y="240.37" style="fill:none;stroke:#FCC790;stroke-width:3;stroke-miterlimit:10;" width="34.609" height="34.609"/>
		
			<rect x="242.689" y="287.013" style="fill:none;stroke:#FCC790;stroke-width:3;stroke-miterlimit:10;" width="34.609" height="34.609"/>
		
			<rect x="290.348" y="287.013" style="fill:none;stroke:#FCC790;stroke-width:3;stroke-miterlimit:10;" width="34.609" height="34.609"/>
		
			<rect x="338.008" y="287.013" style="fill:none;stroke:#FCC790;stroke-width:3;stroke-miterlimit:10;" width="34.609" height="34.609"/>
		
			<rect x="385.667" y="287.013" style="fill:none;stroke:#FCC790;stroke-width:3;stroke-miterlimit:10;" width="34.609" height="34.609"/>
		
			<rect x="433.327" y="287.013" style="fill:none;stroke:#FCC790;stroke-width:3;stroke-miterlimit:10;" width="34.609" height="34.609"/>
		
			<rect x="242.366" y="333.656" style="fill:none;stroke:#FCC790;stroke-width:3;stroke-miterlimit:10;" width="34.609" height="34.609"/>
		
			<rect x="290.025" y="333.656" style="fill:none;stroke:#FCC790;stroke-width:3;stroke-miterlimit:10;" width="34.609" height="34.609"/>
		
			<rect x="337.685" y="333.656" style="fill:none;stroke:#FCC790;stroke-width:3;stroke-miterlimit:10;" width="34.609" height="34.609"/>
		
			<rect x="385.344" y="333.656" style="fill:none;stroke:#FCC790;stroke-width:3;stroke-miterlimit:10;" width="34.609" height="34.609"/>
		<path style="fill:#FCC790;" d="M391.412,127.99c0,0-4.653,23.615-6.385,26.566c-1.732,2.952-23.062,17.878-23.062,17.878
			s-3.576,6.105-4.868,7.028c-1.291,0.922-5.46-0.442-7.577-2.383c0,0-4.919,4.168-6.496,3.345
			c-1.578-0.823,6.085-8.101,6.085-8.101s-1.309-1.625,0.428-3.623s7.551-1.937,7.551-1.937l18.274-19.911l1.445-20.132
			L391.412,127.99z"/>
		<path style="opacity:0.2;fill:#812C3A;" d="M387.15,127.619c-1.065,8.787-0.431,18.424-7.142,24.389
			c-7.265,8.173-16.346,18.162-24.519,21.795c-3.965,1.487-7.39,4.055-11.011,6.524c2.065-0.731,5.042-3.249,5.042-3.249
			c2.117,1.941,6.286,3.306,7.577,2.383c1.291-0.922,4.868-7.028,4.868-7.028s21.33-14.926,23.062-17.878
			c1.732-2.952,6.385-26.566,6.385-26.566L387.15,127.619z"/>
		<path style="fill:#812C3A;" d="M375.362,129.835v-16.42c0,0,18.727-2.328,19.26,0c0.533,2.328-2.102,16.548-2.102,16.548
			L375.362,129.835z"/>
		<g>
			<path style="fill:#3AB5A6;" d="M305.652,224.24c-0.685,0-1.34-0.281-1.813-0.778l-8.387-8.83
				c-0.951-1.001-0.91-2.583,0.091-3.534c1-0.952,2.584-0.912,3.534,0.091l6.523,6.868l18.919-21.057
				c0.923-1.026,2.504-1.111,3.531-0.189c1.027,0.923,1.111,2.503,0.189,3.531l-20.728,23.07c-0.466,0.519-1.128,0.819-1.825,0.829
				C305.675,224.24,305.664,224.24,305.652,224.24z"/>
		</g>
		<g>
			<path style="fill:#3AB5A6;" d="M303.907,316.428c-0.685,0-1.34-0.281-1.813-0.778l-8.388-8.83
				c-0.951-1.001-0.91-2.583,0.091-3.534c1.001-0.953,2.583-0.911,3.534,0.091l6.524,6.868l18.918-21.057
				c0.923-1.026,2.504-1.112,3.531-0.188c1.027,0.923,1.111,2.503,0.189,3.53l-20.727,23.069c-0.466,0.519-1.128,0.819-1.825,0.829
				C303.93,316.428,303.919,316.428,303.907,316.428z"/>
		</g>
		<circle style="opacity:0.4;fill:#FFFFFF;" cx="251.619" cy="112.212" r="2.507"/>
		<circle style="opacity:0.4;fill:#FFFFFF;" cx="304.435" cy="112.212" r="2.507"/>
		<circle style="opacity:0.4;fill:#FFFFFF;" cx="357.251" cy="112.212" r="2.507"/>
		<circle style="opacity:0.4;fill:#FFFFFF;" cx="410.067" cy="112.212" r="2.507"/>
		<circle style="opacity:0.4;fill:#FFFFFF;" cx="462.883" cy="112.212" r="2.507"/>
	</g>
	<g style="opacity:0.5;">
		<rect y="443.75" style="fill:#EF7D65;" width="750" height="55.732"/>
	</g>
	<g>
		
			<rect x="383.843" y="209.096" transform="matrix(0.717 -0.6971 0.6971 0.717 -41.0625 342.2867)" style="fill:#3AB5A6;" width="34.347" height="25.237"/>
		<g>
			<path style="fill:#EF7D65;" d="M413.22,203.269l-30.985,30.125c-3.128,3.041-8.131,2.971-11.172-0.157
				c-3.041-3.128-2.971-8.131,0.157-11.172l30.985-30.125c3.128-3.041,8.131-2.971,11.172,0.157
				C416.419,195.225,416.348,200.228,413.22,203.269z"/>
			<circle style="opacity:0.6;fill:#F9E6A7;" cx="406.752" cy="197.185" r="3.457"/>
		</g>
		<rect x="465.097" y="166.048" style="fill:#3AB5A6;" width="49.722" height="36.534"/>
		<rect x="465.097" y="166.048" style="opacity:0.2;fill:#812C3A;" width="49.722" height="16.5"/>
		<circle style="fill:#FFFFFF;" cx="490.411" cy="310.612" r="115.442"/>
		<g>
			<path style="fill:#EF7D65;" d="M490.413,434.202c-68.147,0-123.59-55.443-123.59-123.59s55.443-123.59,123.59-123.59
				S614,242.465,614,310.612S558.56,434.202,490.413,434.202z M490.413,203.317c-59.161,0-107.295,48.133-107.295,107.295
				s48.133,107.295,107.295,107.295s107.292-48.133,107.292-107.295S549.574,203.317,490.413,203.317z"/>
		</g>
		<g style="opacity:0.25;">
			<path style="fill:#812C3A;" d="M490.412,197.317c-59.161,0-107.295,48.133-107.295,107.295c0,1.003,0.017,2.003,0.044,3
				c1.595-57.78,49.093-104.295,107.251-104.295c58.158,0,105.654,46.515,107.248,104.295c0.028-0.997,0.044-1.997,0.044-3
				C597.705,245.45,549.574,197.317,490.412,197.317z"/>
			<path style="fill:#812C3A;" d="M490.412,428.202c-67.144,0-121.953-53.824-123.552-120.59c-0.024,0.997-0.038,1.997-0.038,3
				c0,68.147,55.443,123.59,123.59,123.59S614,378.759,614,310.612c0-1.003-0.014-2.003-0.038-3
				C612.363,374.379,557.557,428.202,490.412,428.202z"/>
		</g>
		<circle style="fill:#EF7D65;" cx="490.784" cy="219.712" r="5.803"/>
		<circle style="fill:#EF7D65;" cx="490.784" cy="400.385" r="5.803"/>
		<circle style="fill:#EF7D65;" cx="581.12" cy="310.049" r="5.803"/>
		<circle style="fill:#EF7D65;" cx="400.447" cy="310.049" r="5.803"/>
		<circle style="fill:#EF7D65;" cx="569.443" cy="354.47" r="5.803"/>
		<circle style="fill:#EF7D65;" cx="412.124" cy="265.627" r="5.803"/>
		<circle style="fill:#EF7D65;" cx="536.715" cy="387.837" r="5.803"/>
		<circle style="fill:#EF7D65;" cx="444.852" cy="232.261" r="5.803"/>
		<circle style="fill:#EF7D65;" cx="535.093" cy="231.326" r="5.803"/>
		<circle style="fill:#EF7D65;" cx="446.474" cy="388.772" r="5.803"/>
		<circle style="fill:#EF7D65;" cx="568.506" cy="264.007" r="5.803"/>
		<circle style="fill:#EF7D65;" cx="413.061" cy="356.091" r="5.803"/>
		<g>
			<path style="fill:#EF7D65;" d="M521.238,177.486h-62.561c-6.316,0-11.438-5.121-11.438-11.438s5.121-11.438,11.438-11.438h62.561
				c6.316,0,11.438,5.121,11.438,11.438S527.555,177.486,521.238,177.486z"/>
		</g>
		<g>
			<path style="opacity:0.25;fill:#812C3A;" d="M447.283,166.903c0.439,5.916,5.367,10.583,11.394,10.583h62.561
				c5.927,0,10.801-4.51,11.379-10.285C531.804,167.718,447.835,167.747,447.283,166.903z"/>
		</g>
		<g style="opacity:0.6;">
			<path style="fill:#F9E6A7;" d="M515.926,161.809H463.65c-1.135,0-2.055-0.92-2.055-2.055c0-1.135,0.92-2.055,2.055-2.055h52.276
				c1.135,0,2.055,0.92,2.055,2.055C517.981,160.889,517.061,161.809,515.926,161.809z"/>
		</g>
		<g>
			<path style="fill:#3AB5A6;" d="M457.04,334.014c0,0-1.246-6.455,1.467-8.357l24.003-16.832l-30.928-54.724
				c-1.63-2.885,2.271-8.176,2.271-8.176s6.545-0.613,8.176,2.271l33.606,59.463c1.52,2.688,0.75,6.092-1.778,7.864l-28.46,19.957
				C464.348,336.216,457.04,334.014,457.04,334.014z"/>
		</g>
		<circle style="fill:#591320;" cx="490.411" cy="310.612" r="8.688"/>
	</g>
	<g>
		<path style="fill:#EF7D65;" d="M152.327,162.508H93.048c-5.247,0-9.501,4.254-9.501,9.501v16.242c0,5.247,4.254,9.501,9.501,9.501
			h43.512l22.171,18.218l-6.404-18.218c5.247,0,9.501-4.254,9.501-9.501v-16.242C161.828,166.762,157.574,162.508,152.327,162.508z"
			/>
		<circle style="fill:#FFFFFF;" cx="105.469" cy="180.195" r="2.484"/>
		<circle style="fill:#FFFFFF;" cx="121.588" cy="180.195" r="2.484"/>
		<circle style="fill:#FFFFFF;" cx="137.708" cy="180.195" r="2.484"/>
	</g>
	<g>
		<path style="fill:#812C3A;" d="M639.7,189.704h29.216c5.247,0,9.501,4.254,9.501,9.501v23.242c0,5.247-4.254,9.501-9.501,9.501
			h-15.448l-11.171,12.218v-12.218H639.7c-5.247,0-9.501-4.254-9.501-9.501v-23.242C630.198,193.958,634.452,189.704,639.7,189.704z
			"/>
		<g>
			<circle style="fill:#FFFFFF;" cx="654.308" cy="211.07" r="5.348"/>
			<path style="fill:#FFFFFF;" d="M666.326,213.934l2.052-0.025l-0.073-6.018l-2.05,0.025c-0.336-1.274-0.873-2.466-1.572-3.544
				l1.404-1.503l-4.397-4.109l-1.402,1.501c-0.925-0.514-1.921-0.912-2.971-1.176v-2.05h-6.018v2.05
				c-1.203,0.302-2.336,0.78-3.371,1.406l-1.457-1.447l-4.241,4.27l1.458,1.448c-0.63,1.057-1.105,2.215-1.398,3.444l-2.052,0.025
				l0.073,6.018l2.05-0.025c0.336,1.274,0.873,2.466,1.572,3.544l-1.404,1.503l4.397,4.109l1.402-1.501
				c0.925,0.514,1.921,0.912,2.971,1.176v2.05h6.018v-2.05c1.203-0.302,2.336-0.78,3.371-1.406l1.457,1.447l4.241-4.27l-1.458-1.448
				C665.558,216.321,666.033,215.163,666.326,213.934z M644.722,211.07c0-5.285,4.3-9.585,9.585-9.585
				c5.285,0,9.585,4.3,9.585,9.585c0,5.286-4.3,9.585-9.585,9.585C649.022,220.655,644.722,216.355,644.722,211.07z"/>
		</g>
	</g>
	<g>
		<g>
			<path style="fill:#FCC790;" d="M532.753,289.968c0,0-4.969,2.149-10.305,0.89c-5.337-1.258-1.932-11.84-0.552-12.3
				c1.38-0.46,10.857,3.128,10.857,3.128V289.968z"/>
			
				<rect x="492.811" y="264.977" transform="matrix(0.9641 0.2654 -0.2654 0.9641 92.0342 -125.2529)" style="fill:#F9E6A7;" width="33.421" height="25.947"/>
			<path style="fill:#FCC790;" d="M532.569,279.29c0,0-4.853-3.837-6.659-3.724s-6.884,0.675-7.674,1.861
				c-0.79,1.186-2.031,5.813-0.903,6.265c1.129,0.451,3.724-1.467,3.611-3.611l3.273-0.419c0,0,0.871,5.579,4.483,6.595
				c3.611,1.016,6.013-2.564,6.013-2.564S537.535,279.177,532.569,279.29z"/>
		</g>
		<g>
			<ellipse style="opacity:0.25;fill:#591320;" cx="601.401" cy="455.316" rx="62.924" ry="10.15"/>
			<g>
				<g>
					<path style="fill:#3AB5A6;" d="M588.583,250.234c-5.88,2.863-19.099,24.168-22.134,26.986
						c-3.035,2.818-35.557-0.245-35.557-0.245l0.782,14.842c0,0,36.595,2.007,39.63,0.272c3.035-1.734,20.163-15.771,20.163-15.771
						S593.504,247.839,588.583,250.234z"/>
					<path style="opacity:0.2;fill:#812C3A;" d="M589.007,260.271c0-1.121,0.994-2.569,2.585-3.573
						c0.72,7.769-0.125,19.62-0.125,19.62s-17.128,14.036-20.163,15.771c-3.035,1.734-39.63-0.272-39.63-0.272l-0.297-5.635
						c13.719,0.331,35.772-0.724,38.475-1.658C572.555,283.591,586.342,273.597,589.007,260.271z"/>
					<path style="fill:#591320;" d="M676.677,388.9c0,0,3.894,5.552,4.424,8.425c0.53,2.873,0.57,8.589,1.242,9.431
						c0.673,0.843,2.188,1.013,2.188,1.013s3.568-9.679,2.713-15.615c1.21-6.378,0.549-13.429,0.549-13.429
						s-5.771-0.989-9.168,0.419L676.677,388.9z"/>
					<path style="fill:#591320;" d="M567.623,444.892c0,0-5.574,3.863-8.45,4.376c-2.876,0.514-8.592,0.521-9.438,1.189
						c-0.847,0.668-1.025,2.182-1.025,2.182s9.658,3.622,15.599,2.801c6.371,1.246,13.425,0.625,13.425,0.625
						s1.022-5.765-0.367-9.171L567.623,444.892z"/>
					<path style="fill:#812C3A;" d="M679.52,377.649l-48.989-13.95c0,0-1.71-47.321-5.849-57.287
						c-4.139-9.965-27.149-3.033-34.877-0.658l-0.809,10.354c-2.249,7.414-11.256,41.362-16.582,72.725
						c-5.075,29.886-8.737,56.661-8.737,56.661l15.18,2.303l10.974-54.72c0,0,9.659-25.277,15.498-45.907
						c3.145,17.734,9.462,34.874,12.969,38.223c4.972,4.747,59.714,5.679,59.714,5.679L679.52,377.649z"/>
					<path style="opacity:0.5;fill:#591320;" d="M630.531,363.698c0,0-1.71-47.321-5.849-57.286s-27.149-3.033-34.877-0.658
						l-0.809,10.354c-0.515,1.696-1.385,4.793-2.482,8.918c10.566,5.659,22.437,7.219,34.846,5.029
						c0.406,8.283,8.838,40.818,0.239,46.402c-7.469,2.039-12.239-27.402-17.239-38.402c-9.629-1.485-13.729,54.214-33.24,58.511
						c-4.392,26.619-7.443,48.928-7.443,48.928l15.18,2.303l10.974-54.72c0,0,9.659-25.277,15.498-45.907
						c3.145,17.734,9.461,34.874,12.969,38.223c4.972,4.746,59.714,5.679,59.714,5.679l1.508-13.425L630.531,363.698z"/>
					<path style="fill:#3AB5A6;" d="M588.583,250.234c1.477-1.92,7.829-4.875,7.829-4.875s11.424-0.443,14.501,0
						s12.827,3.102,15.929,6.204c3.102,3.102,1.034,32.202,0,42.69c-1.034,10.488,1.61,28.066,1.61,28.066s-30.6,9.897-39.758-5.613
						c0.739-15.51-2.607-32.35-3.05-41.509S588.583,250.234,588.583,250.234z"/>
					<path style="opacity:0.2;fill:#812C3A;" d="M626.842,251.564c-0.939-0.939-10.654,1.006-13.177,3.889
						c-9.528,14.292,12.974,46.845-2.858,55.217c-9.263,2.316-14.644-3.664-22.339-7.658c0.308,4.529,0.442,9.168,0.226,13.696
						c9.158,15.51,39.758,5.613,39.758,5.613s-2.644-17.578-1.61-28.066C627.876,283.766,629.944,254.666,626.842,251.564z"/>
					<path style="fill:#FFFFFF;" d="M603.963,242.064c4.847-0.469,7.314,0.515,8.605,0.993c2.234,0.827,4.965,3.062,5.13,3.806
						c0.166,0.745-3.972,7.53-8.688,9.516c0,0-1.401-5.992-5.691-6.311c-4.29-0.319-6.969,5.649-6.969,5.649
						s-2.482-7.53-2.234-9.433C594.364,244.381,600.905,242.36,603.963,242.064z"/>
					<g>
						<path style="fill:#FCC790;" d="M635,299.505c0,0-6.751,1.899-7.957,3.607c-1.206,1.708,2.194,4.268,1.01,5.325
							c-1.183,1.057-3.12,3.014-3.271,4.22c-0.151,1.206,4.521,3.919,5.727,4.371c1.206,0.452,6.33-0.754,7.837-1.507
							c1.507-0.754,2.864-8.988,4.233-10.783C643.949,302.943,638.018,296.01,635,299.505z"/>
						<path style="fill:#3AB5A6;" d="M622.961,271.354c-15.691-3.347-13.033-20.39-1.611-20.117
							c11.422,0.273,43.758,16.815,44.877,21.286s-22.116,34.043-22.116,34.043l-9.805-7.679l14.931-22.039
							C649.238,276.848,632.846,273.463,622.961,271.354z"/>
						<path style="opacity:0.2;fill:#812C3A;" d="M666.228,272.523c-0.315-1.256-3.092-3.464-7.177-5.997
							c1.292,2.386,1.936,4.832,2.055,7.274c-0.289,4.148-8.84,21.065-18.203,26.106c-2.416,1.208-4.833-0.647-7.491-2.652
							l-1.107,1.633l9.805,7.679C644.112,306.566,667.348,276.994,666.228,272.523z"/>
					</g>
					<g>
						<path style="fill:#591320;" d="M612.163,221.858c0.163-5.354-0.178-18.623-12.488-19.175
							c-7.79-4.442-18.105,4.922-19.925,1.062c0,0-4.3,3.691-3.129,8.571c0.649,2.702,3.36,2.097,3.823,2.857
							s-0.116,6.843,3.012,7.168c3.128,0.326,15.832,11.763,21.084,11.296C610.172,233.136,612,227.212,612.163,221.858z"/>
						<path style="fill:#FCC790;" d="M582.2,213.952c-2.358-1.862,2.243,26.172,8.225,27.808s7.976,0,7.976,0l-0.748,3.615
							c0,0,2.648,3.35,4.943,3.31c3.524-0.062,8.296-4.965,8.296-4.965l-3.767-15.98c0,0,2.742-2.337,1.994-6.777
							c-0.748-4.44-5.157-5.246-5.982-2.103c-0.607,2.314,1.994,12.525,1.994,12.525l-5.692-0.898c0,0,3.829-2.873,2.551-6.418
							c-1.943-5.391-5.333-7.546-4.087-11.752C597.902,212.316,586.935,217.691,582.2,213.952z"/>
						
							<ellipse transform="matrix(0.0449 -0.999 0.999 0.0449 356.8625 817.8647)" style="opacity:0.2;fill:#812C3A;" cx="606.153" cy="222.303" rx="2.254" ry="1.267"/>
						<path style="opacity:0.2;fill:#812C3A;" d="M601.394,237.404c2.484-1.656,2.813-6.187,5.982-8.597l2.281,9.677
							c-2.679,4.574-6.659,7.709-11.758,5.702l0.502-2.426c0,0-1.994,1.636-7.976,0c-0.212-0.058-0.421-0.157-0.629-0.279
							C594.258,241.315,598.363,240.434,601.394,237.404z"/>
						<path style="fill:#591320;" d="M584.2,231.453c-1.402,1.452-0.169,11.912,5.527,12.91c5.696,0.997,15.879-4.685,16.31-7.511
							c0.43-2.825-0.399-6.902-1.553-8.176c-0.61-0.673-9.367,2.119-15.008,2.777C586.05,231.853,584.877,230.752,584.2,231.453z"/>
						<path style="opacity:0.4;fill:#FCC790;" d="M597.883,205.332c3.479-1.491,6.59-0.25,7.888,0.671
							c1.299,0.921,3.373,4.001,2.517,5.775C607.107,211.778,605.268,206.227,597.883,205.332z"/>
						<g>
							<g>
								<g>
									<path style="opacity:0.4;fill:#812C3A;" d="M591.067,231.065c0.219-0.078,0.43-0.188,0.624-0.329
										c0.114-0.082,0.139-0.24,0.056-0.354c-0.082-0.113-0.241-0.139-0.353-0.056c-0.617,0.448-1.338,0.438-1.779,0.23
										c-0.204-0.096-0.55-0.328-0.58-0.802c-0.024-0.374,0.215-1.088,0.468-1.844c0.477-1.427,1.019-3.045,0.445-4.003
										c-0.072-0.12-0.233-0.157-0.347-0.087c-0.12,0.072-0.159,0.227-0.087,0.347c0.454,0.758-0.07,2.324-0.491,3.582
										c-0.28,0.839-0.523,1.563-0.493,2.036c0.034,0.536,0.351,0.984,0.87,1.228C589.904,231.253,590.51,231.263,591.067,231.065
										z"/>
								</g>
								<path style="fill:#812C3A;" d="M597.289,217.845c-2.165-0.925-3.566-0.801-5.203,0.102
									c-0.229,0.126-0.395,0.334-0.468,0.586c-0.073,0.252-0.044,0.516,0.084,0.747c0.129,0.231,0.338,0.397,0.587,0.467
									c0.252,0.072,0.518,0.039,0.745-0.086c1.01-0.563,1.978-0.658,3.484-0.015c0.275,0.117,0.583,0.104,0.846-0.037
									c0.007-0.004,0.014-0.008,0.021-0.012c0.186-0.105,0.334-0.271,0.419-0.467
									C598.017,218.634,597.785,218.057,597.289,217.845z"/>
								<path style="fill:#812C3A;" d="M585.873,220.512c0.246,0.083,0.513,0.068,0.748-0.048c0.233-0.112,0.41-0.313,0.495-0.563
									c0.085-0.25,0.067-0.515-0.05-0.75c-0.116-0.235-0.317-0.411-0.564-0.494c-1.66-0.562-3.002-0.472-4.782,0.606
									c0.101,0.656,0.213,1.324,0.334,1.998c0.135-0.022,0.268-0.067,0.386-0.145
									C583.809,220.215,584.779,220.137,585.873,220.512z"/>
								<g>
									
										<ellipse transform="matrix(0.9839 -0.1789 0.1789 0.9839 -30.764 108.298)" style="fill:#812C3A;" cx="585.122" cy="224.733" rx="0.995" ry="1.262"/>
									
										<ellipse transform="matrix(0.9839 -0.1789 0.1789 0.9839 -30.3239 110.0243)" style="fill:#812C3A;" cx="594.914" cy="223.156" rx="1.203" ry="1.525"/>
								</g>
							</g>
							
								<ellipse transform="matrix(0.9839 -0.1789 0.1789 0.9839 -31.5623 109.2491)" style="fill:#F9E6A7;" cx="589.996" cy="229.635" rx="0.734" ry="0.435"/>
						</g>
					</g>
				</g>
			</g>
		</g>
	</g>
	<g>
		<ellipse style="opacity:0.25;fill:#591320;" cx="192.507" cy="452.12" rx="55.241" ry="10.198"/>
		<path style="fill:#591320;" d="M169.863,416.839c0,0-0.983,8.026-0.771,9.102c0.212,1.076,2.814,9.283,1.163,11.662
			c-1.651,2.379-3.805,1.538-5.984-1.435c-2.179-2.972-6.216-12.207-6.264-15.205c0,0-2.826-5.681-2.648-7.362
			s4.406-4.994,7.131-4.923L169.863,416.839z"/>
		<path style="fill:#591320;" d="M173.954,443.458c0,0,5.296,6.11,6.236,6.674c0.94,0.564,8.774,4.136,9.432,6.956
			c0.658,2.82-1.41,3.854-5.076,3.478c-3.666-0.376-13.225-3.572-15.481-5.546c0,0-6.11-1.712-7.238-2.971
			c-1.128-1.259-0.752-6.617,1.128-8.591H173.954z"/>
		<path style="fill:#FCC790;" d="M218.621,269.844c0,0,23.56-5.25,25.097-5.506c1.537-0.256,16.6-13.066,19.161-12.17
			c2.561,0.896-7.954,7.635-6.565,7.979c1.607,0.398,1.262,3.13,1.262,4.191c0,0.649,1.506,3.841-4.768,4.866
			c-6.274,1.024-8.275,1.28-11.14,2.561c-2.865,1.28-19.443,12.382-21.752,12.399C217.607,284.179,218.621,269.844,218.621,269.844z
			"/>
		<path style="opacity:0.2;fill:#812C3A;" d="M263.18,253.049c-6.287,4.461-11.645,8.289-10.87,10.451
			c3.529,0.811-4.036,2.834-8.689,5.106c-7.755,3.786-17.173,8.359-25.185,9.858c0.107,3.036,0.484,5.706,1.482,5.699
			c2.31-0.017,18.888-11.118,21.752-12.399c2.865-1.28,4.866-1.537,11.14-2.561c6.274-1.024,4.768-4.216,4.768-4.866
			c0-1.061,0.345-3.793-1.262-4.191C255.156,259.86,262.259,255.136,263.18,253.049z"/>
		<path style="fill:#EF7D65;" d="M195.906,242.442c3.636,0.64,7.218,7.391,9.04,9.297c4.039,4.226,15.083,17.336,15.083,17.336
			s4.98,13.875,1.619,15.332s-17.753-8.097-17.753-8.097L195.906,242.442z"/>
		<path style="opacity:0.25;fill:#812C3A;" d="M202.253,248.141c-1.815-2.503-4.071-5.299-6.347-5.699l7.99,33.869
			c0,0,14.392,9.554,17.753,8.097c1.368-0.593,1.354-3.245,0.856-6.18C206.398,278.394,212.529,265.533,202.253,248.141z"/>
		<path style="fill:#812C3A;" d="M171.081,422.534c0,0-2.648-4.501-8.717-14.65c0,0,30.763-22.788,30.733-23.638
			c-0.03-0.851-5.865-31.185-6.408-31.185c-1.223,0-10.616,90.364-10.616,90.364s-5.3,5.3-14.88,0c0,0,0.642-77.662,1.035-89.485
			c0.392-11.823,1.208-32.966,3.45-36.051h40.36c0,0,2.429,9.96,2.947,22.19c0.518,12.23,3.513,35.215,3.637,49.079
			C212.662,393.561,171.081,422.534,171.081,422.534z"/>
		<path style="opacity:0.5;fill:#591320;" d="M209.025,393.561c-2.616,2.325-6.377-2.942-7.064-5.495
			c-5.063-18.81-4.084-26.581-4.084-45.676c0-0.909-5.54-4.224-4.631-4.224c4.858-1.619,10.695-0.61,15.553-1.378
			c-0.338-8.544-2.76-18.899-2.76-18.899h-40.36c-2.242,3.085-3.058,24.229-3.45,36.051s-1.035,89.485-1.035,89.485
			c9.58,5.3,14.88,0,14.88,0s1.046-11.285,2.833-26.412C182.179,414.539,209.012,394.199,209.025,393.561z M193.098,384.246
			c-0.167,0.534-11.656,9.336-11.656,9.336c-0.518,4.67-1.334,12.06-1.911,17.292c-1.815-0.537-5.284-1.649-6.283-3.314
			c-3.942-7.126-3.415-38.215,0.222-60.947c0.909-8.183,1.445-13.42,7.81-8.874c4.731,3.549,5.165,12.645,5.41,15.32
			C188.772,361.048,193.265,383.712,193.098,384.246z"/>
		<path style="fill:#FFFFFF;" d="M207.749,314.238l1.236,11.01l-7.989,3.571l-1.468-7.752l-2.642,7.728c0,0-21.58-2.226-33.03-7.657
			l2.619-10.84L207.749,314.238z"/>
		<path style="fill:#812C3A;" d="M198.873,208.657c4.559-5.308,4.899-11.787,1.328-12.997c-3.571-1.21-3.694,1.702-8.145,0.115
			c-22.262-7.936-21.762,10.99-21.762,10.99s-2.597,0.759-3.596,2.752s-0.234,4.463,0.525,7.059
			c0.759,2.597,7.136,14.154,11.32,13.635c0.873-0.108,4.091-0.314,6.573-1.335c2.483-1.02,7.141-2.421,5.629-6.336
			S198.873,208.657,198.873,208.657z"/>
		<path style="fill:#FCC790;" d="M194.087,232.929l-3.604,10.255c0,0-7.384-3-11.768-9.345l1.245-4.153l6.139-1.5L194.087,232.929z"
			/>
		<path style="opacity:0.2;fill:#812C3A;" d="M186.099,228.185l7.988,4.744l-2.261,6.432c-4.721-0.611-9.463-3.192-12.734-6.784
			l0.867-2.893L186.099,228.185z"/>
		<path style="fill:#FCC790;" d="M197.114,204.848c1.551,2.127,4.733,12.139,5.11,17.145s-0.474,13.911-2.688,14.69
			c-2.214,0.779-12.563-1.809-14.12-3.809c-1.557-1.999-1.941-3.838-1.941-3.838s-3.26,2.266-4.912-2.723
			c-1.113-3.361,0.092-6.754,2.226-6.003s1.987,3.476,2.451,4.395c0.463,0.919,2.872,1.301,3.053,0.288
			c0.181-1.013-4.317-9.432-3.788-12.217s4.462-4.624,7.944-5.209C193.934,206.983,197.114,204.848,197.114,204.848z"/>
		
			<ellipse transform="matrix(0.98 -0.1992 0.1992 0.98 -41.2019 40.5574)" style="opacity:0.2;fill:#812C3A;" cx="180.93" cy="225.012" rx="1.049" ry="2.151"/>
		<g>
			<g>
				<g>
					<path style="opacity:0.4;fill:#812C3A;" d="M196.848,225.427c-0.22,0.027-0.447,0.023-0.673-0.015
						c-0.132-0.022-0.221-0.146-0.199-0.278c0.022-0.131,0.146-0.221,0.278-0.198c0.718,0.119,1.33-0.196,1.617-0.561
						c0.134-0.169,0.33-0.514,0.154-0.932c-0.139-0.33-0.647-0.837-1.185-1.375c-1.015-1.015-2.167-2.167-2.085-3.229
						c0.01-0.134,0.132-0.233,0.259-0.222c0.133,0.01,0.233,0.126,0.223,0.259c-0.065,0.841,1.05,1.955,1.945,2.85
						c0.597,0.597,1.112,1.112,1.288,1.529c0.199,0.473,0.12,0.99-0.219,1.419C197.921,225.092,197.408,225.359,196.848,225.427z"/>
				</g>
				<path style="fill:#812C3A;" d="M185.904,216.787c1.455-1.712,2.704-2.203,4.487-2.128c0.249,0.01,0.48,0.117,0.649,0.302
					c0.17,0.184,0.257,0.422,0.246,0.674c-0.012,0.252-0.12,0.483-0.303,0.649c-0.185,0.169-0.425,0.254-0.673,0.244
					c-1.102-0.051-1.97,0.28-2.982,1.471c-0.185,0.217-0.453,0.337-0.738,0.329c-0.008,0-0.015-0.001-0.023-0.001
					c-0.204-0.011-0.401-0.089-0.557-0.221C185.619,217.77,185.571,217.179,185.904,216.787z"/>
				<path style="fill:#812C3A;" d="M196.789,214.203c-0.175,0.175-0.409,0.277-0.659,0.278c-0.247,0.003-0.483-0.093-0.663-0.27
					c-0.179-0.178-0.277-0.412-0.277-0.662c-0.001-0.25,0.095-0.486,0.271-0.662c1.179-1.187,2.362-1.681,4.341-1.519
					c0.193,0.603,0.382,1.221,0.566,1.849c-0.125,0.039-0.257,0.056-0.391,0.04C198.425,213.07,197.564,213.417,196.789,214.203z"/>
				<g>
					<path style="opacity:0.4;fill:#812C3A;" d="M197.515,230.634c-1.361,0.395-3.587-1.034-4.512-2.373
						c-0.063-0.092-0.168-0.143-0.137-0.249c0.032-0.107,0.144-0.167,0.249-0.137c2.295,0.665,5.831-0.403,7.005-2.116
						c0.064-0.091,0.189-0.115,0.28-0.052c0.092,0.063,0.078,0.172,0.052,0.28C200.058,227.656,198.955,230.215,197.515,230.634z"/>
				</g>
				<g>
					
						<ellipse transform="matrix(0.9603 -0.279 0.279 0.9603 -52.7615 64.2104)" style="fill:#812C3A;" cx="199.228" cy="217.487" rx="0.95" ry="1.205"/>
					
						<ellipse transform="matrix(0.9603 -0.279 0.279 0.9603 -53.9076 61.8023)" style="fill:#812C3A;" cx="190.194" cy="220.31" rx="1.148" ry="1.456"/>
				</g>
			</g>
			
				<ellipse transform="matrix(0.9603 -0.279 0.279 0.9603 -54.5908 63.8801)" style="fill:#F9E6A7;" cx="197.153" cy="223.75" rx="0.7" ry="0.415"/>
		</g>
		<path style="fill:#EF7D65;" d="M205.997,270.713c-0.575-13.679-2.644-16.323-6.207-23.105c-3.563-6.782-7.08-8.261-7.08-8.261
			l-1.989,4.459l-13.92-6.659c0,0-15.058,7.012-16.553,13.449c-1.494,6.437,5.862,60.693,5.862,60.693
			c27.128,11.725,42.876,4.253,42.876,4.253S206.571,284.392,205.997,270.713z"/>
		<path style="opacity:0.25;fill:#812C3A;" d="M182.003,260.469c7.274,5.456,2.728,18.185,10.002,23.641
			c5.179,4.532,10.357,1.227,14.552-3.022c0.915,14.924,2.429,34.455,2.429,34.455s-15.748,7.472-42.876-4.253
			c0,0-5.725-42.227-6.047-56.591C167.841,254.045,175.684,255.73,182.003,260.469z"/>
		<path style="fill:#EF7D65;" d="M175.424,265.109c1.17-2.191,3.146-10.876,2.02-13.687s-5.968-7.901-8.244-8.229
			c-2.277-0.327-14.651,6.728-24.146,11.497c-9.495,4.769-19.699,16.234-19.699,16.234s11.235,7.951,15.89,7.541
			C141.245,278.466,174.255,267.3,175.424,265.109z"/>
		<path style="opacity:0.25;fill:#812C3A;" d="M148.36,269.055c-2,0-3,4-5,4c-4.063,0.58-8.126,1.492-12.189,1.573
			c3.47,2.011,7.658,4.051,10.074,3.839c0,0,33.009-11.166,34.179-13.357c0.598-1.12,1.404-3.937,1.902-6.799
			C168.933,264.295,159.045,269.055,148.36,269.055z"/>
		<polygon style="fill:#F9E6A7;" points="131.163,316.256 143.109,344.374 171.971,332.663 162.484,304.343 		"/>
		<path style="fill:#FCC790;" d="M149.36,311.055c1.519,3.038,5.613,9.415,7.241,8.503s-5.482-10.763-5.482-10.763l5.486-2.087
			c-0.965-0.561-1.742-2.083-2.187-2.396c-1.17-0.822-8.392-3.8-8.392-3.8s-5.541-20.803-6.114-24.009
			c-0.479-2.681-10.12-9.81-14.557-5.579c-2.413,2.301,10.447,29.519,12.663,33.54c2.216,4.021,2.219,12.432,4.796,17.197
			c0.319,0.59,0.905,0.959,1.661,1.166c-0.36-3.258-1.7-6.435-0.718-9.558c0.699,3.368,3.714,10.066,4.961,9.563
			c1.247-0.503-1.915-6.872-2.358-10.779c1.974,3.315,5.42,11.555,7.061,10.806S149.597,313.711,149.36,311.055z"/>
		<path style="fill:#FFFFFF;" d="M192.709,239.348c0,0,1.742,1.961,2.195,3.02c0.454,1.059-0.202,5.899-0.202,5.899l-3.983-4.459
			c0,0-3.731,1.838-4.386,5.922c0,0-9.579-7.411-10.588-9.378c-1.008-1.966-1.412-3.731-1.412-3.731l4.381-2.781
			c0,0,4.442,6.512,11.768,9.345L192.709,239.348z"/>
		<path style="opacity:0.4;fill:#FCC790;" d="M190.87,198.112c-4.552-3.154-11.233-3.158-13.743-1.295
			C177.127,196.818,190.325,199.403,190.87,198.112z"/>
		<path style="opacity:0.4;fill:#FCC790;" d="M179.923,209.56c0.604-0.302-7.704-2.042-9.745-1.021
			C168.136,209.56,177.325,210.859,179.923,209.56z"/>
	</g>
	<g>
		<path style="fill:#812C3A;" d="M344.097,390.975c-6.159-1.604-8.679,9.95-9.585,16.21c-0.959-4.165-2.435-8.236-4.195-12.38
			c2.248-3.101,14.714-20.734,8.3-21.822c-6.127-1.039-8.139,16.642-8.556,21.22c-1.33-3.091-2.807-6.227-4.344-9.481
			c-0.362-0.767-0.728-1.541-1.095-2.322c2.586-4.632,13.023-24.201,6.571-27.344c-7.751-3.775-7.541,18.348-7.252,25.884
			c-2.185-4.688-4.386-9.65-6.307-15.038c1.804-3.305,6.494-12.575,2.264-12.481c-3.197,0.071-3.546,5.32-3.351,9.285
			c-1.152-3.566-2.157-7.326-2.943-11.315c1.19-4.375,3.495-15.174-2.945-14.604c-6.324,0.56-1.939,9.314,0.748,13.8
			c1.47,8.008,3.827,15.078,6.467,21.549c-3.999-4.636-12.074-12.986-14.272-7.64c-2.505,6.092,11.11,9.325,15.329,10.171
			c1.632,3.814,3.335,7.432,4.979,10.914c0.642,1.359,1.271,2.694,1.886,4.016c-4.521-5.397-11.062-11.583-13.05-8.21
			c-3.389,5.75,10.164,11.345,15.313,13.224c2.238,5.164,4.044,10.179,4.969,15.363c-4.099-4.125-19.15-18.828-20.985-14.154
			c-3.338,8.505,16.635,13.9,21.126,14.997c0.499,3.14,0.677,6.347,0.406,9.694c-0.022,0.266,0.062,0.525,0.234,0.728
			c0.173,0.203,0.415,0.328,0.676,0.348c0.127,0.011,0.253-0.002,0.377-0.039c0.395-0.12,0.672-0.464,0.705-0.876
			c0.299-3.702,0.083-7.22-0.498-10.651C338.794,406.232,351.287,392.848,344.097,390.975z"/>
		<path style="fill:#812C3A;" d="M348.662,401.991c1.037-3.201,2.216-6.461,3.443-9.844c0.289-0.798,0.581-1.602,0.874-2.413
			c-3.006-4.371-15.219-22.884-9.088-26.613c7.366-4.48,9.216,17.566,9.63,25.096c1.74-4.872,3.469-10.016,4.88-15.56
			c-2.104-3.123-7.636-11.916-3.417-12.216c3.19-0.227,4.025,4.967,4.201,8.932c0.815-3.658,1.465-7.495,1.877-11.539
			c-1.592-4.246-4.893-14.783,1.573-14.814c6.349-0.031,2.797,9.093,0.54,13.809c-0.718,8.11-2.406,15.369-4.433,22.058
			c3.55-4.989,10.813-14.053,13.499-8.935c3.061,5.832-10.194,10.319-14.316,11.554c-1.27,3.949-2.628,7.711-3.941,11.33
			c-0.512,1.413-1.015,2.801-1.504,4.175c3.999-5.795,9.936-12.562,12.229-9.389c3.91,5.409-9.064,12.242-14.015,14.592
			c-1.747,5.349-3.079,10.512-3.517,15.759c3.697-4.489,17.314-20.529,19.576-16.046c4.115,8.157-15.269,15.389-19.638,16.899
			c-0.205,3.173-0.083,6.382,0.498,9.69c0.046,0.263-0.013,0.529-0.166,0.747c-0.154,0.219-0.383,0.365-0.641,0.41
			c-0.125,0.023-0.252,0.022-0.379-0.004c-0.405-0.083-0.712-0.399-0.784-0.807c-0.643-3.658-0.755-7.181-0.496-10.651
			C345.747,412.327,347.317,406.163,348.662,401.991z"/>
		<polygon style="fill:#EF7D65;" points="354.787,448.939 329.47,448.939 324.47,417.917 359.787,417.917 		"/>
	</g>
	<g>
		<path style="fill:#3AB5A6;" d="M78.554,430.783c0,0,0-19.878-18.861-37.072c-11.705-10.67-25.687-22.248-17.233-28.602
			c8.454-6.355,38.296,24.613,40.686,55.808c0,0-1.791-26.616-11.594-43.789s-15.792-38.695-5.833-42.279
			c12.836-4.619,22.75,28.654,23.305,50.367c0.555,21.713-0.619,39.092-0.619,39.092s2.162-38.951,14.585-56.615
			c12.424-17.665,21.164-13.951,21.121-5.262c-0.051,10.094-18.931,22.399-24.117,40.299c-5.458,18.844-6.721,28.823-6.721,28.823
			L78.554,430.783z"/>
		<g style="opacity:0.4;">
			<path style="fill:#812C3A;" d="M86.045,428.827L86.045,428.827c-0.276,0-0.5-0.224-0.5-0.5
				c0.009-26.214-4.361-47.756-8.029-61.211c-3.975-14.582-8.004-23.073-8.045-23.157c-0.119-0.249-0.014-0.548,0.235-0.667
				c0.247-0.12,0.547-0.015,0.667,0.235c0.041,0.085,4.101,8.637,8.099,23.296c3.688,13.521,8.082,35.166,8.073,61.504
				C86.545,428.604,86.32,428.827,86.045,428.827z"/>
		</g>
		<g style="opacity:0.4;">
			<path style="fill:#812C3A;" d="M89.647,428.827c-0.018,0-0.036-0.001-0.055-0.003c-0.274-0.03-0.473-0.276-0.443-0.551
				c2.558-23.515,10.47-40.562,16.657-50.721c6.713-11.024,12.921-16.567,12.983-16.622c0.208-0.184,0.523-0.164,0.706,0.044
				c0.183,0.207,0.164,0.522-0.043,0.706c-0.244,0.216-24.455,22.093-29.308,66.7C90.116,428.638,89.899,428.827,89.647,428.827z"/>
		</g>
		<g style="opacity:0.4;">
			<path style="fill:#812C3A;" d="M81.991,428.827c-0.256,0-0.474-0.195-0.498-0.455c-2.958-32.707-36.621-58.047-36.96-58.299
				c-0.222-0.164-0.268-0.478-0.104-0.699c0.166-0.223,0.478-0.267,0.699-0.104c0.343,0.255,34.363,25.863,37.361,59.012
				c0.025,0.275-0.178,0.518-0.453,0.543C82.022,428.826,82.006,428.827,81.991,428.827z"/>
		</g>
		<polygon style="fill:#812C3A;" points="100.239,448.061 74.921,448.061 69.921,417.039 105.239,417.039 		"/>
	</g>
</g>
</svg>
